<svg xmlns="http://www.w3.org/2000/svg" fill="none" viewBox="0 0 152 152"><path fill="#111" d="M0 0h152v152H0z"/><path fill="#EEE" d="M0 0h152v152H0z"/><path fill="#760303" stroke="#000" d="M35.46 65.79v3.5h-8.62v-3.85a22.78 22.78 0 0 0-.3-3.48 4.3 4.3 0 0 0-1.24-2.44l-.02-.02-.01-.01a4.15 4.15 0 0 0-2.98-.96 3.96 3.96 0 0 0-3.94 1.96l-.02.03-.01.04a12.7 12.7 0 0 0-.82 5.2v21.62c-.11 1.8.21 3.58.95 5.22v.03l.02.03a3.91 3.91 0 0 0 3.8 1.9 3.7 3.7 0 0 0 3.7-1.96l.02-.03v-.03c.6-1.65.85-3.4.76-5.16v-4.03h8.62v3.47c.28 3.59-.7 7.17-2.76 10.15-1.9 2.32-5.25 3.53-10.2 3.53-4.94 0-8.68-1.34-10.7-3.96a18.06 18.06 0 0 1-3.16-11.48V67.93c-.3-4.09.8-8.16 3.1-11.58 2.03-2.54 5.52-3.86 10.65-3.85 5.16.02 8.48 1.2 10.18 3.38a14.56 14.56 0 0 1 2.99 9.87v.04ZM61.2 90.31l-.06-.42h-8.9l-.08.41-1.87 10.13h-8.68L51.2 53.5h10.7l9.5 47h-8.53l-1.65-10.19Zm-1.56-5.45h.59l-.1-.58L57.09 65h-.99l-3.03 19.3-.1.57H59.66Z"/><path fill="#760303" stroke="#111" d="M79 100V53h8.55l6.53 16.01L101.12 53H110v47h-8.88V71.6l-7.04 9.29-6.53-9.3V100H79ZM118 101V53h16.78c9.38 0 9.87 23.74 0 23.74h-6.9V101H118Z"/><path fill="#D9D9D9" stroke="#111" d="M126.5 70.5V59s.5-1 4.5 0 6.5 11.5 0 11.5h-4.5Z"/></svg>