<svg xmlns="http://www.w3.org/2000/svg" viewBox="0 0 22.58 22.58"><g style="display:inline;stroke-width:.795549"><g style="display:inline;stroke-width:.795549"><path d="M-46.81 254.9a.26.26 0 0 0-.27.27l-.01.93c0 .15.11.27.26.27h.61c.43 0 .75-.24.75-.67 0-.42-.32-.8-.75-.8zM-53.54 254.68l-.08.01-.86.26a.26.26 0 0 0-.18.26v.9c0 .1.07.2.18.24l.86.27.08.01h.85l.08-.01.85-.27a.26.26 0 0 0 .18-.25v-.9c0-.1-.07.1-.18-.25l-.85-.26a.26.26 0 0 0-.08-.01z" style="color:#000;fill:#c8dae5;stroke-width:.795549;stroke-linecap:round;stroke-linejoin:round;-inkscape-stroke:none" transform="matrix(1.257 0 0 1.257 77.33 -313)"/><path d="m-53.58 254.74-.8.27a.26.26 0 0 0-.2.26h.06c.69-.1.99.07 1.63.27.1.04.18.14.18.26l.01.82.87-.27a.26.26 0 0 0 .18-.25v-.83a.26.26 0 0 0-.18-.26l-.9-.27h-.85z" style="color:#000;fill:#b0c3d3;fill-opacity:1;stroke-width:.795549;stroke-linecap:round;stroke-linejoin:round;-inkscape-stroke:none" transform="matrix(1.257 0 0 1.257 77.33 -313)"/><path d="M-55.3 254.26a.26.26 0 0 0-.27.27v2.36c0 .15.12.27.27.27h.37a.8.8 0 0 0 .8-.8v-1.3a.8.8 0 0 0-.8-.8z" style="color:#000;fill:#b0c3d3;stroke-width:.795549;stroke-linecap:round;stroke-linejoin:round;-inkscape-stroke:none" transform="matrix(1.257 0 0 1.257 77.33 -313)"/><path d="M-60 254.78c-.42 0-.75.37-.75.8 0 .42.33.79.75.79h.57a.26.26 0 0 0 .27-.26l.01-1.06a.26.26 0 0 0-.26-.27z" style="color:#000;fill:#c8dae5;stroke-width:.795549;stroke-linecap:round;stroke-linejoin:round;-inkscape-stroke:none" transform="matrix(1.257 0 0 1.257 77.33 -313)"/><path d="M-58.94 254.38c-.42 0-.75.37-.75.8v.79c0 .42.33.8.75.8h.49a.26.26 0 0 0 .26-.27v-1.85a.26.26 0 0 0-.26-.27z" style="color:#000;fill:#3a4d5c;stroke-width:.795549;stroke-linecap:round;stroke-linejoin:round;-inkscape-stroke:none" transform="matrix(1.257 0 0 1.257 77.33 -313)"/><path d="M-208.63-89.41c-.5 0-.95.07-1.38.19v1.64a1 1 0 0 0 1 1h1.41a3.02 3.02 0 0 0 2.93-2.38 5.26 5.26 0 0 0-2.13-.45z" style="color:#000;fill:#97abba;fill-opacity:1;stroke-width:3.0068;stroke-linecap:round;stroke-linejoin:round;-inkscape-stroke:none" transform="matrix(.33258 0 0 .33258 77.33 39.04)"/><path d="M-57.73 253.2c-.56 0-.99.48-.99 1.05v2.64c0 .57.43 1.06 1 1.06h.24c.42 0 .74-.37.74-.79v-3.18c0-.42-.32-.79-.74-.79zM-47.78 254.59a.26.26 0 0 0-.27.26v1.65c0 .14.12.26.27.26h.48c.43 0 .75-.37.75-.8v-.58c0-.42-.32-.8-.75-.8z" style="color:#000;fill:#3a4d5c;stroke-width:.795549;stroke-linecap:round;stroke-linejoin:round;-inkscape-stroke:none" transform="matrix(1.257 0 0 1.257 77.33 -313)"/><path d="M-48.75 253.33c-.43 0-.75.37-.75.8v3.03c0 .42.32.8.75.8h.24c.56 0 1-.5 1-1.07v-2.5c0-.57-.44-1.06-1-1.06z" style="color:#000;fill:#3a4d5c;stroke-width:.795549;stroke-linecap:round;stroke-linejoin:round;-inkscape-stroke:none" transform="matrix(1.257 0 0 1.257 77.33 -313)"/><path d="M-187.1-89.39v2.82c0 1.6 1.23 3 2.83 3h.92c1.65 0 3-1.13 3.53-2.65-1.09-1.79-2.7-3.19-4.98-3.19-.75-.02-1.58 0-2.3.02z" style="color:#000;fill:#143441;fill-opacity:1;stroke-width:3.0068;stroke-linecap:round;stroke-linejoin:round;-inkscape-stroke:none" transform="matrix(.33258 0 0 .33258 77.33 39.04)"/><path d="M-51.31 254.22a.8.8 0 0 0-.8.8v1.35c0 .43.36.8.8.8h.37c.15 0 .27-.13.27-.28v-2.4a.26.26 0 0 0-.27-.27z" style="color:#000;fill:#b0c3d3;stroke-width:.795549;stroke-linecap:round;stroke-linejoin:round;-inkscape-stroke:none" transform="matrix(1.257 0 0 1.257 77.33 -313)"/><path d="M-48.75 253.43c-.43 0-.75.37-.75.79v2.94c0 .42.32.8.75.8h.24l.1-.01a.82.82 0 0 1-.04-.26v-2.94c0-.5.39-.8.8-.8a.98.98 0 0 0-.86-.52z" style="color:#000;fill:#143441;fill-opacity:1;stroke-width:.795549;stroke-linecap:round;stroke-linejoin:round;-inkscape-stroke:none" transform="matrix(1.257 0 0 1.257 77.33 -313)"/><path d="M-50.45 252.58c-.42 0-.75.37-.75.8v4.7c0 .43.33.8.75.8h.48c.56 0 1-.49 1-1.06v-4.18c0-.57-.44-1.06-1-1.06z" style="color:#000;fill:#3a4d5c;stroke-width:.795549;stroke-linecap:round;stroke-linejoin:round;-inkscape-stroke:none" transform="matrix(1.257 0 0 1.257 77.33 -313)"/><path d="M-186.63-89.41a5.57 5.57 0 0 0-5.45 5.62v1.73c-.37.17-.71.33-1.02.53a2.8 2.8 0 0 0 2.42 1.45h1.83c2.1 0 3.75-1.85 3.75-4v-5.33z" style="color:#000;fill:#143441;fill-opacity:1;stroke-width:3.0068;stroke-linecap:round;stroke-linejoin:round;-inkscape-stroke:none" transform="matrix(.33258 0 0 .33258 77.33 39.04)"/><path d="M-57.73 253.2a.98.98 0 0 0-.86.52c.7 0 .8.36.8.8v3.17c0 .09-.02.18-.05.26h.36c.42 0 .74-.37.74-.79v-3.18c0-.42-.32-.79-.74-.79z" style="color:#000;fill:#143441;fill-opacity:1;stroke-width:.795549;stroke-linecap:round;stroke-linejoin:round;-inkscape-stroke:none" transform="matrix(1.257 0 0 1.257 77.33 -313)"/><path d="M-56.27 252.26c-.56 0-1 .5-1 1.06v4.5c0 .57.44 1.06 1 1.06h.48c.43 0 .75-.37.75-.8v-5.02c0-.42-.32-.8-.75-.8z" style="color:#000;fill:#3a4d5c;stroke-width:.795549;stroke-linecap:round;stroke-linejoin:round;-inkscape-stroke:none" transform="matrix(1.257 0 0 1.257 77.33 -313)"/><path d="M-208.63-89.41c-2.41 0-4.08 1.57-5.16 3.5h-.34a5.2 5.2 0 0 0-2.3.53v1.3c0 2.15 1.64 4 3.74 4h1.84c1.6 0 2.84-1.4 2.84-3v-6.33z" style="color:#000;fill:#143441;fill-opacity:1;stroke-width:3.0068;stroke-linecap:round;stroke-linejoin:round;-inkscape-stroke:none" transform="matrix(.33258 0 0 .33258 77.33 39.04)"/><path d="M-45.74 259.62a.26.26 0 0 0-.27.26l-.01 1.06a.26.26 0 0 0 .26.27h.68c.42 0 .75-.37.75-.8 0-.42-.33-.8-.75-.8zM-52.47 259.41l-.08.01-.85.27a.26.26 0 0 0-.19.25v.88c0 .11.08.21.19.25l.85.26.08.02h.85c.03 0 .05 0 .08-.02l.85-.26a.26.26 0 0 0 .19-.25v-.88a.26.26 0 0 0-.19-.25l-.85-.27a.26.26 0 0 0-.08 0z" style="color:#000;fill:#c8dae5;stroke-width:.795549;stroke-linecap:round;stroke-linejoin:round;-inkscape-stroke:none" transform="matrix(1.257 0 0 1.257 77.33 -313)"/><path d="m-52.47 259.47-.08.01-.85.26a.26.26 0 0 0-.19.26H-52.68l.08.01.85.2c.11.04.19.14.19.26v.94h.02l.85-.27a.26.26 0 0 0 .19-.26V260c0-.12-.16.02-.19-.25l-.85-.27a.25.25 0 0 0-.08-.01z" style="color:#000;fill:#b0c3d3;fill-opacity:1;stroke-width:.795549;stroke-linecap:round;stroke-linejoin:round;-inkscape-stroke:none" transform="matrix(1.257 0 0 1.257 77.33 -313)"/><path d="M-54.23 258.82a.26.26 0 0 0-.26.27v2.64a.26.26 0 0 0 .26.27h.37a.8.8 0 0 0 .8-.8v-1.58a.8.8 0 0 0-.8-.8z" style="color:#000;fill:#b0c3d3;stroke-width:.795549;stroke-linecap:round;stroke-linejoin:round;-inkscape-stroke:none" transform="matrix(1.257 0 0 1.257 77.33 -313)"/><path d="M-58.93 259.62c-.42 0-.75.37-.75.8 0 .42.33.79.75.79h.58a.26.26 0 0 0 .26-.26l.02-1.06a.26.26 0 0 0-.27-.27z" style="color:#000;fill:#c8dae5;stroke-width:.795549;stroke-linecap:round;stroke-linejoin:round;-inkscape-stroke:none" transform="matrix(1.257 0 0 1.257 77.33 -313)"/><path d="M-57.87 259.22c-.42 0-.75.37-.75.8v.79c0 .42.33.8.75.8h.49a.26.26 0 0 0 .26-.27v-1.85a.26.26 0 0 0-.26-.27z" style="color:#000;fill:#3a4d5c;stroke-width:.795549;stroke-linecap:round;stroke-linejoin:round;-inkscape-stroke:none" transform="matrix(1.257 0 0 1.257 77.33 -313)"/><path d="M-54.23 258.82a.26.26 0 0 0-.26.27v2.64a.26.26 0 0 0 .26.27h.37c.16 0 .3-.05.42-.12v-2.93a.79.79 0 0 0-.42-.13z" style="color:#000;fill:#97abba;fill-opacity:1;stroke-width:.795549;stroke-linecap:round;stroke-linejoin:round;-inkscape-stroke:none" transform="matrix(1.257 0 0 1.257 77.33 -313)"/><path d="M-56.66 258.03c-.55 0-.99.49-.99 1.06v2.64c0 .57.44 1.06 1 1.06h.24c.42 0 .75-.37.75-.79v-3.18c0-.42-.33-.79-.75-.79zM-46.71 259.22a.26.26 0 0 0-.27.27v1.85a.26.26 0 0 0 .27.26h.48c.43 0 .75-.37.75-.8v-.78c0-.43-.32-.8-.75-.8z" style="color:#000;fill:#3a4d5c;stroke-width:.795549;stroke-linecap:round;stroke-linejoin:round;-inkscape-stroke:none" transform="matrix(1.257 0 0 1.257 77.33 -313)"/><path d="M-47.68 258.03c-.43 0-.75.37-.75.8V262c0 .42.32.8.75.8h.24c.56 0 1-.5 1-1.07v-2.64c0-.57-.44-1.06-1-1.06z" style="color:#000;fill:#3a4d5c;stroke-width:.795549;stroke-linecap:round;stroke-linejoin:round;-inkscape-stroke:none" transform="matrix(1.257 0 0 1.257 77.33 -313)"/><path d="M-50.24 258.82a.8.8 0 0 0-.8.8v1.59c0 .43.36.79.8.79h.37a.26.26 0 0 0 .27-.27v-2.64a.26.26 0 0 0-.27-.27z" style="color:#000;fill:#b0c3d3;stroke-width:.795549;stroke-linecap:round;stroke-linejoin:round;-inkscape-stroke:none" transform="matrix(1.257 0 0 1.257 77.33 -313)"/><path d="M-47.68 258.03c-.43 0-.75.37-.75.8V262c0 .42.32.8.75.8h.24l.1-.01a.82.82 0 0 1-.03-.26v-3.18c0-.42.32-.79.75-.79h.04a.98.98 0 0 0-.86-.53z" style="color:#000;fill:#143441;fill-opacity:1;stroke-width:.795549;stroke-linecap:round;stroke-linejoin:round;-inkscape-stroke:none" transform="matrix(1.257 0 0 1.257 77.33 -313)"/><path d="M-50.24 258.82c-.15 0-.3.05-.42.12v2.94c.12.08.27.12.42.12h.37a.26.26 0 0 0 .27-.27v-2.64a.26.26 0 0 0-.27-.27z" style="color:#000;fill:#97abba;fill-opacity:1;stroke-width:.795549;stroke-linecap:round;stroke-linejoin:round;-inkscape-stroke:none" transform="matrix(1.257 0 0 1.257 77.33 -313)"/><path d="M-49.38 257.1c-.42 0-.75.38-.75.8v5.03c0 .42.33.79.75.79h.49c.55 0 .99-.49.99-1.06v-4.5c0-.57-.44-1.06-1-1.06z" style="color:#000;fill:#3a4d5c;stroke-width:.795549;stroke-linecap:round;stroke-linejoin:round;-inkscape-stroke:none" transform="matrix(1.257 0 0 1.257 77.33 -313)"/><path d="M-56.66 258.03a.98.98 0 0 0-.85.53h.04c.42 0 .75.37.75.8v3.17c0 .09-.02.18-.04.26h.35c.42 0 .75-.37.75-.79v-3.18c0-.42-.33-.79-.75-.79z" style="color:#000;fill:#143441;fill-opacity:1;stroke-width:.795549;stroke-linecap:round;stroke-linejoin:round;-inkscape-stroke:none" transform="matrix(1.257 0 0 1.257 77.33 -313)"/><path d="M-55.2 257.1c-.56 0-1 .5-1 1.06v4.5c0 .57.44 1.06 1 1.06h.49c.42 0 .75-.37.75-.8v-5.02c0-.42-.33-.8-.75-.8z" style="color:#000;fill:#3a4d5c;stroke-width:.795549;stroke-linecap:round;stroke-linejoin:round;-inkscape-stroke:none" transform="matrix(1.257 0 0 1.257 77.33 -313)"/></g><g style="stroke-width:.795549"><path d="M-56.27 252.87c-.53 0-.94.44-.99.96a.7.7 0 0 0-.22-.03h-.25c-.55 0-.99.49-.99 1.06v.13h-.22a.74.74 0 0 0-.65.4h-.4c-.43 0-.76.36-.76.79 0 .42.33.8.75.8h.41c.13.23.37.39.65.39h.22v.13c0 .57.44 1.06 1 1.06a.26.26 0 0 0 0-.53c-.25 0-.47-.22-.47-.53v-2.64c0-.31.22-.53.46-.53h.25c.1 0 .22.1.22.26v.4a.26.26 0 0 0 .53 0v-1.06c0-.3.21-.53.46-.53h.48c.11 0 .22.1.22.26v3.45a.26.26 0 0 0 .53 0v-1.99h.11c.15 0 .27.12.27.26v1.6a.26.26 0 0 0 .51.08l.57.17h.93l.55-.16c.05.39.39.7.79.7h.1v.92c0 .21.09.4.22.55a.26.26 0 1 0 .4-.35.29.29 0 0 1-.08-.2v-5.03c0-.16.1-.26.22-.26h.48c.25 0 .47.22.47.53v2.65a.26.26 0 0 0 .53 0v-1.99c0-.16.1-.26.22-.26h.24c.24 0 .46.22.46.53v2.64c0 .15.12.27.27.27.14 0 .26-.12.26-.27v-.13h.22c.28 0 .52-.16.65-.4h.5c.42 0 .75-.37.75-.8 0-.42-.33-.79-.75-.79h-.5a.74.74 0 0 0-.65-.4h-.22v-.12c0-.57-.43-1.06-1-1.06h-.23a.7.7 0 0 0-.23.03c-.04-.52-.46-.96-.99-.96h-.48c-.43 0-.75.37-.75.8v.92h-.11a.8.8 0 0 0-.79.7l-.55-.16h-.93l-.56.16a.8.8 0 0 0-.79-.7h-.1v-.93c0-.42-.33-.79-.76-.79zm5.07 2.25v2.12h-.11a.26.26 0 0 1-.27-.27v-1.59c0-.14.12-.26.27-.26zm-7.52.4v1.32h-.22c-.11 0-.22-.1-.22-.26v-.8c0-.18.12-.26.22-.26zm11.2 0h.22c.11 0 .22.1.22.26v.8c0 .16-.1.26-.22.26h-.22zm-5.98.13h.77l.62.2v.66l-.62.2h-.77l-.63-.2v-.66zm-3.5.13a.26.26 0 0 0-.26.27v1.58a.26.26 0 1 0 .53 0v-1.58a.26.26 0 0 0-.27-.27zm-3 .13h.31v.53h-.3c-.12 0-.23-.1-.23-.26s.11-.27.22-.27zm13.45 0h.4c.11 0 .22.1.22.27 0 .16-.11.26-.22.26h-.4zm-8.65 1.72c-.53 0-.94.44-.99.97-.16-.05-.3-.04-.47-.04-.55 0-.99.49-.99 1.06v.13h-.22a.74.74 0 0 0-.64.4h-.42c-.42 0-.75.37-.75.8 0 .41.33.78.75.78h.41c.13.24.37.4.65.4h.22v.13c0 .57.44 1.06 1 1.06h.24a.7.7 0 0 0 .22-.03c.05.52.46.96.99.96h.48c.43 0 .76-.37.76-.8v-.92h.1a.8.8 0 0 0 .8-.7l.55.16h.93l.55-.16c.05.39.39.7.79.7h.11v.92c0 .43.33.8.75.8h.49c.52 0 .94-.44.98-.96a.7.7 0 0 0 .23.03h.24c.56 0 1-.49 1-1.06v-.13h.21c.28 0 .52-.16.65-.4h.5c.42 0 .75-.37.75-.79 0-.42-.33-.8-.75-.8h-.5a.74.74 0 0 0-.65-.39h-.22v-.13c0-.57-.43-1.06-.99-1.06h-.24a.7.7 0 0 0-.23.04c-.04-.53-.46-.97-.98-.97h-.49c-.42 0-.75.37-.75.8v.92h-.11a.8.8 0 0 0-.79.7l-.55-.16h-.93l-.56.16a.8.8 0 0 0-.79-.7h-.1v-.92c0-.43-.33-.8-.76-.8zm.48.53c.12 0 .23.1.23.27v5.02c0 .17-.11.27-.23.27h-.48c-.25 0-.46-.22-.46-.53v-2.38a.26.26 0 0 0-.53 0v1.72c0 .16-.11.26-.22.26h-.25c-.24 0-.46-.22-.46-.53v-2.64c0-.31.22-.53.46-.53h.25c.11 0 .22.1.22.26v.4a.26.26 0 1 0 .53 0v-1.06c0-.3.21-.53.46-.53zm5.34 0h.49c.24 0 .46.22.46.53v2.65a.26.26 0 0 0 .53 0v-1.99c0-.16.1-.26.22-.26h.24c.25 0 .46.22.46.53v2.64c0 .31-.21.53-.46.53h-.24c-.11 0-.22-.1-.22-.26v-.13a.26.26 0 1 0-.53 0v.79c0 .3-.22.53-.46.53h-.49c-.11 0-.22-.1-.22-.27v-5.02c0-.16.1-.27.22-.27zm-4.58 1.72h.1c.15 0 .27.12.27.27v1.58c0 .15-.12.27-.27.27h-.1zm3.83 0V262h-.11a.26.26 0 0 1-.26-.27v-1.58c0-.15.1-.26.25-.27zm-7.52.4v1.32h-.22c-.1 0-.22-.1-.22-.26v-.8c0-.15.1-.25.21-.26zm11.2 0h.22c.12 0 .22.1.22.26v.8c0 .16-.1.26-.22.26h-.22zm-5.98.13h.77l.63.2v.66l-.63.2h-.77l-.63-.2v-.66zm-6.5.27h.31v.52h-.3c-.12 0-.23-.1-.23-.26s.11-.26.22-.26zm13.45 0h.4c.11 0 .22.1.22.26s-.1.26-.22.26h-.4z" style="color:#000;fill:#000;stroke-width:.795549;stroke-linecap:round;stroke-linejoin:round;-inkscape-stroke:none" transform="matrix(1.257 0 0 1.257 77.33 -313.67)"/></g></g></svg>