<svg xmlns="http://www.w3.org/2000/svg" version="1.0" viewBox="0 0 920 1059"><path d="M318.3 1.4C304.6 4 297.1 9.7 284.2 27 272.7 42.5 266 59.1 266 72.5c0 12.3 6.2 29 15.5 42.1 5.2 7.2 7.8 8.4 16.2 7.7 5-.4 6.6-.1 11.3 2.4 4.4 2.3 6 3.7 8 7.7 3.4 6.6 5.9 8.3 16.3 10.5 10.5 2.2 13.7 4.3 15.7 10.2.8 2.4 2.1 5.4 2.8 6.6 1.5 2.8 6.2 5.3 9.7 5.3 3.9 0 14.7-5.4 20-10 2.5-2.2 5.3-4 6.1-4 3.1 0 9.8 19.5 13.6 39.5 5.5 29.9 9 39.1 18.7 49.8 3.3 3.6 6.2 7.5 6.6 8.6 1.2 3.8-4.2 17.3-10.8 27.1-1.7 2.5-6.3 8.3-10.2 13-9.4 11.1-15.1 19.3-18 25.6-2.8 6.3-8.6 12.9-13.4 15.3-2 1-7 2.6-11.1 3.5-9.5 2.2-11.7 3.6-13.1 8.8-.6 2.3-2.8 8.1-4.9 12.8-2.1 4.7-4.5 11.9-5.4 16.1-1.1 5.2-3.1 10-6.3 15.3-3.9 6.5-4.5 8.2-3.7 10.4 1.5 4.1 5.3 6.2 13.2 7.1 4.1.4 7.9 1.4 8.6 2.2 2.4 2.5 11.7 27.2 12.3 32.5.6 5.4.3 5.8-8 11.6-1.6 1.1-3.3 4.1-4.7 8.2-1.1 3.5-4.3 9.6-7.1 13.6-2.7 4-6.8 10.4-9.1 14.3-2.2 3.9-7.4 10.6-11.3 14.8-6.1 6.5-7.7 8.9-9.5 14.6-6 18.4-20.9 38.5-30.3 40.8-4.9 1.3-13.8-1.6-29.1-9.5-25.7-13.2-43.5-17.8-72.1-18.7-19.8-.6-31.8.7-49.3 5.2-48.8 12.8-94.3 50.4-116.2 96-23.4 48.7-22.4 109.9 2.5 161C40.6 833.7 76.7 865.8 120 880c39.3 12.9 84.5 10.6 124.4-6.5C312.8 844.3 355 781 355 707.8c0-32-8.8-65.1-23.2-87.5-2.4-3.7-6-9.7-8-13.3-2-3.6-6-9.2-8.9-12.5-6.8-7.8-13.9-18.9-13.9-21.8 0-2.7 1.6-5.2 8.6-13.3 2.9-3.3 8-10.2 11.3-15.2 6.8-10.3 15.8-19.8 19.6-20.8 1.9-.5 3.5.1 6.3 2.2 8.3 6.3 14.3 13.7 23.8 29.6 5.3 9 15.4 25.3 22.4 36.3 16.7 26.2 26.1 42.1 34.9 58.2 8.5 15.8 11.7 21 23.5 37.3 11.6 16.2 11.6 16.2 8.6 25.1l-2.5 7 3.5 6.6c4.1 7.6 4.4 12.6 1.2 18.9-4.2 8.2-18.3 18.7-34 25.4-3.7 1.5-8.7 4-11.2 5.4-2.9 1.7-6 2.6-8.8 2.6-3.9 0-5 .6-10.3 5.7-3.2 3.1-5.9 6.2-5.9 6.9 0 .7 2.1 2.9 4.7 4.9 4.3 3.3 5.4 3.6 10.3 3.5 7.8-.3 7.5-.4 9.3 4 1.7 4.4 3.2 5.1 4 2 .7-2.8 5.1-4.6 8.5-3.4 2.1.7 2.8 1.8 3.2 4.4.5 3.2.9 3.6 5.5 4.8 7 1.7 29.8 3.2 50.4 3.2h17.5l9 9.4c8.2 8.5 9.7 9.6 15 11.1 7.1 2.1 19.2 2.3 22.6.5 1.4-.7 4.1-2.6 6.2-4.2 6.2-4.8 8.5-1.8 5.3 7.2-1.8 5.2-2.1 38.8-.4 58.7 3.6 43.5 17.7 76.6 44.8 104.6 16.4 16.9 29.4 26.5 50.1 36.6 71.2 35.1 157.2 23.1 210.2-29.3 36.1-35.7 55.3-88.7 51.1-140.5-3.9-46.1-23.6-87.6-58.2-122.2-12.7-12.6-26.6-23.5-37.6-29.4-4.9-2.7-12.3-6.6-16.3-8.7-18.3-9.9-40.6-14.8-66.9-14.8-20.5 0-39.1 3.4-56.1 10.1-6.7 2.7-8.5 3-13.9 2.5-7.6-.6-10.3-1.9-10.3-5 0-2.5-2.9-5.6-7.5-7.9-3.9-1.9-5.9-4.4-7.4-8.6-1.6-4.8-3.9-7.1-7.2-7.1-1.5 0-3.9-.4-5.3-1-3.2-1.2-3.5-5.1-.7-9.7 2.9-4.7 5.4-5 10-1.4 7.4 5.9 12.6 7.6 23.1 7.6 10 0 23-2.6 25-5s-.7-5.2-10.3-10.6c-5-2.8-10.5-6.2-12.2-7.4-1.6-1.3-9-5.7-16.2-9.9-7.3-4.1-19.8-11.9-27.9-17.1-16.3-10.7-20.3-12.9-28.3-15.6-9.1-3.2-14.1-2.2-14.1 2.6 0 3.1 2 4.5 14.8 10.9 11.6 5.8 19.1 11.7 21.9 16.9 2 3.9 3.5 15.4 2.5 19.1-1.1 4.2-3.3 5.2-7.1 3.6-2.3-.9-6.4-5.5-13.6-14.9-16-21.1-46-55.1-56.7-64.3-17.6-15.2-18.4-16.3-17.4-24.5.4-3.1.2-6.2-.4-7.3-.9-1.7-.2-2.8 5.1-7.7 7.6-7.2 12.8-14.5 20.9-29.3 3.4-6.3 8.8-14.7 12-18.5 3.1-3.9 9.3-12.5 13.8-19.2 9.3-13.9 16-21 23.9-25.5 3-1.7 6.6-4.6 8.1-6.5 1.5-1.9 5.3-6.7 8.5-10.6 5.5-6.9 7.7-11.5 7.7-16.5 0-1.3 2.9-6.9 6.6-12.5a223 223 0 0 0 9.7-16.7c3-5.9 3.2-7.3 3.5-18.2.6-19.7-3.7-42.5-11.9-63.5-2.2-5.6-8.9-20-14.9-32s-15.2-31.9-20.5-44.3c-24.5-56.8-44.5-89.3-72-116.5-12.1-12-23.7-20.4-38.8-28.1-6.1-3.1-13.4-7.2-16.1-9.1-4.3-2.9-5.7-3.4-10-3.2-3.4.2-6.2-.3-8.5-1.5-2.6-1.4-5.6-1.7-13.8-1.7-9.7.1-10.8.3-13.5 2.6-3.7 3.1-5.3 2.4-12.5-5.5-3-3.3-7-6.4-9.2-7.3-7.1-2.9-8.1-5.3-8.1-18.8V27.2l-3.9-3.4c-8.6-7.3-29.5-18.4-40.6-21.5-7.5-2-23.8-2.5-32.2-.9zM462.1 329c1 .6 3.3 3.9 5 7.3 1.8 3.4 4.4 8 5.9 10.2 8.6 12.6 8.9 16.5 2 25.9-4.8 6.6-6.3 10.1-7.5 17.7-.4 2.6-2.3 5.7-6.5 10.4-3.3 3.8-9.3 11.6-13.2 17.4-3.9 5.8-9.8 14.1-13 18.3-3.2 4.2-10.3 15.1-15.8 24.3-12.1 20.1-17.2 27.6-22.3 33.3l-4 4.2-2.1-3.4c-1.2-1.9-4.5-5.2-7.3-7.5-9.5-7.5-10.6-10.8-6.8-22.1 2.8-8.4 5-11 9.5-11 3.8 0 5-1.8 5-7.6 0-4.1.5-5.9 2.5-8.2 2.7-3.2 3.3-7.8 1.3-10.5-.7-1-4.2-3.2-7.8-5-5.8-2.9-6.8-3.8-9.5-9.1-2.8-5.5-3-6.8-3-16.2 0-6.1.4-10.7 1.1-11.4.7-.7 2.4-.8 5.4-.1 6.6 1.5 9.9-.4 14.6-8 2.1-3.5 6.2-9.9 9.1-14.2 2.8-4.3 6-9.9 6.9-12.4 1.9-4.8.9-4.3 36.4-21 4.9-2.4 11-2.9 14.1-1.3zM182.3 571.5c-1.9 17.3-7.6 61.9-8.2 64-.6 2.3-2.2-4.5-7.2-30-3.6-18.2-6.3-33.3-6-33.7.7-.8 16-2.7 19.6-2.4 1.4.1 1.9.7 1.8 2.1zm19-.3c3.8.9 3.9 1.1 3.3 4.3-.4 1.9-5.9 21.5-12.3 43.7-6.3 22.2-11.8 41.3-12 42.5-.3 1.3-.9 2.3-1.3 2.3-1 0-3-10.4-3-15.8 0-5.2 8.9-77.2 9.7-78.5.5-.9 9.5-.1 15.6 1.5zm-42.9 3.5c9.5 47.4 13.6 70.7 13.5 77.3 0 7.9-1.1 12.6-2.1 9.9-4.9-12.1-28.2-72.3-30.2-77.6l-2.5-7.3 5.2-1.4c15.5-4.4 15.4-4.4 16.1-.9zm71 4.3c.9.9.4 2.6-14.6 46.5-6 17.6-11.7 33-12.6 34.2-.9 1.2-4.5 5.7-7.8 10-3.4 4.3-7.5 9.1-9.2 10.6-3 2.9-3 2.9-3.7.7-1.6-5.1-.6-13.7 2.8-25 1.9-6.3 8.1-27.5 13.7-47.1l10.3-35.5 10.1 2.4c5.5 1.3 10.5 2.7 11 3.2zm-77.3 44.5 17.2 44-.1 9.3c0 9.1-1 12.2-3.7 12.2-.6 0-3.9-2.5-7.2-5.5l-6.1-5.4-14.7-34.8c-8.2-19.1-16.8-39.2-19.2-44.7-2.3-5.4-4.3-10.2-4.3-10.7 0-1.7 19-10.3 20.2-9.1.4.4 8.4 20.5 17.9 44.7zm98.2-31.3c1.1 1.7-10.8 22.7-17 29.9-2.5 3-9.1 11.2-14.5 18.2-5.5 7.1-10.2 12.7-10.3 12.5-.2-.2 1.8-6.4 4.4-13.8 2.6-7.4 8-23.2 12-35l7.3-21.5 8.7 4.2c4.7 2.4 9 4.8 9.4 5.5zm-122.1 36c17.2 40.8 18.4 43.8 17.2 43.8-.4 0-3.1-1.8-6-4-3.7-2.8-7.4-7.3-13-15.7-4.3-6.5-13.4-20.3-20.2-30.7-6.9-10.4-12.5-19.6-12.6-20.3-.1-1.3 14.9-12.2 16.9-12.3.6 0 8.5 17.7 17.7 39.2zm-32-17c2.9 4.6 9.3 14.4 14.3 21.8 9 13.5 13.5 20.6 13.5 21.6 0 .7-6-4.1-28.7-22.8-10.1-8.2-18.3-15.2-18.3-15.6 0-.9 12.3-13.2 13.2-13.2.4 0 3.1 3.7 6 8.2zm180.4 3c6.2 6.5 9.8 11.8 8.8 12.7-2.5 2.3-57.7 38.1-58.1 37.7-1-1 3.9-7.9 19-26.9 14.1-17.6 23.4-27.7 25.5-27.7.4 0 2.6 1.9 4.8 4.2zm-173 27.9c13.2 10.8 25.5 21.4 27.5 23.5 3.4 3.7 8.9 11.6 8.9 13 0 .7-4.9-1.9-45.7-24.9-17.8-9.9-32.3-18.5-32.3-19.1 0-.6 2.7-4.6 6.1-8.9l6-7.7 2.9 2.2c1.5 1.3 13.5 11.1 26.6 21.9zm189.7-5.3c2.5 4.3 4.9 8.5 5.1 9.3.4 1-8.7 6.9-31.2 20.1l-31.7 18.7-3.7-3.6c-2-1.9-3.9-4.7-4.3-6.2-.3-1.4-.8-3.3-1.1-4.2-.3-1.2 2.7-3.6 10.8-9 6.2-4 20-13.1 30.7-20.1 10.6-7 19.6-12.8 20-12.8.4 0 2.8 3.5 5.4 7.8zm-192 23.8c22.1 12.4 41.8 24.2 43.8 26.1 2.1 1.9 4.9 5.7 6.3 8.4l2.7 4.8-3.7.7c-9.6 1.8-12.6.7-57.4-20.9-23.4-11.3-42.6-21.1-42.8-21.9-.4-1.9 8.6-19.8 9.9-19.8.6 0 19.1 10.2 41.2 22.6zm404.5-11.4c2.3 1.8 8.7 7.6 14.4 12.9 5.7 5.3 14.6 12.7 19.8 16.6 10 7.3 32.6 28 36.6 33.5 3 4 3 7 0 13.5-3.3 7-23.2 37.5-25.6 39.2-2.7 1.9-4.7.8-6.5-3.6-.9-2.1-5.2-7.4-9.6-11.9l-8-8.2 2.6-3.7c1.4-2.1 2.5-4.2 2.5-4.7s-1.2-4-2.7-7.6a36.6 36.6 0 0 1-2.8-12.9c-.2-7.3-1.2-8.8-8-11.8-6.6-3-8.1-4.9-11.1-13.7-4.8-14.1-9.2-40.8-6.7-40.8.6 0 2.9 1.5 5.1 3.2zM304.3 660a321 321 0 0 1 3.7 10.4c0 .3-7.5 3.4-16.7 7-46.8 18.2-48.6 18.9-55.5 20.1-4.3.7-4.7-.3-2.4-5.9 1.1-2.7 3.8-4.7 15.2-11.4 7.7-4.4 22.2-13 32.3-19.1C291.1 655 299.7 650 300 650c.3 0 2.3 4.5 4.3 10zM90 681c40.2 19.4 40.3 19.5 35.9 20.1-7.8 1.1-14.9-.2-40.4-7.2-13.7-3.7-28.8-7.9-33.5-9.2l-8.5-2.3.1-3.5c.2-4.4 4.3-18.1 5.3-17.7.5.2 19 9.1 41.1 19.8zm85.9-12.5c.7 6.8-.2 8.5-2 3.7-1-2.6-.3-12 .8-10.8.3.3.9 3.5 1.2 7.1zm-25.8 13.2c4.4 7.1-.6 4.6-6.2-3.1-1.6-2.1-2.9-4.3-2.9-4.8 0-1.6 6.9 4.3 9.1 7.9zm159.8-2.5c.6 2.9 1.3 6.9 1.6 8.9l.7 3.5-18.9 1.4c-29.5 2.1-38.3 2.5-38.3 2 0-.7 50.1-20.8 52.2-20.9 1.2-.1 1.9 1.2 2.7 5.1zm-136.4 3.7c-.4 2.3-1.1 4.1-1.6 4.1-1.2 0-1.1-2 .2-5.9 1.5-4.3 2.3-3.2 1.4 1.8zm56.3-1.2c-.5 2.6-3.8 2.9-3.8.4 0-1.5.6-2.1 2.1-2.1 1.4 0 1.9.5 1.7 1.7zm-176.9 5.9c23.1 6.2 45.7 12.7 46.4 13.4 1.2 1-17.8 2-40.1 2H39.7l.7-7.3c.7-7.6 1.4-10.7 2.3-10.7.3 0 4.9 1.2 10.2 2.6zM216 694c0 2.1-4.2 5.4-6.1 4.8-1.2-.4 3.6-6.8 5.2-6.8.5 0 .9.9.9 2zm96.4 1.6c.7 1.7.8 20.4.2 20.4-.8 0-39.3-4-59.8-6.2-20.1-2.2-20.8-2.3-20.8-4.4 0-3.6 9.5-6.1 28.5-7.4 8.8-.7 22.3-1.8 30-2.5 19.8-1.8 21.2-1.8 21.9.1zm-99.1 8.4c-.3 1.1-1.3 2-2.2 2-2.9 0-3.3-1.3-.9-2.7 3.2-1.7 3.7-1.6 3.1.7zm-58.3.5c0 2-6.9 2-9.6 0-1.7-1.3-1.4-1.4 3.9-1.5 4.4 0 5.7.3 5.7 1.5zm-37.2 1.1c9.3 1.9 14.4 3.9 12.2 4.8-.8.3-15.4 3.2-32.5 6.5S60.9 724 54 725.4c-6.9 1.3-12.7 2.3-12.9 2.1-.1-.2-.6-5.1-.8-10.9l-.6-10.6h4.4c10.4 0 51.4-1.3 51.8-1.6 1.1-1 15-.2 21.9 1.2zm23 .1c3 1.4 3.3 1.8 1.7 2.2-2.5.4-14.5-1.7-16.5-2.9-2.9-1.8 10.9-1.1 14.8.7zm68.9 2.9c-.3.3-1.2.4-1.9.1-.8-.3-.5-.6.6-.6 1.1-.1 1.7.2 1.3.5zm-8.4 2.9c.1.5-.6 1.1-1.5 1.3-1.1.2-1.8-.3-1.8-1.3 0-1.7 3-1.8 3.3 0zm14.7-.1c0 2.6-2.6 3.9-5.2 2.5l-2.3-1.2 3-1.3c3.9-1.7 4.5-1.7 4.5 0zm47.5 2.2c14.3 1.4 31.2 3.1 37.5 3.7l11.5 1.2-.3 4.5c-.3 4.9-2.1 16.1-2.8 17.1-.2.3-2.5.3-5.1-.2-11-1.8-55-9.2-71.2-11.9-13.2-2.2-18.3-3.6-21.5-5.5-6.2-3.8-10-7.2-8.7-7.9 1.5-1 8.5 2.9 11 6 2.1 2.7 2.1 2.7 6.4 1 5.5-2.1 11.7-7.2 11.7-9.8 0-1.6.5-1.9 2.8-1.4 1.5.3 14.4 1.7 28.7 3.2zm-112.6 1 4.2 1.7-4.3 4.4c-2.4 2.4-6.5 5.5-9.3 6.8-5.2 2.5-94.2 24.1-95.2 23.1-.8-.8-4.3-15.7-4.3-18.4 0-1.2.3-2.2.6-2.2s8.6-1.5 18.3-3.4c9.7-1.9 25.3-4.9 34.6-6.7 9.4-1.7 22-4.2 28-5.5 12.3-2.6 20.6-2.5 27.4.2zm52.4 6.1c1.6 1.3 2.3 2.3 1.5 2.3-3.2 0-5.6-1.4-6.7-3.6-2-4.4-1.8-4.4 5.2 1.3zm-41.3.8c1.3 1.5 1.4 1.4-3.5 3-1.8.5-1.9.1-.3-2.5 1.5-2.4 2.2-2.5 3.8-.5zm23 8.5c0 2.2-.2 4-.5 4-1.1 0-2.5-4.3-2-6 1.1-3.4 2.5-2.2 2.5 2zm26-3c3.6 1 11.5 6.9 9.3 7-2.2 0-12.2-4.1-14.5-6-2.2-1.8-2.2-1.9-.3-2 1.1 0 3.6.5 5.5 1zm-40.2 2.8c.2 1.2-.1 2.9-.6 3.8-.8 1.4-1 .8-1.4-2.4-.4-4.3 1.4-5.5 2-1.4zm29.9.9c4.6 2.1 10.3 7.8 39.6 39.5 18.8 20.4 34.3 37.4 34.5 37.9.4 1-8.1 10.3-12.1 13.1-2.5 1.8-3 1.8-4 .5-.7-.8-8.6-10.2-17.6-20.8-50.3-59.3-46.3-53.9-49.2-65.2-1-3.9-1.9-7.6-1.9-8.1 0-1.2 4.5.1 10.7 3.1zm-37.2 3c-1.2 8.8-3.7 14.5-9.9 22.7-3.4 4.4-17 22.3-30.1 39.6-13.1 17.3-23.9 31.7-24.1 31.9-.6.6-4.7-2.4-10.7-7.9l-5.6-5.1 5.7-7.2c21.4-26.9 52.1-64.8 55.1-68 3.6-3.9 8.4-6.8 15-9.2 5.2-2 5.3-1.9 4.6 3.2zm71-2.7c10.2 1.5 73.9 12.1 74.2 12.4.9.8-5.5 19.6-6.7 19.6-2.1 0-67-23.5-70.5-25.5-2.2-1.3-5.6-3.8-7.5-5.5l-3.5-3.1 3 .5c1.7.3 6.6 1 11 1.6zm-88.5-.1c0 1.2-6.9 5.5-7.6 4.8-.3-.3 1.2-1.7 3.3-3.1 4.2-2.9 4.3-2.9 4.3-1.7zm455.6 3.6c.7 1.9 1.4 6.5 1.4 10.2 0 7.3.6 5.8-15 33.4-6.9 12.2-11.5 14.6-16.5 8.7-4.9-5.9-6.1-9.3-4.5-13.6 1.5-4.2 21.2-36.5 24.3-40 1.3-1.4 3.2-2.2 5.4-2.2 2.9 0 3.6.5 4.9 3.5zm-468.7 1.1c-5.5 5.9-8.7 7.5-62.2 31.2l-15.7 7-1.5-2.8c-2.7-5.2-6.4-16.5-5.7-17.1.4-.3 19.1-5 41.7-10.3 22.5-5.3 41.1-9.9 41.4-10.2.2-.2 1.3-.4 2.4-.4 1.9 0 1.9.1-.4 2.6zm52.5 7.1c.9 6-.7 5.3-3.8-1.6-3.4-7.6-3.3-9.3.3-5.6 1.8 1.9 3.1 4.5 3.5 7.2zm-11.9-4c-.9 2.1-2.5 5.1-3.6 6.8l-2 3 .6-4.5c.7-4.2 3.7-9 5.7-9 .4 0 .1 1.7-.7 3.7zm45.6-2.1c3 .9 7.9 2.9 10.9 4.4 5.7 2.9 60.2 43.3 60.8 45 .4 1-6.6 12-11.1 17.4l-2.3 2.8-17.9-19.3c-9.9-10.6-21.8-23.4-26.5-28.4-13.6-14.6-21.3-23.5-20.3-23.5.5 0 3.4.7 6.4 1.6zm527.5 3.1c-.3 2.7-2.2 17.5-4.1 33-1.9 15.5-3.5 28.7-3.5 29.3 0 .5-.4 1-.9 1s-1.1-2.1-1.5-4.8c-.3-2.6-2.8-16-5.5-29.7-6.8-34.7-6.5-32.3-4.4-32.8 1-.3 6-.5 11.1-.6l9.4-.1-.6 4.7zm14.9-2.6c3.9.6 7.3 1.3 7.6 1.5.9.5.3 2.9-7 28.4-14.5 50.3-16.6 57-17.7 57-4.7 0-4.6-8.9.5-50 5.3-42.1 4.7-39.1 7.4-38.6 1.2.3 5.4 1 9.2 1.7zm-39.1.6c1.4 4.8 14.6 74.8 14.6 77.4 0 2.5-.3 3-1.6 2.5-.9-.4-2.3-.1-3 .5-1.5 1.2-1.7.8-5.4-9.6-1-2.8-4.6-12-8-20.5-9.9-24.8-12-30.9-10.9-31.6 2.4-1.4 7.9-11.5 7.9-14.3 0-2 .8-3.5 2.2-4.5 2.9-2 3.5-2 4.2.1zm-586.3 6.5c-6.8 9.2-54.3 67.8-55 67.8-1.1 0-12.6-15-12.6-16.5 0-1.1 17.6-16.4 49.8-43.5 7.4-6.2 16.7-11.9 19.5-12 .9 0 .2 1.6-1.7 4.2zm44.6.5c5.5 9.1 6.2 11.9 7.4 33.5.6 11.2 1.9 32.4 2.9 47.3 1 14.8 1.6 27.2 1.3 27.5-.3.3-5.8.7-12.4.8l-11.9.4v-48c0-38.1.3-48.8 1.4-52.5 1.6-5.3 6.2-13.7 7.6-13.7.4 0 2.1 2.1 3.7 4.7zm604.7-.6c3.9 1.7 7.4 3.3 7.8 3.7.4.4-3.1 12-7.8 25.7-4.8 13.8-11.3 32.9-14.6 42.6l-6 17.5-3.2-3.2c-2.5-2.5-4.5-3.4-8.4-4-2.9-.3-5.2-.9-5.2-1.3 0-.3 1.3-5.1 3-10.6 1.6-5.5 7.1-24.5 12.2-42.3l9.2-32.3 2.9.7c1.6.3 6.1 1.9 10.1 3.5zm-592.1 8.4c1.9 6.3 2.6 10.5 1.7 10.5-.4 0-1.9-2.2-3.3-4.9-1.9-3.4-2.7-6.4-2.7-9.7 0-4.4.1-4.7 1.4-2.9.7 1.1 2 4.2 2.9 7zm61.3-3.1c20.6 7 44.9 15.9 45.9 16.7 1.3 1.3-6.5 17.1-8.2 16.5-1.3-.5-44.8-32.9-47.3-35.2-2-1.9-1.7-1.9 9.6 2zm-91 7.7c-1.2 2.9-1.4 3.1-1.5 1.1-.1-1.3.5-4.4 1.2-7l1.2-4.7.3 3.6c.2 2-.4 5.2-1.2 7zm648.9 1.4 2.5 2-7.9 13.5c-4.3 7.4-13 22.8-19.5 34.2-10.4 18.4-18.7 30-20.3 28.4-.3-.3 6.1-20.1 14.3-44l14.8-43.5 6.8 3.6c3.7 2.1 7.9 4.6 9.3 5.8zm-703-2.8c-2.7 2.5-11.7 10.3-20 17.4-8.2 7-16.9 14.3-19.2 16.3l-4.1 3.6-2-2.7c-1-1.6-3.3-5.3-5-8.4l-3.2-5.6 12.3-5.6c10.6-4.9 18.6-8.3 40.2-17.5 2.8-1.2 5.2-2.1 5.5-2.1.3 0-1.7 2.1-4.5 4.6zm48 10.9c-1.5 6.4-12.1 28.3-31.2 64.2l-5.5 10.2-9-4.7c-5-2.6-9.3-5.4-9.5-6.1-.5-1.1 28.9-41 50.7-68.8 5.2-6.7 5.5-6.9 5.8-4.4.2 1.5-.4 5.8-1.3 9.6zm50.6-.6c4.1 4.7 13 15.2 19.9 23.5 6.8 8.2 16.3 19.6 21.2 25.1 4.8 5.6 8.8 10.4 8.8 10.7 0 1.2-18.3 12.8-19 12-.4-.4-8.8-14.4-18.7-30.9-18.4-30.8-20.1-34.5-22.7-49.4-.8-4.1-1.5-4.7 10.5 9zM717 789.7c6.3 16.3 11.7 30.3 11.9 31.1.3 1.3-.8 1.4-6.8.8-3.8-.3-9.1-1.4-11.6-2.4l-4.7-1.7-8.7-20.5c-4.9-11.3-9.1-21.4-9.5-22.6-.5-1.8.3-2.7 5.8-5.9 3.6-2.1 7.5-4.9 8.7-6.2 1.3-1.2 2.5-2.3 2.8-2.3.3 0 5.8 13.4 12.1 29.7zm109.3-20.8 6.8 5.6-12.8 12.3C795.1 811 784 821.2 784 820.3c0-.5.4-1.3.9-1.9.5-.5 5-8.3 10.1-17.4 17.4-31.2 22.2-39 23.3-38.3.7.3 4.3 3.2 8 6.2zm-660.9 30.3c.2 19.4.1 39.5-.2 44.7l-.5 9.3-5.1-.7c-10-1.3-13.6-2.6-13.6-4.9 0-2.1 7.2-43.7 11.1-63.5 1.8-9.4 6.4-21.9 7.6-20.7.3.2.6 16.3.7 35.8zm32.2-25.3c2 4.1 19.3 69.8 19.4 73.3 0 .3-1.5 1.1-3.2 1.7-4.2 1.3-18 4.2-18.4 3.8-.2-.1-1-11.9-1.9-26.2-.8-14.3-2-32.8-2.5-41-.5-8.3-1-16.8-.9-19v-4l2.5 3c1.3 1.6 3.6 5.4 5 8.4zm494.6 18.4c9.8 23.2 9.4 22.2 8 21.3-1.6-1-15.4-18.2-19.7-24.6-4.3-6.4-4.4-9-.4-12.4 1.7-1.4 3.4-2.6 3.7-2.6.4 0 4.2 8.3 8.4 18.3zm148.8-9.1c3 3.5 6 7.1 6.8 8 1.3 1.6-.8 3.2-25.4 19.4-35.8 23.6-49.6 32.4-50.6 32.4-.5 0 .3-2.4 1.9-5.3 1.8-3.3 6.7-9 13.8-15.7 6-5.8 18.9-18.3 28.5-27.7 9.6-9.5 18-17.3 18.6-17.3.6 0 3.5 2.8 6.4 6.2zm-688.1 8.5c-1.2 9-9.7 56.4-10.2 56.9-.5.6-15.2-4.5-17.2-6-1.7-1.2-.8-3.3 12.6-29C146 798.4 152.7 786 153 786c.4 0 .3 2.6-.1 5.7zm69.8 23.7c7.6 12.6 13.9 23.2 14.1 23.6.3.7-16.8 8.5-17.2 7.8-.2-.2-10.1-40-14.2-57.3-.9-3.7 3.1 2.3 17.3 25.9zm318.1-24.1c1 5.2-2.5 8.6-5.6 5.5-1.3-1.3-1.6-6-.5-7.2 1.4-1.4 5.8-.1 6.1 1.7zm113.1-.9c.8.9 2.5 1.2 5.5.9 4.2-.5 4.4-.4 7.6 4.2 1.8 2.6 7.5 8.9 12.8 14.1 5.2 5.2 9.3 9.7 8.9 10-.3.3-4.1-2.2-8.4-5.7-14.4-11.7-29.3-24.1-29.3-24.5 0-.9 1.8-.3 2.9 1zm1.9 6.9c4.8 4 14.4 11.9 21.5 17.6 7 5.7 12.7 10.7 12.7 11.2 0 1.5-7 6.1-8.4 5.6-1.5-.6-38.8-21.6-39.4-22.2-.2-.2.4-1.5 1.3-2.9 1.4-2.1 1.6-3.8 1-8.2-.4-3.7-.3-6 .5-7 .7-.7 1.5-1.4 1.7-1.4.3 0 4.4 3.3 9.1 7.3zm202.4 9c3.4 5.6 3.9 7 2.7 7.8-.8.5-9.5 5.7-19.4 11.6-9.9 5.8-27.9 16.6-40.1 23.8-12.1 7.2-23.5 13.7-25.2 14.3-3.7 1.3-18.2 2.8-18.2 1.9 0-1.1 6.9-12.2 9.2-14.9 1.3-1.4 16.7-12 34.2-23.5 17.6-11.4 35.8-23.3 40.5-26.4l8.6-5.6 1.7 2.1c1 1.1 3.7 5.2 6 8.9zM659 822c10.2 5.7 19 10.8 19.7 11.4.8.8.5 2-1.3 4.8-2.1 3.3-2.9 3.8-6.2 3.8-6 0-15.8-2.8-25.1-7-4.7-2.1-10.5-4.4-12.7-5-2.3-.5-4.7-1.7-5.4-2.5-2.8-3.3-7.6-12.2-7.2-13.3.5-1.7 4.4-1.5 6.8.3 2.7 2 4.6 1.9 8.5-.8 1.9-1.3 3.6-2.3 3.9-2.2.3.1 8.8 4.9 19 10.5zm-112.5-4.3c.6 1.8 2 3.9 3 4.7 1.9 1.4 1.9 1.5-.5 2.4-5.9 2.2-9 2.4-11.8.6-3.2-2.1-6.1-5.5-6.2-7.1 0-2.5 4.4-4.4 9.5-4.1 4.7.3 5.1.5 6 3.5zm317.8-.5c.3.7 2.1 5.2 4.1 10.1l3.5 8.7-2.7 1.4c-1.5.7-16.3 6.6-32.8 13-26.4 10.1-31.3 11.7-39.6 12.7-14.3 1.7-14.7 1.2-3.8-5.4 20.1-12.3 69.5-41.6 70.1-41.6.4-.1.9.5 1.2 1.1zm-165 20.2c-.3 3.6-.7 4-3.1 2.7-1.8-.9-1.9-1.4-.9-3.6 1.6-3.4 4.3-2.8 4 .9zm34.7 2.7c0 5.2-.2 6-1.4 5-2-1.7-2.8-5.6-1.6-8.5 1.7-4.5 3-2.9 3 3.5zm7-.7c-.1 2.1-.1 2.1-1.5.2-1.9-2.5-1.9-3.7 0-3 .8.4 1.5 1.6 1.5 2.8zm14 .2c0 1.4-.5 3.5-1.1 4.6-.9 1.7-.8 2.4.5 3.4 1.5 1 1.3 1.4-1.6 3.9l-3.2 2.7-.9-3.3c-.5-1.9-1.2-3.9-1.7-4.4-1.2-1.5-2.2-7.3-1.5-8.5.3-.5 2.6-1 5.1-1 4.1 0 4.4.2 4.4 2.6zm-125.8 4.3c28.2 10.4 56.3 21.4 57.3 22.3 3.3 3.3-20.8-2.3-76.2-17.9-5.7-1.6-6.5-3.1-3.7-7.1 2.4-3.4 7.7-2.8 22.6 2.7zm245.3 2.3c2.5 11.1 2.5 10.8.7 10.8-1 0-13.2.9-27.2 2s-26.4 2-27.5 2l-2-.1 2-1.1c2-1.2 50.4-20.6 51.6-20.7.4-.1 1.4 3.2 2.4 7.1zM696.3 843c4.8 3.1 5.7 4.9 3.4 6.9-1.6 1.3-12.1-.2-14.3-2-2-1.6-1.7-5.6.4-6.8 2.8-1.7 5.4-1.2 10.5 1.9zm41.4 3.2c-.3.8-.6.5-.6-.6-.1-1.1.2-1.7.5-1.3.3.3.4 1.2.1 1.9zm-27.6 6c3.5 3.6 5.4 6.8 4.1 6.8-2.4 0-7.4-2.4-8.2-4-1.3-2.5-1.3-6 .1-6 .6 0 2.4 1.4 4 3.2zm-80.1 4.2c12.9 3.6 26.2 7.3 29.5 8.4l6 1.9-7.5.6c-4.1.3-18.1.9-31.2 1.2l-23.6.5.4-6.2c.7-8.8 1.4-12.8 2.2-12.8.4 0 11.3 2.9 24.2 6.4zm125.4 4.1c-.7 1.7-3 2-3.8.6-.4-.5 0-1.2.6-1.4 2.5-1 3.7-.7 3.2.8zm122 2.7c.3 2.4.8 7.3 1.1 11 .7 6.7.6 6.8-1.8 6.8-1.3 0-17.9-1.6-36.8-3.5l-41.7-4.2c-4-.3-7.5-.9-7.7-1.3-.3-.4 3.2-2.2 7.8-4 8-3.1 9.2-3.3 42.7-6 19-1.5 34.8-2.8 35.2-2.9.4 0 .9 1.8 1.2 4.1zm-83.9 3.7c-2 1.9-10.8 4.1-16.2 4.1-6.8 0-6.2-1.5 1.4-3.6 5.6-1.5 16.2-1.9 14.8-.5zm-125 5.7c-1.3 1.4-2.9 4.1-3.5 5.9-.7 2.1-1.9 3.5-3.3 3.8-14 3.2-56.8 10.9-57.3 10.4-.4-.4-.9-5.4-1.2-11.2l-.5-10.5 18.9-.3c10.4-.1 25.7-.3 34.1-.5l15.2-.2-2.4 2.6zm21 .2c4.5 1.5 4.7 1.7 2.1 2-2.6.3-14.6-3.4-14.6-4.5 0-.8 6.9.6 12.5 2.5zm85 1.1c-.8 1.4-10.2 4.3-12.2 3.9-3.1-.7 4.7-4.8 9-4.8 2.1 0 3.6.4 3.2.9zm60 5.5c19.3 2 36.9 3.8 39.3 4.1l4.2.6v4.7c0 4.9-1.6 16.1-2.4 16.9-.9 1-93-14.8-97.1-16.6-4.2-1.8-11.9-8-11.1-8.8.2-.2 3-1.6 6.3-2.9 7.4-3.1 12.6-3 60.8 2zm-67.2 6c3.3 2.4 3.5 3.6.5 2.9-2.9-.7-5.8-3.2-5.8-5 0-1.5.7-1.2 5.3 2.1zm-101.5 4.1c7.3 5 10.5 5.5 16.7 2.9 4.6-1.9 9.5-1.2 12 1.6 1 1.1 1.6 2.2 1.4 2.3-.2.2-9.4 2.5-20.5 5-11 2.6-30.3 7.2-42.9 10.2-17.2 4.1-23.1 5.2-23.6 4.3-.5-.7-1.5-4.6-2.4-8.8-.9-4.1-1.7-8.3-1.9-9.3-.2-.9-.3-1.7-.3-1.7 4.1-.8 54.3-10.8 54.5-10.9.1 0 3.3 1.9 7 4.4zm116.2 6.2c2.2 1.6 4 3.1 4 3.5 0 .9-8-1.7-12.9-4.1-2.2-1.2-4.1-2.5-4.1-3 0-1.6 9.2.9 13 3.6zm-18.8-.7c6.8 2.5 7.3 3 75.1 76.6 3.1 3.4 5.7 6.6 5.7 7.1s-3.3 4.1-7.3 8.1l-7.4 7.3-10.5-12.3c-30.4-35.5-57.2-67.7-58.9-71.1-2.4-4.6-5.2-15.4-4.4-16.7.9-1.4 1.7-1.3 7.7 1zm73.3 7.4 38 6.3-.1 3.4c-.1 1.9-1.1 6.6-2.3 10.6l-2.2 7.2-11.2-4c-6.2-2.2-21.9-7.8-35-12.4-24.1-8.5-27.3-10-34.3-15.6l-3.9-3.2 6.5.7c3.6.3 23.6 3.5 44.5 7zm-108.9-.2c-1.1 7.8-2.4 10.2-14.7 26.4-22.8 30-40.2 53-44.3 58.6-2.2 3.1-4.5 5.7-5 5.7-.9.1-14.2-10.5-15.2-12.1-.3-.5 6.4-9.5 14.9-20.1 8.5-10.6 21.4-26.6 28.7-35.7 20.1-25.2 23.2-27.9 31.9-28h4.4l-.7 5.2zm-29.6-2.3c0 1.9-7.2 7.1-14.7 10.7-4.3 2-20.7 9.4-36.5 16.4l-28.7 12.7-2.5-5.7c-2.9-6.4-5.8-14.2-5.4-14.5.2-.1 14.9-3.7 32.8-7.9s36.8-8.8 42-10.1c10.5-2.6 13-2.9 13-1.6zm85.7 2.1c10.5 3.3 15.1 6.2 46.2 29.5l30.2 22.6-3.2 5.7c-1.7 3.1-4.8 8.1-6.7 11.1l-3.6 5.4-8.5-8.9c-8.1-8.6-29.9-32-50.8-54.8-8.8-9.5-11.3-12.7-10-12.6.1 0 3 .9 6.4 2zm-44.7-.5c0 1.1-5.1 10.5-5.6 10.5-1.3 0 .5-7.3 2.2-9.1 1.6-1.8 3.4-2.5 3.4-1.4zm9.2 1.2c1.8 1.6 2.7 10 .9 8.9-.8-.5-5.1-9-5.1-10.1 0-1.1 2.4-.4 4.2 1.2zm0 13c2.5 5.2 3.1 8.1 3.9 19 1.4 19 4.9 79.2 4.9 84v4.3h-24l-.1-46c-.1-25.3-.2-46.6-.3-47.3-.7-5.2 3.7-18.6 7.7-23.6 1.5-1.8 4 1.3 7.9 9.6zm-45.8-8.5c-.7 1.3-48.5 61-54.1 67.7l-2.9 3.4-6.4-7.7c-3.6-4.2-6.5-8.3-6.5-9.1 0-1.9 56.7-50 62.5-53 5-2.7 8.5-3.2 7.4-1.3zm57.2 16.9c.5 3.1.4 4-.5 3.5-3-1.9-6.5-12.3-5.4-16.5.5-2.1.9-1.7 2.9 3.2 1.3 3 2.7 7.4 3 9.8zm56.1-10.7c3.7 1.4 17.2 6.1 29.8 10.6 12.7 4.5 23.1 8.3 23.3 8.4.1.2-1.4 4.4-3.5 9.5-2.4 6.1-4.1 9-4.9 8.7-1.4-.5-48.8-35.8-51.4-38.2-2-1.9-1.2-1.8 6.7 1zm-87.1 8.1-1.5 4v-3.6c-.1-2 .5-5.1 1.2-7l1.2-3.4.3 3c.1 1.6-.4 4.8-1.2 7zm-55.1.1c-5.7 5.2-39.8 34.3-42.4 36.1-1.5 1.1-2.3.4-6.6-6.7-2.8-4.8-4.4-8.4-3.9-8.9 2-1.9 54.7-25.1 56.9-25 .6 0-1.2 2-4 4.5zm49.6 5.5c-.7 3.9-2.1 9.5-3.3 12.3-1.8 4.2-33.5 66.3-34.4 67.5-.3.4-14-7.3-17.3-9.9l-2.5-1.8 10.5-13.8c42.1-55.7 47.2-62.3 47.7-61.8.2.1-.1 3.5-.7 7.5zm67.8 25.9c10.9 12.9 23.4 27.7 27.9 32.9 4.4 5.2 7.8 9.9 7.5 10.4-.3.5-4.6 3.6-9.6 6.8-8.2 5.3-9.2 5.7-10.2 4.1-4.2-6-37.2-61.6-39-65.7-2.1-4.7-5.6-17.8-5.5-20.7.1-1.7 5.2 4 28.9 32.2zm-61.4 68.8c-.2.2-4.7-.5-10-1.7-7.4-1.7-9.5-2.6-9.5-3.9 0-.9 1.1-8 2.5-15.7 1.4-7.7 4.3-24.4 6.5-37 3.4-18.9 4.6-24.2 7.3-29.5l3.2-6.5.3 46.9c.1 25.8 0 47.1-.3 47.4zM762 939c2.6 5.1 12.2 40.9 18.1 67.5 1.1 4.9 2.2 9.7 2.5 10.7.4 1.3-.8 1.9-6.3 3.1-3.7.8-8.9 1.8-11.5 2.2-4.2.5-4.8.4-4.8-1.2 0-1-.9-15.1-2-31.3-1-16.2-2.2-36.9-2.5-46l-.7-16.5 2.2 3c1.1 1.6 3.4 5.5 5 8.5zm-45.4 23.6c-2.6 16.2-8.7 49.9-9.2 51.7-.5 1.4-1.2 1.7-3.1 1.2-4.5-1.1-16.3-6.8-16.3-7.8 0-2 29.5-57 29.8-55.5.2.9-.4 5.5-1.2 10.4zm71.8 19.9c8.6 14.3 15.6 26.5 15.6 27.1 0 1.4-17.2 8.5-18.1 7.6-.6-.7-15.9-61.1-15.9-62.8 0-2.1 4 4.1 18.4 28.1z"/></svg>
