<svg xmlns="http://www.w3.org/2000/svg" version="1.0" viewBox="0 0 920 800"><path d="M666.5 2.5c-14.1 2.5-25.6 8.8-36.9 20.1-10.1 10.1-14.1 20.9-10.4 27.7.6 1.2 1.5 7.1 1.9 13.2.4 6 1.3 13.4 1.9 16.3 1.1 4.8 1.6 5.6 4.9 6.9 2 .8 3.9 2 4.3 2.7.6.9 0 15.5-.7 16.4-.4.5-49.7-12.8-59-16-4.9-1.6-13.5-5.4-19-8.3-6.1-3.2-12-5.5-15-5.9-2.7-.4-10.2-2.1-16.5-3.8-19-5.1-32.3-4.2-35 2.2-1.6 3.8-4.1 5.4-12.8 7.9-10.9 3.3-12.9 7-9.6 18l1.5 5.3-8.3 8.7c-7.1 7.4-8.9 8.7-12.3 9.1-2.2.3-4.5.9-5.1 1.2-.6.4-4.4-.2-8.5-1.2-36.4-9.5-64.6-4.5-84.1 15-8.5 8.5-13.8 17.7-15.9 27.9-.6 3.1-1.9 7.4-2.9 9.6-8.5 19.3-8.6 32.9-.5 74.5 2.3 12.4 4.6 24.2 4.9 26.2l.7 3.7-9.8 5.5c-13.4 7.5-12.5 7.4-15.2 1.9-1.2-2.7-5.1-9.1-8.6-14.3-23.3-35-58.3-54.5-101.4-56.7-31.6-1.6-63.4 7.9-87.6 26-33.7 25.2-53.3 66.8-51.2 108.2 1.4 25.8 9.7 48.8 25.1 69.2 19.5 25.9 45.4 42.9 76 50.1 9.8 2.2 13.3 2.6 29.6 2.6 20.7.1 29.8-1.3 44.8-6.6 18.3-6.4 32.7-15.5 47.9-30.1 17.1-16.5 27.7-32.6 34.2-52.2 5.3-15.9 7.5-39.3 5.1-53.9-1.1-7-.7-8 6.4-15.6 2.8-3 6-7.5 7-10s2.1-5.1 2.5-5.9c1-2.1 25.3-16 28.1-16.1 1.4 0 4.5-.9 6.9-2 2.4-1.1 4.5-1.9 4.7-1.7 1 1 12.1 25.3 17.7 38.7 6.5 15.7 10.9 27.2 33 87 6.9 18.4 12.8 34.3 13.2 35.2 1.4 3.4-2.2 1.9-13.4-5.6-12.5-8.4-16.5-10-22.8-9.3-13.4 1.5-13.1 11.1 1.3 33.5 3.6 5.6 4.4 7.6 3.4 8.2-3.3 2 4 15.7 13.6 25.6 3.9 4 5 4.5 7.4 4 2.3-.4 3.9.2 7.9 3.4 6.1 4.9 6 4.7 7.2 12.2 1.3 8.7 8.6 23.4 14 28.3 4 3.6 4.4 3.7 9.9 3.2 4.8-.4 5.8-.2 6.8 1.4.7 1 1.2 2.5 1.2 3.3 0 .8.8 1.9 1.7 2.4 1.4.8 1 1.3-2.4 3.1-7.8 3.9-11.7 12-9.2 18.7 2.2 5.8 5.8 7.9 13.9 7.9 7 0 7.2.2 4 4-3.5 4-11.8 17.2-15.4 24.3-5 10-10.2 25.7-12.2 37.2-2 11.8-1.5 37.6 1.1 49 12 54.1 54.7 94.9 109 104.4 12 2.1 39.4 2.1 50.6 0 49.8-9.2 91.3-44.5 105.9-89.9 4.6-14.6 6.2-25.3 6.2-41.5 0-37.5-11.9-65.9-38.6-92.5-20.6-20.6-42.5-32.5-71.1-39-9.8-2.1-10-2.3-11.2-5.6-3.1-8.8-1-35.2 5.9-75.9 3.7-22 5.1-33.2 5.5-44l.5-14.5-3.6-10.8c-4.1-12.2-4.4-14.1-1.8-13.3.9.2 3.6 1 6 1.7 3.9 1.1 4.3 1.5 3.7 3.7-2 8-2.1 7.7 3.5 9.5 2.9.9 7.8 1.7 10.9 1.7 8.4 0 16.5 3.2 45.1 17.7 36.5 18.5 56.2 24.4 81.6 24.4 35.7 0 62.2-15.7 75.5-44.7 1.8-3.8 3.3-7 3.5-7.2.1-.2 1.1.2 2.2.9 3.1 1.9 5 .4 6.6-5.2 4.1-13.6 4.3-30 1-68.9-.8-9.6-1.4-22.9-1.2-29.5l.2-12-5.6-12c-3-6.6-6.8-15.7-8.3-20.3-1.9-5.8-4.8-11.5-10.1-19.2-4-6.1-8-12.3-8.8-13.8-1.4-2.8-2.7-9.8-4.6-25.7-1.2-9.5-3.3-15.4-7.4-20.8-1.4-1.8-6-9.6-10.2-17.3-9.1-16.7-14.4-24.2-21.6-31-10.2-9.7-21.3-13.6-37.2-13.3-9.4.3-9.9.2-11.6-2.2-3.9-5.3-5.2-11.9-6-30.9-.6-15.2-1.1-19.5-2.9-24.1-6-15.6-21.4-28.3-37.8-30.9-7.1-1.2-9-1.2-17.8.5zM547.4 108.8c10.4 4.9 35.6 22.3 49.6 34.3 7.3 6.2 13.3 9.3 25.2 13 9.7 3 12.4 4.9 7.1 4.9-1.6 0-8.6 2.1-15.8 4.6-16.7 5.9-21.4 6.1-42 1.5-32.4-7.1-50.4-12.5-71.8-21.4-6.9-2.8-10.2-4.7-10.9-6.3-.8-1.8-3.1-2.8-11-5-11.3-3.1-16.1-6.1-13.9-8.8.7-.9 2.7-1.6 4.4-1.6 2.4 0 4.5-1.4 9.4-6.1 6-5.8 6.5-6 8.2-4.5 5.1 4.6 12.5 4 28.4-2.5a427 427 0 0 1 12.7-5c4.6-1.6 13.6-.3 20.4 2.9zm99.1 1.2c.8 1.3-1.5 1.3-3.5 0-1.2-.8-1.1-1 .7-1 1.2 0 2.5.4 2.8 1zm-228.6 13.6c7.9 1.9 8.2 2.5 5.5 9.3l-1.5 3.9-11.8-.5c-29.5-1.4-54.3 7.8-71.8 26.7-3.6 3.8-4.2 4.1-3.7 2 .4-1.4 2.2-5.9 4.2-10 7.8-16.7 25.6-28.9 48-33 6.7-1.3 22.8-.4 31.1 1.6zm1.6 17.2c6.6 1.6 7 1.9 7.3 4.7.6 6.9 1.4 9.6 3.8 12.4 1.7 2 2.3 3.7 1.9 5.3-.3 1.3-1.6 13.9-3 28.1-4 41.1-3.7 39.7-10.1 39.7-2.2 0-3.6.7-4.7 2.4-.9 1.2-9.3 6.7-18.7 12l-17.1 9.7-5-3.6c-18.8-13.9-37-47-39.4-72.1l-.7-6.9 4-5.2c9.6-12.1 28.3-22.7 47.2-26.7 9-2 25.9-1.8 34.5.2zm62.7 20.1c1.3.5 10 6.8 19.3 14.1 27 21 41.8 30.1 57.9 35.5 20.4 6.8 33.8 7.2 61.1 1.6 10.5-2.1 21.1-4.2 23.8-4.5l4.7-.7v5c0 3 1.2 8.1 3 13.1 2 5.5 3 10 3 13.8 0 7 1.6 13.1 6.5 24.7 4.6 10.9 7.5 21.4 7.5 27v4.2l-14.8.6c-17.2.6-24-.3-41.1-5.7-25.5-8.1-40.6-7-51.4 3.8-10.3 10.3-30.6 50.7-50.8 101.5l-9.7 24.3-6.8-12.8c-12.9-24.3-61.1-123.9-66.3-136.9-2.9-7.2-5.6-14-6.1-15.2-.8-2-.3-2.5 5.5-5.7 3.5-2 7.5-3.6 9-3.6 2 0 2.9-.8 4-3.4 1.5-3.4 5.3-5.6 10-5.6 1.3 0 2.8-.7 3.5-1.5 1.7-2.1-1.1-10-5.2-14.2l-3.1-3.2 2.2-23.3c1.2-12.8 2.4-24.7 2.6-26.4l.5-3.1 8.8.4c7.9.4 9.1.2 13.2-2.1 5-2.8 5.9-3 9.2-1.7zm-150.2 21c0 6.2 5.3 23 10.5 33.6 6.6 13.4 12.5 21.3 24.4 32.8l9 8.7-4.2 2.2c-2.4 1.2-5.6 2-7.5 1.9-3.7-.3-6.2 1.3-6.2 4 0 1.2-3.1 3.4-10.1 7.3-5.6 3.1-10.6 5.6-11 5.6-.5 0-.9-1-.9-2.1 0-1.2-2.3-13.5-5.2-27.3-4.9-23.7-5.2-26-5.2-40.6-.1-13.5.2-16.4 2.2-22.8 2.3-7.2 4.2-8.7 4.2-3.3zm-123.9 69.6c31.1 5.4 57.4 24.6 71.2 52.1l2.6 5.1-11.7 4.6c-11.6 4.4-39.2 13.7-41 13.7-.5 0-2.6-2.5-4.6-5.5-10.9-16.4-33.6-22-51.9-12.8-14.8 7.4-23.8 24.9-20.7 40.6 5.7 29.4 39.7 42.3 64.2 24.2 8.3-6.1 14.8-18.2 14.8-27.7 0-4.8-.2-4.7 20-9.2 23-5.1 24-5.2 24.7-2.7.6 2.2 2.3 2.9 8.8 3.3l4 .3.3 7.7c.2 4.7-.5 11.2-1.6 17-7.4 36-34 64.1-70.3 74-7.2 2-10.7 2.3-25.4 2.3-13.4 0-18.4-.4-23.5-1.9-18.9-5.3-32.2-12.8-45.3-25.5-31.2-30.3-37.4-77-15.1-114.3 5.7-9.4 19-23.6 27.9-29.5 21.7-14.5 47.8-20.2 72.6-15.8zM427.4 308c12.5 24.7 22.5 45 22.3 45-.3 0-3.6-5.7-7.3-12.8-7.8-14.8-17.1-30.6-26.2-44.7-8.8-13.5-16.9-30.5-15-31.6.7-.5 1.8-.9 2.4-.9.6 0 11.3 20.2 23.8 45zm1.5 13.5c9 15.4 22 40.7 32.9 64 20.9 44.8 26.2 56.5 26.2 57 0 1.3-9.6 6.5-11.9 6.5-6.5 0-6.4 0-16-23.8-5-12.5-14.5-37.9-21.1-56.5-6.6-18.6-15.1-42-18.9-52-3.8-10-7.2-19.1-7.6-20.2-1.2-3.4 7.8 10.4 16.4 25zm-94.3-19.9c-.3.9-.6 2-.6 2.5s-2.9 4.1-6.4 7.8l-6.4 6.8-1.2-4.5c-.6-2.4-.8-4.7-.5-5 1.2-1.3 14-9.1 14.9-9.2.4 0 .5.7.2 1.6zm-130.3 13.2c5.1 2.3 11.3 7.5 13.9 11.7l1.8 3-8.7 2-8.8 2.1-3.4-2.3c-9.9-6.7-23.1.1-23.1 12 0 6 3.2 10.6 9.2 13.1 4.2 1.7 5.2 1.8 9 .7 2.6-.8 5.8-2.9 8.1-5.3 3.1-3.3 5.2-4.3 12.4-6.3l8.6-2.4-.7 4.5c-1.3 9.7-8.8 19.3-18.5 23.7-6.6 3.1-18.7 3-25.6-.1-5.9-2.7-11.7-8-15.2-14.1-3.5-5.7-4.3-16.6-1.9-23.9 2.9-8.6 11.4-16.7 20.9-19.8 5.5-1.8 16.3-1.1 22 1.4zM451.9 357c1.1 2.4 1.1 2.4-.3.6-.9-1.1-1.6-2.4-1.6-3 0-1.2.5-.7 1.9 2.4zm39.4 81.3c-.8 1.2-2-1.2-15.5-30.2-6-12.8-12.9-27.3-15.3-32.2-2.5-4.9-4.5-9.2-4.4-9.6 0-.5 8.1 15.4 17.9 35.1 9.9 19.8 17.6 36.4 17.3 36.9zm65.7-6.8c.7 3.8 2.3 13.3 3.7 21 3.3 19.2 4.3 42.7 1.9 48.9-1.6 4.2-11.3 14.6-13.7 14.6-.5 0-6.6-11.3-13.5-25.2-10.5-21-12.5-25.7-11.8-27.7 1.2-3.2 30.7-40.1 31.5-39.2.4.3 1.2 3.7 1.9 7.6zm-37.1 60.2c7.1 14.4 6.2 14.4-2.7 0-5.3-8.5-6.7-12.7-4.3-12.7.3 0 3.5 5.7 7 12.7zm-7.5-3c1.3 2.7 4 7.2 6 10.2 2 3 3.5 5.5 3.4 5.6-.2.1-4.5 1.1-9.6 2.2l-9.4 2-1.9-3.1c-2.3-3.8-2.3-4.8-.3-8.9 1.8-3.4 8.3-12.7 9-12.7.2 0 1.5 2.1 2.8 4.7zm18 31.3c1.4 2.2 2.6 4.4 2.6 4.9 0 1.4-13.4 11.1-15.4 11.1-1 0-7.8-14.2-7.1-14.9.8-.8 13.5-4.9 15.6-5 .9-.1 2.8 1.7 4.3 3.9zm-43.3 18.2c2.2 1.8 7.2 8.9 6.7 9.4-.3.2-1.9.7-3.6 1-2.8.6-3.2.4-3.2-1.5 0-1.1-1.3-3.3-3-4.8-1.6-1.4-3-3.2-3-4 0-1.7 4.1-1.7 6.1-.1zm156.8 41.4c25.4 13.5 43.8 37 50.8 65 2.4 9.5 2.4 34.2 0 43.6-9.3 37.1-38.1 65.8-75.2 74.9-10.6 2.6-28.8 3.5-39.6 2-27.3-4-51.8-18.6-68.1-40.5-20.7-27.8-25-62.7-11.8-95.6 3.9-9.8 17.5-30 20.1-30 .6 0 1.6 1.5 2.4 3.4.8 1.8 2.6 4.1 4 5 1.4.9 2.5 2.2 2.5 2.9 0 .8 1.6 2.7 3.5 4.4 1.9 1.7 3.5 3.8 3.5 4.6 0 .9 1.3 2.5 2.9 3.7 1.6 1.1 3.1 3 3.3 4.3.2 1.2 1.5 2.8 3 3.5 1.7.8 3.1 2.5 3.6 4.4.4 1.7 1.7 3.6 2.7 4.2 4.5 2.5 4.8 4.5 2.7 17.4-4.9 29.4 24.4 53.4 54 44.2 12.2-3.7 23.6-14.9 27-26.3 2.1-6.9 1.6-20.3-1.1-27-4.7-11.9-17.8-22.3-31.3-24.9l-6.5-1.2-7.1-16.6c-3.9-9.1-6.9-16.7-6.6-16.9.2-.2 3.7.2 7.9.9 8.3 1.4 22.9.9 26.3-.9 2.5-1.3 4.2-6.7 4.2-13.3v-4.7l7.1 2.4c3.9 1.4 11 4.5 15.8 7.1zM544.6 614c9.3 12.2 17.1 22.6 17.3 23.2.8 2.2-2.5 0-3.7-2.5-.7-1.5-2.6-3.4-4.1-4.2-1.8-.9-3-2.5-3.4-4.3a5.9 5.9 0 0 0-3.2-4c-1.4-.7-3-2.4-3.6-4-.5-1.5-2.3-3.5-3.9-4.4-1.7-.9-3-2.4-3-3.2 0-.8-1.5-2.7-3.4-4.1-1.9-1.5-3.6-3.6-3.8-4.8-.2-1.2-1.5-2.8-3-3.5-1.6-.7-2.8-1.9-2.8-2.6 0-1.3 1.9-3.6 3-3.6.4 0 8.3 9.9 17.6 22zm24.5-6c5.7 7.7 10.5 14.6 10.7 15.3.3 1.6-4.8 4.2-5.8 3-1.6-1.7-21.2-29.7-21.7-31-.4-.9.5-1.3 2.9-1.3 3.3 0 4 .7 13.9 14zm40.4 25.9c7.4 3.5 12.6 8.8 16.1 16.4 2.3 5.1 2.6 6.9 2.2 13.5-.4 9.1-2.9 15-9 21.2-15.8 16.4-44.8 11.2-54-9.8-2.2-4.9-3.4-13.7-2.4-17.6l.6-2.5 3.3 1.8c1.8 1 3.3 2.7 3.5 3.9.2 1.2 1.6 2.9 3.2 3.7 1.6.8 3.2 2.5 3.6 3.7.8 2.6 6.4 8 10.7 10.4 5.6 3 15.7 1.6 20.5-2.9 7.6-7.1 7.5-17.6-.2-25.3-7.5-7.6-8-8.3-8.6-14-.6-5.3-.6-5.4 1.9-5.4 1.5 0 5.3 1.3 8.6 2.9zm-24.2 3.3c.3 2.4.4 4.4.2 4.6-.1.2-1.5-1.3-3-3.2-2.8-3.7-2.6-5.6.4-5.6 1.4 0 2 1 2.4 4.2zm-15.5 9.6c.2.7-.2 1-1.2.6-.9-.3-1.6-1.1-1.6-1.6 0-1.3 2.3-.5 2.8 1zm7.2 9.5c0 .5-1.3-.1-2.8-1.1-1.5-1.1-2.8-2.9-2.8-4.1 0-1.7.4-1.6 2.8 1.2 1.5 1.8 2.7 3.6 2.8 4z"/></svg>
