<svg xmlns="http://www.w3.org/2000/svg" viewBox="0 0 93 123"><path fill="#000" fill-rule="evenodd" d="M12.36 30.58a11 11 0 0 1 11-11h46.51a11 11 0 0 1 11 11v81.05a11 11 0 0 1-11 11H23.36a11 11 0 0 1-11-11V30.58Zm11-9a9 9 0 0 0-9 9v81.05a9 9 0 0 0 9 9h46.51a9 9 0 0 0 9-9V30.58a9 9 0 0 0-9-9H23.36Z" clip-rule="evenodd"/><path fill="#000" fill-rule="evenodd" d="M12.36 30.58a11 11 0 0 1 11-11h46.51a11 11 0 0 1 11 11v11.38a14 14 0 0 1-14 14H26.36a14 14 0 0 1-14-14V30.58Zm11-9a9 9 0 0 0-9 9v11.38a12 12 0 0 0 12 12h40.51a12 12 0 0 0 12-12V30.58a9 9 0 0 0-9-9H23.36ZM12.36 111.65a11 11 0 0 0 11 11h46.51a11 11 0 0 0 11-11v-8.17a14 14 0 0 0-14-14h-4.95a1 1 0 1 0 0 2h4.95a12 12 0 0 1 12 12v8.17a9 9 0 0 1-9 9H23.36a9 9 0 0 1-9-9v-8.17a12 12 0 0 1 12-12h28.38a1 1 0 0 0 0-2H26.36a14 14 0 0 0-14 14v8.17Z" clip-rule="evenodd"/><path fill="#BF5002" fill-rule="evenodd" d="M4.85 8.06a8 8 0 0 1 8-8h67.53a8 8 0 0 1 8 8v5.52a8 8 0 0 1-8 8H12.85a8 8 0 0 1-8-8V8.06Zm8-6a6 6 0 0 0-6 6v5.52a6 6 0 0 0 6 6h67.53a6 6 0 0 0 6-6V8.06a6 6 0 0 0-6-6H12.85Z" clip-rule="evenodd"/><path fill="#BF5002" fill-rule="evenodd" d="M23.85 16.6a4.98 4.98 0 0 1 4.98-4.98h4.25a4.98 4.98 0 0 1 0 9.96h-4.25a4.98 4.98 0 0 1-4.98-4.98Zm4.98-2.98a2.98 2.98 0 0 0 0 5.96h4.25a2.98 2.98 0 0 0 0-5.96h-4.25Z" clip-rule="evenodd"/><path fill="#000" fill-rule="evenodd" d="M21.33 59.06a5.1 5.1 0 0 1 5.1-5.1h8.18a5.1 5.1 0 1 1 0 10.2h-8.18a5.1 5.1 0 0 1-5.1-5.1Zm5.1-3.1a3.1 3.1 0 1 0 0 6.2h8.18a3.1 3.1 0 1 0 0-6.2h-8.18ZM53.03 59.06a5.1 5.1 0 0 1 5.1-5.1h8.18a5.1 5.1 0 0 1 0 10.2h-8.18a5.1 5.1 0 0 1-5.1-5.1Zm5.1-3.1a3.1 3.1 0 0 0 0 6.2h8.18a3.1 3.1 0 1 0 0-6.2h-8.18Z" clip-rule="evenodd"/><path fill="#000" fill-rule="evenodd" d="M27.63 40v14.4h-2V40a5.1 5.1 0 0 1 10.21 0v14.4h-2V40a3.1 3.1 0 1 0-6.2 0ZM27.63 77.89v-15.2h-2v15.52c0 .2.07.41.2.58l4.24 5.92a1 1 0 0 0 1.64-.03l3.96-5.91a1 1 0 0 0 .17-.56V62.7h-2v15.2l-2.99 4.47-3.22-4.48ZM59.12 77.89v-15.2h-2v15.52c0 .2.06.41.18.58l4.25 5.92a1 1 0 0 0 1.64-.03l3.97-5.91a1 1 0 0 0 .17-.56V62.7h-2v15.2l-3 4.47-3.21-4.48ZM59.12 40v14.4h-2V40a5.1 5.1 0 1 1 10.2 0v14.4h-2V40a3.1 3.1 0 0 0-6.2 0Z" clip-rule="evenodd"/><path fill="#BF5002" fill-rule="evenodd" d="M12.38 30.6a10 10 0 0 1 10-10H68.9a10 10 0 0 1 10 10v81.05a10 10 0 0 1-10 10H22.4a10 10 0 0 1-10-10V30.6Zm41.68 28.46a4.1 4.1 0 0 0 3.11 3.99c.54.13 1 .56 1 1.12l-.02 13.72a1 1 0 0 0 .18.58l3.22 4.49a1 1 0 0 0 1.64-.03l3-4.47a1 1 0 0 0 .17-.55l-.02-13.74c0-.56.45-1 .99-1.12a4.1 4.1 0 0 0 0-7.97c-.54-.14-1-.57-.99-1.12L66.36 40a4.1 4.1 0 1 0-8.21 0l.01 13.95c0 .55-.45.98-.99 1.12a4.1 4.1 0 0 0-3.11 3.98Zm-28.4 3.99a4.1 4.1 0 0 1 0-7.97c.54-.14 1-.57.99-1.12L26.63 40a4.1 4.1 0 1 1 8.21 0l-.01 13.95c0 .55.45.98.99 1.12a4.1 4.1 0 0 1 0 7.97c-.54.13-1 .56-1 1.12l.02 13.74a1 1 0 0 1-.17.55l-2.99 4.47a1 1 0 0 1-1.64.03l-3.22-4.49a1 1 0 0 1-.19-.58l.02-13.72c0-.56-.45-1-.99-1.12Z" clip-rule="evenodd" opacity=".1"/><path fill="#BF5002" fill-rule="evenodd" d="M55.14 16.6a4.98 4.98 0 0 1 4.99-4.99h4.25a4.98 4.98 0 1 1 0 9.97h-4.25a4.98 4.98 0 0 1-4.99-4.98Zm4.99-2.99a2.98 2.98 0 1 0 0 5.97h4.25a2.98 2.98 0 0 0 0-5.97h-4.25Z" clip-rule="evenodd"/><path fill="#000" fill-rule="evenodd" d="M8.7 110.6a8 8 0 0 1-8-8V78.1a8 8 0 0 1 8-8h5.66v40.5H8.7Zm-6-8a6 6 0 0 0 6 6h3.66V72.1H8.7a6 6 0 0 0-6 6v24.5ZM84.53 110.6a8 8 0 0 0 8-8V78.1a8 8 0 0 0-8-8h-5.66v40.5h5.66Zm6-8a6 6 0 0 1-6 6h-3.66V72.1h3.66a6 6 0 0 1 6 6v24.5Z" clip-rule="evenodd"/><path fill="#000" fill-rule="evenodd" d="M80.87 75.49V63.24h-2v12.25a8 8 0 0 0 8 8h4.66v-2h-4.66a6 6 0 0 1-6-6ZM12.36 75.41V63.17h2V75.4a8 8 0 0 1-8 8H1.7v-2h4.66a6 6 0 0 0 6-6Z" clip-rule="evenodd"/><path fill="#BF5002" fill-rule="evenodd" d="M1.47 102.6a7 7 0 0 0 7 7h4.66V77.16a7.08 7.08 0 0 1-6.85 5.28H1.7V78.2c0-3.9 3.16-7.07 7.07-7.07h4.36v-.02H8.47a7 7 0 0 0-7 7v24.49ZM91.53 102.6a7 7 0 0 1-7 7h-4.66V77.16a7.08 7.08 0 0 0 6.85 5.28h4.58V78.2c0-3.9-3.16-7.07-7.07-7.07h-4.36v-.02h4.66a7 7 0 0 1 7 7v24.49Z" clip-rule="evenodd" opacity=".1"/><path fill="#BF5002" fill-rule="evenodd" d="M20.46 102a1 1 0 0 1 1-1h50.3a1 1 0 0 1 0 2h-50.3a1 1 0 0 1-1-1ZM27.04 13.59a1 1 0 0 1-1-1V1.35a1 1 0 1 1 2 0v11.24a1 1 0 0 1-1 1ZM58.28 13.59a1 1 0 0 1-1-1V1.35a1 1 0 0 1 2 0v11.24a1 1 0 0 1-1 1ZM34.87 13.59a1 1 0 0 1-1-1V1.35a1 1 0 1 1 2 0v11.24a1 1 0 0 1-1 1ZM66.11 13.59a1 1 0 0 1-1-1V1.35a1 1 0 1 1 2 0v11.24a1 1 0 0 1-1 1Z" clip-rule="evenodd"/><path fill="#BF5002" fill-rule="evenodd" d="M25.17 107.6a1 1 0 0 1-1-1v-4.44a1 1 0 1 1 2 0v4.43a1 1 0 0 1-1 1Z" clip-rule="evenodd"/></svg>
