<svg xmlns="http://www.w3.org/2000/svg" viewBox="0 0 64 64"><defs><style>.cls-1{fill:#ffef52}.cls-3{fill:#1b212d}</style></defs><g id="Sun"><path id="path6483-3-9" d="M45.55 32A13.55 13.55 0 1 1 32 18.45 13.54 13.54 0 0 1 45.55 32Z" class="cls-1"/><path id="rect6487-6-2" d="M32 4a1.81 1.81 0 0 1 1.81 1.81v4.46a1.81 1.81 0 0 1-3.62 0V5.81A1.81 1.81 0 0 1 32 4Z" class="cls-1"/><path id="rect6489-7-6" d="M32 51.92a1.81 1.81 0 0 1 1.81 1.81v4.46a1.81 1.81 0 0 1-3.62 0v-4.46A1.81 1.81 0 0 1 32 51.92Z" class="cls-1"/><path id="rect6497-5-6" d="M60 32a1.81 1.81 0 0 1-1.81 1.81h-4.46a1.81 1.81 0 1 1 0-3.62h4.46A1.81 1.81 0 0 1 60 32Z" class="cls-1"/><path id="rect6499-3-4" d="M12.08 32a1.81 1.81 0 0 1-1.81 1.81H5.81a1.81 1.81 0 1 1 0-3.62h4.46A1.81 1.81 0 0 1 12.08 32Z" class="cls-1"/><path id="path6600-9" d="M51.8 12.2a1.8 1.8 0 0 1 0 2.56l-3.16 3.15a1.8 1.8 0 0 1-2.55-2.55l3.15-3.16a1.8 1.8 0 0 1 2.56 0Z" class="cls-1"/><path id="path6602-5" d="M17.91 46.09a1.79 1.79 0 0 1 0 2.55l-3.15 3.16a1.81 1.81 0 0 1-2.56-2.56l3.16-3.15a1.79 1.79 0 0 1 2.55 0Z" class="cls-1"/><path id="path6604-0" d="M51.8 51.8a1.8 1.8 0 0 1-2.56 0l-3.15-3.16a1.8 1.8 0 0 1 2.55-2.55l3.16 3.15a1.8 1.8 0 0 1 0 2.56Z" class="cls-1"/><path id="path6606-4" d="M17.91 17.91a1.79 1.79 0 0 1-2.55 0l-3.16-3.15a1.81 1.81 0 0 1 2.56-2.56l3.15 3.16a1.79 1.79 0 0 1 0 2.55Z" class="cls-1"/><path id="path8874" d="M32 18.45a13.16 13.16 0 0 0-2 .16 13.54 13.54 0 0 1 0 26.78 13.16 13.16 0 0 0 2 .16 13.55 13.55 0 0 0 0-27.1Z" style="fill:#e6d74a"/><path d="M32 46.55A14.55 14.55 0 1 0 17.45 32 14.56 14.56 0 0 0 32 46.55Zm0-27.1A12.55 12.55 0 1 1 19.45 32 12.56 12.56 0 0 1 32 19.45ZM32 13.08a2.81 2.81 0 0 0 2.81-2.81V5.81a2.81 2.81 0 0 0-5.62 0v4.46A2.81 2.81 0 0 0 32 13.08Zm-.81-7.27a.81.81 0 0 1 1.62 0v4.46a.81.81 0 0 1-1.62 0ZM29.19 53.73v4.46a2.81 2.81 0 0 0 5.62 0v-4.46a2.81 2.81 0 0 0-5.62 0Zm3.62 0v4.46a.81.81 0 0 1-1.62 0v-4.46a.81.81 0 1 1 1.62 0ZM58.19 29.19h-4.46a2.81 2.81 0 1 0 0 5.62h4.46a2.81 2.81 0 1 0 0-5.62Zm0 3.62h-4.46a.81.81 0 0 1 0-1.62h4.46a.81.81 0 1 1 0 1.62ZM5.81 34.81h4.46a2.81 2.81 0 1 0 0-5.62H5.81a2.81 2.81 0 0 0 0 5.62Zm0-3.62h4.46a.81.81 0 1 1 0 1.62H5.81a.81.81 0 1 1 0-1.62ZM49.35 18.62l3.16-3.16a2.78 2.78 0 0 0 .82-2 2.82 2.82 0 0 0-.82-2 2.88 2.88 0 0 0-4 0l-3.16 3.16a2.81 2.81 0 1 0 4 4Zm-2.56-2.56L50 12.91a.78.78 0 0 1 .57-.24.76.76 0 0 1 .57.24.76.76 0 0 1 .24.57.78.78 0 0 1-.24.57l-3.15 3.16a.81.81 0 1 1-1.15-1.15ZM14.65 45.38l-3.16 3.16a2.78 2.78 0 0 0-.82 2 2.8 2.8 0 0 0 2.81 2.81 2.78 2.78 0 0 0 2-.82l3.16-3.16a2.79 2.79 0 0 0 0-4 2.87 2.87 0 0 0-3.99.01Zm2.56 2.56-3.16 3.15a.81.81 0 0 1-1.14 0 .76.76 0 0 1-.24-.57.78.78 0 0 1 .24-.57l3.15-3.16a.81.81 0 0 1 1.15 0 .81.81 0 0 1 0 1.15ZM45.38 45.38a2.79 2.79 0 0 0 0 4l3.16 3.16a2.78 2.78 0 0 0 2 .82 2.82 2.82 0 0 0 2-.82 2.82 2.82 0 0 0 .82-2 2.78 2.78 0 0 0-.82-2l-3.16-3.16a2.87 2.87 0 0 0-4 0Zm2.56 1.41L51.09 50a.78.78 0 0 1 .24.57.76.76 0 0 1-.24.57.81.81 0 0 1-1.14 0l-3.16-3.15a.81.81 0 1 1 1.15-1.15ZM14.65 18.62a2.79 2.79 0 0 0 4 0 2.79 2.79 0 0 0 0-4l-3.16-3.16a2.88 2.88 0 0 0-4 0 2.82 2.82 0 0 0-.82 2 2.78 2.78 0 0 0 .82 2Zm-1.74-5.71a.76.76 0 0 1 .57-.24.78.78 0 0 1 .57.24l3.16 3.15a.81.81 0 0 1 0 1.15.83.83 0 0 1-1.15 0l-3.15-3.16a.78.78 0 0 1-.24-.57.76.76 0 0 1 .24-.57Z" class="cls-3"/></g></svg>