<svg xmlns="http://www.w3.org/2000/svg" viewBox="0 0 22.58 22.58"><g style="display:inline"><path d="M1.19 288.43a.26.26 0 0 0-.27.27l.22 4.43c.08 1.65 1.12 2.85 2.78 2.85h.6c1.65 0 2.53-1.2 2.66-2.85l.34-4.43a.26.26 0 0 0-.27-.27Z" style="color:#000;font-style:normal;font-variant:normal;font-weight:400;font-stretch:normal;font-size:medium;line-height:normal;font-family:sans-serif;font-variant-ligatures:normal;font-variant-position:normal;font-variant-caps:normal;font-variant-numeric:normal;font-variant-alternates:normal;font-variant-east-asian:normal;font-feature-settings:normal;font-variation-settings:normal;text-indent:0;text-align:start;text-decoration:none;text-decoration-line:none;text-decoration-style:solid;text-decoration-color:#000;letter-spacing:normal;word-spacing:normal;text-transform:none;writing-mode:lr-tb;direction:ltr;text-orientation:mixed;dominant-baseline:auto;baseline-shift:baseline;text-anchor:start;white-space:normal;shape-padding:0;shape-margin:0;inline-size:0;clip-rule:nonzero;display:inline;overflow:visible;visibility:visible;isolation:auto;mix-blend-mode:normal;color-interpolation:sRGB;color-interpolation-filters:linearRGB;solid-color:#000;solid-opacity:1;vector-effect:none;fill:#f5f6e8;fill-opacity:1;fill-rule:nonzero;stroke:none;stroke-width:.529167;stroke-linecap:round;stroke-linejoin:round;stroke-miterlimit:4;stroke-dasharray:none;stroke-dashoffset:0;stroke-opacity:1;color-rendering:auto;image-rendering:auto;shape-rendering:auto;text-rendering:auto;enable-background:accumulate;stop-color:#000" transform="matrix(1.31452 0 0 1.31452 .16 -368)"/><path d="M1.19 288.43a.26.26 0 0 0-.27.27v1.85h4.87c.66 0 1.2.54 1.2 1.2v3.08c.33-.48.38-1.07.38-1.7v-4.43a.26.26 0 0 0-.26-.27z" style="color:#000;font-style:normal;font-variant:normal;font-weight:400;font-stretch:normal;font-size:medium;line-height:normal;font-family:sans-serif;font-variant-ligatures:normal;font-variant-position:normal;font-variant-caps:normal;font-variant-numeric:normal;font-variant-alternates:normal;font-variant-east-asian:normal;font-feature-settings:normal;font-variation-settings:normal;text-indent:0;text-align:start;text-decoration:none;text-decoration-line:none;text-decoration-style:solid;text-decoration-color:#000;letter-spacing:normal;word-spacing:normal;text-transform:none;writing-mode:lr-tb;direction:ltr;text-orientation:mixed;dominant-baseline:auto;baseline-shift:baseline;text-anchor:start;white-space:normal;shape-padding:0;shape-margin:0;inline-size:0;clip-rule:nonzero;display:inline;overflow:visible;visibility:visible;isolation:auto;mix-blend-mode:normal;color-interpolation:sRGB;color-interpolation-filters:linearRGB;solid-color:#000;solid-opacity:1;vector-effect:none;fill:#e5e5d8;fill-opacity:1;fill-rule:nonzero;stroke:none;stroke-width:.529167;stroke-linecap:round;stroke-linejoin:round;stroke-miterlimit:4;stroke-dasharray:none;stroke-dashoffset:0;stroke-opacity:1;color-rendering:auto;image-rendering:auto;shape-rendering:auto;text-rendering:auto;enable-background:accumulate;stop-color:#000" transform="matrix(1.31452 0 0 1.31452 .16 -368)"/><path d="M4.22 280.94c-1.99 0-3.45 1.61-3.46 3.6l-.04 5.77c.13.37.3.3.43 0 0-.1.04-.2.17-.32.14-.13.35-.26.64-.37a6.46 6.46 0 0 1 2.26-.36c.9 0 1.7.14 2.26.36.28.11.5.24.63.37.14.12.18.22.18.31 0 .36.4.36.4 0v-5.76c0-1.99-1.49-3.6-3.47-3.6z" style="color:#000;font-style:normal;font-variant:normal;font-weight:400;font-stretch:normal;font-size:medium;line-height:normal;font-family:sans-serif;font-variant-ligatures:normal;font-variant-position:normal;font-variant-caps:normal;font-variant-numeric:normal;font-variant-alternates:normal;font-variant-east-asian:normal;font-feature-settings:normal;font-variation-settings:normal;text-indent:0;text-align:start;text-decoration:none;text-decoration-line:none;text-decoration-style:solid;text-decoration-color:#000;letter-spacing:normal;word-spacing:normal;text-transform:none;writing-mode:lr-tb;direction:ltr;text-orientation:mixed;dominant-baseline:auto;baseline-shift:baseline;text-anchor:start;white-space:normal;shape-padding:0;shape-margin:0;inline-size:0;clip-rule:nonzero;display:inline;overflow:visible;visibility:visible;isolation:auto;mix-blend-mode:normal;color-interpolation:sRGB;color-interpolation-filters:linearRGB;solid-color:#000;solid-opacity:1;vector-effect:none;fill:#7ecdca;fill-opacity:1;fill-rule:nonzero;stroke:none;stroke-width:.529166;stroke-linecap:round;stroke-linejoin:round;stroke-miterlimit:4;stroke-dasharray:none;stroke-dashoffset:0;stroke-opacity:1;color-rendering:auto;image-rendering:auto;shape-rendering:auto;text-rendering:auto;enable-background:accumulate;stop-color:#000" transform="matrix(1.31452 0 0 1.31452 .16 -368)"/><path d="M2.4 288.94a.26.26 0 0 0-.27.26v3.93c0 1.06.86 1.9 1.9 1.9h.37a1.9 1.9 0 0 0 1.9-1.9v-3.93a.26.26 0 0 0-.26-.26z" style="color:#000;font-style:normal;font-variant:normal;font-weight:400;font-stretch:normal;font-size:medium;line-height:normal;font-family:sans-serif;font-variant-ligatures:normal;font-variant-position:normal;font-variant-caps:normal;font-variant-numeric:normal;font-variant-alternates:normal;font-variant-east-asian:normal;font-feature-settings:normal;font-variation-settings:normal;text-indent:0;text-align:start;text-decoration:none;text-decoration-line:none;text-decoration-style:solid;text-decoration-color:#000;letter-spacing:normal;word-spacing:normal;text-transform:none;writing-mode:lr-tb;direction:ltr;text-orientation:mixed;dominant-baseline:auto;baseline-shift:baseline;text-anchor:start;white-space:normal;shape-padding:0;shape-margin:0;inline-size:0;clip-rule:nonzero;display:inline;overflow:visible;visibility:visible;isolation:auto;mix-blend-mode:normal;color-interpolation:sRGB;color-interpolation-filters:linearRGB;solid-color:#000;solid-opacity:1;vector-effect:none;fill:#87d1ee;fill-opacity:1;fill-rule:nonzero;stroke:none;stroke-width:.529167;stroke-linecap:round;stroke-linejoin:round;stroke-miterlimit:4;stroke-dasharray:none;stroke-dashoffset:0;stroke-opacity:1;color-rendering:auto;image-rendering:auto;shape-rendering:auto;text-rendering:auto;enable-background:accumulate;stop-color:#000" transform="matrix(1.31452 0 0 1.31452 .16 -368)"/><path d="M6.04 288.94H2.4a.26.26 0 0 0-.27.26v1.35h3.1c.3 0 .55.25.55.55v2.03a1.9 1.9 0 0 1-1.83 1.9h.45a1.9 1.9 0 0 0 1.9-1.9V289.2c0-.17-.15-.2-.26-.26z" style="color:#000;font-style:normal;font-variant:normal;font-weight:400;font-stretch:normal;font-size:medium;line-height:normal;font-family:sans-serif;font-variant-ligatures:normal;font-variant-position:normal;font-variant-caps:normal;font-variant-numeric:normal;font-variant-alternates:normal;font-variant-east-asian:normal;font-feature-settings:normal;font-variation-settings:normal;text-indent:0;text-align:start;text-decoration:none;text-decoration-line:none;text-decoration-style:solid;text-decoration-color:#000;letter-spacing:normal;word-spacing:normal;text-transform:none;writing-mode:lr-tb;direction:ltr;text-orientation:mixed;dominant-baseline:auto;baseline-shift:baseline;text-anchor:start;white-space:normal;shape-padding:0;shape-margin:0;inline-size:0;clip-rule:nonzero;display:inline;overflow:visible;visibility:visible;isolation:auto;mix-blend-mode:normal;color-interpolation:sRGB;color-interpolation-filters:linearRGB;solid-color:#000;solid-opacity:1;vector-effect:none;fill:#79bbd4;fill-opacity:1;fill-rule:nonzero;stroke:none;stroke-width:.529167;stroke-linecap:round;stroke-linejoin:round;stroke-miterlimit:4;stroke-dasharray:none;stroke-dashoffset:0;stroke-opacity:1;color-rendering:auto;image-rendering:auto;shape-rendering:auto;text-rendering:auto;enable-background:accumulate;stop-color:#000" transform="matrix(1.31452 0 0 1.31452 .16 -368)"/><path d="M7.3 285.07v.59c.18.1.36.2.52.35v-.67c-.17-.11-.35-.2-.53-.27zm0 1.26v.6c.18.11.36.24.52.39v-.69a3.86 3.86 0 0 0-.53-.3z" style="color:#000;font-style:normal;font-variant:normal;font-weight:400;font-stretch:normal;font-size:medium;line-height:normal;font-family:sans-serif;font-variant-ligatures:normal;font-variant-position:normal;font-variant-caps:normal;font-variant-numeric:normal;font-variant-alternates:normal;font-variant-east-asian:normal;font-feature-settings:normal;font-variation-settings:normal;text-indent:0;text-align:start;text-decoration:none;text-decoration-line:none;text-decoration-style:solid;text-decoration-color:#000;letter-spacing:normal;word-spacing:normal;text-transform:none;writing-mode:lr-tb;direction:ltr;text-orientation:mixed;dominant-baseline:auto;baseline-shift:baseline;text-anchor:start;white-space:normal;shape-padding:0;shape-margin:0;inline-size:0;clip-rule:nonzero;display:inline;overflow:visible;visibility:visible;isolation:auto;mix-blend-mode:normal;color-interpolation:sRGB;color-interpolation-filters:linearRGB;solid-color:#000;solid-opacity:1;vector-effect:none;fill:#28a8bf;fill-opacity:1;fill-rule:nonzero;stroke:none;stroke-width:.529167;stroke-linecap:round;stroke-linejoin:round;stroke-miterlimit:4;stroke-dasharray:none;stroke-dashoffset:0;stroke-opacity:1;color-rendering:auto;image-rendering:auto;shape-rendering:auto;text-rendering:auto;enable-background:accumulate;stop-color:#000" transform="matrix(1.31452 0 0 1.31452 .16 -368)"/><path d="M.76 284.54v.25a3.37 3.37 0 0 1 2.93-1.74 3.6 3.6 0 0 1 3.6 3.6v3.65c0 .35.37.35.37 0l-.03-5.76c-.01-1.99-1.42-3.5-3.41-3.5a3.4 3.4 0 0 0-3.46 3.5z" style="color:#000;font-style:normal;font-variant:normal;font-weight:400;font-stretch:normal;font-size:medium;line-height:normal;font-family:sans-serif;font-variant-ligatures:normal;font-variant-position:normal;font-variant-caps:normal;font-variant-numeric:normal;font-variant-alternates:normal;font-variant-east-asian:normal;font-feature-settings:normal;font-variation-settings:normal;text-indent:0;text-align:start;text-decoration:none;text-decoration-line:none;text-decoration-style:solid;text-decoration-color:#000;letter-spacing:normal;word-spacing:normal;text-transform:none;writing-mode:lr-tb;direction:ltr;text-orientation:mixed;dominant-baseline:auto;baseline-shift:baseline;text-anchor:start;white-space:normal;shape-padding:0;shape-margin:0;inline-size:0;clip-rule:nonzero;display:inline;overflow:visible;visibility:visible;isolation:auto;mix-blend-mode:normal;color-interpolation:sRGB;color-interpolation-filters:linearRGB;solid-color:#000;solid-opacity:1;vector-effect:none;fill:#76bfbd;fill-opacity:1;fill-rule:nonzero;stroke:none;stroke-width:.529167;stroke-linecap:round;stroke-linejoin:round;stroke-miterlimit:4;stroke-dasharray:none;stroke-dashoffset:0;stroke-opacity:1;color-rendering:auto;image-rendering:auto;shape-rendering:auto;text-rendering:auto;enable-background:accumulate;stop-color:#000" transform="matrix(1.31452 0 0 1.31452 .16 -368)"/><path d="M4.22 286.9c-.95 0-1.81.15-2.46.4-.32.14-.6.29-.8.48-.2.19-.17.43-.17.7v1.82c0 .36.36.36.36 0 0-.09.04-.19.17-.31.14-.13.35-.26.64-.37a6.46 6.46 0 0 1 2.26-.36c.9 0 1.7.14 2.26.36.28.11.5.24.63.37.14.12.18.22.18.31 0 .36.27.2.3-.15l.12-1.67c0-.27-.03-.51-.24-.7-.2-.19-.47-.34-.8-.47-.64-.26-1.5-.4-2.45-.4z" style="color:#000;font-style:normal;font-variant:normal;font-weight:400;font-stretch:normal;font-size:medium;line-height:normal;font-family:sans-serif;font-variant-ligatures:normal;font-variant-position:normal;font-variant-caps:normal;font-variant-numeric:normal;font-variant-alternates:normal;font-variant-east-asian:normal;font-feature-settings:normal;font-variation-settings:normal;text-indent:0;text-align:start;text-decoration:none;text-decoration-line:none;text-decoration-style:solid;text-decoration-color:#000;letter-spacing:normal;word-spacing:normal;text-transform:none;writing-mode:lr-tb;direction:ltr;text-orientation:mixed;dominant-baseline:auto;baseline-shift:baseline;text-anchor:start;white-space:normal;shape-padding:0;shape-margin:0;inline-size:0;clip-rule:nonzero;display:inline;overflow:visible;visibility:visible;isolation:auto;mix-blend-mode:normal;color-interpolation:sRGB;color-interpolation-filters:linearRGB;solid-color:#000;solid-opacity:1;vector-effect:none;fill:#2bb3cd;fill-opacity:1;fill-rule:nonzero;stroke:none;stroke-width:.529166;stroke-linecap:round;stroke-linejoin:round;stroke-miterlimit:4;stroke-dasharray:none;stroke-dashoffset:0;stroke-opacity:1;color-rendering:auto;image-rendering:auto;shape-rendering:auto;text-rendering:auto;enable-background:accumulate;stop-color:#000" transform="matrix(1.31452 0 0 1.31452 .16 -368)"/><path d="M4.22 286.9c-.95 0-1.81.15-2.46.4-.32.14-.6.29-.8.48a.97.97 0 0 0-.34.7v.21c.17-.12.38-.23.61-.32.65-.26 1.51-.4 2.46-.4s1.81.14 2.46.4c.32.12.6.28.8.47.2.19.34.43.34.7l-.08.56c0 .35.28.15.29-.2l.19-1.42c0-.27-.01-.51-.22-.7-.2-.19-.47-.34-.8-.47a6.9 6.9 0 0 0-2.45-.4z" style="color:#000;font-style:normal;font-variant:normal;font-weight:400;font-stretch:normal;font-size:medium;line-height:normal;font-family:sans-serif;font-variant-ligatures:normal;font-variant-position:normal;font-variant-caps:normal;font-variant-numeric:normal;font-variant-alternates:normal;font-variant-east-asian:normal;font-feature-settings:normal;font-variation-settings:normal;text-indent:0;text-align:start;text-decoration:none;text-decoration-line:none;text-decoration-style:solid;text-decoration-color:#000;letter-spacing:normal;word-spacing:normal;text-transform:none;writing-mode:lr-tb;direction:ltr;text-orientation:mixed;dominant-baseline:auto;baseline-shift:baseline;text-anchor:start;white-space:normal;shape-padding:0;shape-margin:0;inline-size:0;clip-rule:nonzero;display:inline;overflow:visible;visibility:visible;isolation:auto;mix-blend-mode:normal;color-interpolation:sRGB;color-interpolation-filters:linearRGB;solid-color:#000;solid-opacity:1;vector-effect:none;fill:#26a1b8;fill-opacity:1;fill-rule:nonzero;stroke:none;stroke-width:.529167;stroke-linecap:round;stroke-linejoin:round;stroke-miterlimit:4;stroke-dasharray:none;stroke-dashoffset:0;stroke-opacity:1;color-rendering:auto;image-rendering:auto;shape-rendering:auto;text-rendering:auto;enable-background:accumulate;stop-color:#000" transform="matrix(1.31452 0 0 1.31452 .16 -368)"/><path d="M9.67 288.43a.26.26 0 0 0-.27.27l.17 4.43c.07 1.65 1.18 2.8 2.83 2.8h.6c1.66 0 2.7-1.15 2.78-2.8l.22-4.43a.26.26 0 0 0-.26-.27z" style="color:#000;font-style:normal;font-variant:normal;font-weight:400;font-stretch:normal;font-size:medium;line-height:normal;font-family:sans-serif;font-variant-ligatures:normal;font-variant-position:normal;font-variant-caps:normal;font-variant-numeric:normal;font-variant-alternates:normal;font-variant-east-asian:normal;font-feature-settings:normal;font-variation-settings:normal;text-indent:0;text-align:start;text-decoration:none;text-decoration-line:none;text-decoration-style:solid;text-decoration-color:#000;letter-spacing:normal;word-spacing:normal;text-transform:none;writing-mode:lr-tb;direction:ltr;text-orientation:mixed;dominant-baseline:auto;baseline-shift:baseline;text-anchor:start;white-space:normal;shape-padding:0;shape-margin:0;inline-size:0;clip-rule:nonzero;display:inline;overflow:visible;visibility:visible;isolation:auto;mix-blend-mode:normal;color-interpolation:sRGB;color-interpolation-filters:linearRGB;solid-color:#000;solid-opacity:1;vector-effect:none;fill:#f5f6e8;fill-opacity:1;fill-rule:nonzero;stroke:none;stroke-width:.529167;stroke-linecap:round;stroke-linejoin:round;stroke-miterlimit:4;stroke-dasharray:none;stroke-dashoffset:0;stroke-opacity:1;color-rendering:auto;image-rendering:auto;shape-rendering:auto;text-rendering:auto;enable-background:accumulate;stop-color:#000" transform="matrix(1.31452 0 0 1.31452 .16 -368)"/><path d="M9.67 288.43a.26.26 0 0 0-.27.27v1.85h4.87c.66 0 1.2.54 1.2 1.2v3.08c.33-.48.36-1.07.36-1.7v-4.43a.26.26 0 0 0-.27-.27z" style="color:#000;font-style:normal;font-variant:normal;font-weight:400;font-stretch:normal;font-size:medium;line-height:normal;font-family:sans-serif;font-variant-ligatures:normal;font-variant-position:normal;font-variant-caps:normal;font-variant-numeric:normal;font-variant-alternates:normal;font-variant-east-asian:normal;font-feature-settings:normal;font-variation-settings:normal;text-indent:0;text-align:start;text-decoration:none;text-decoration-line:none;text-decoration-style:solid;text-decoration-color:#000;letter-spacing:normal;word-spacing:normal;text-transform:none;writing-mode:lr-tb;direction:ltr;text-orientation:mixed;dominant-baseline:auto;baseline-shift:baseline;text-anchor:start;white-space:normal;shape-padding:0;shape-margin:0;inline-size:0;clip-rule:nonzero;display:inline;overflow:visible;visibility:visible;isolation:auto;mix-blend-mode:normal;color-interpolation:sRGB;color-interpolation-filters:linearRGB;solid-color:#000;solid-opacity:1;vector-effect:none;fill:#e5e5d8;fill-opacity:1;fill-rule:nonzero;stroke:none;stroke-width:.529167;stroke-linecap:round;stroke-linejoin:round;stroke-miterlimit:4;stroke-dasharray:none;stroke-dashoffset:0;stroke-opacity:1;color-rendering:auto;image-rendering:auto;shape-rendering:auto;text-rendering:auto;enable-background:accumulate;stop-color:#000" transform="matrix(1.31452 0 0 1.31452 .16 -368)"/><path d="M9.26 284.54c.02 1.93.02 3.88.05 5.8.28.3.17.18.32-.04 0-.09.04-.19.18-.31.13-.13.35-.26.63-.37a6.46 6.46 0 0 1 2.26-.36c.9 0 1.7.14 2.26.36.28.11.5.24.63.37.14.12.18.22.18.31 0 .36.43.36.43 0v-5.76a3.41 3.41 0 0 0-3.5-3.47 3.36 3.36 0 0 0-3.44 3.47z" style="color:#000;font-style:normal;font-variant:normal;font-weight:400;font-stretch:normal;font-size:medium;line-height:normal;font-family:sans-serif;font-variant-ligatures:normal;font-variant-position:normal;font-variant-caps:normal;font-variant-numeric:normal;font-variant-alternates:normal;font-variant-east-asian:normal;font-feature-settings:normal;font-variation-settings:normal;text-indent:0;text-align:start;text-decoration:none;text-decoration-line:none;text-decoration-style:solid;text-decoration-color:#000;letter-spacing:normal;word-spacing:normal;text-transform:none;writing-mode:lr-tb;direction:ltr;text-orientation:mixed;dominant-baseline:auto;baseline-shift:baseline;text-anchor:start;white-space:normal;shape-padding:0;shape-margin:0;inline-size:0;clip-rule:nonzero;display:inline;overflow:visible;visibility:visible;isolation:auto;mix-blend-mode:normal;color-interpolation:sRGB;color-interpolation-filters:linearRGB;solid-color:#000;solid-opacity:1;vector-effect:none;fill:#7ecdca;fill-opacity:1;fill-rule:nonzero;stroke:none;stroke-width:.529166;stroke-linecap:round;stroke-linejoin:round;stroke-miterlimit:4;stroke-dasharray:none;stroke-dashoffset:0;stroke-opacity:1;color-rendering:auto;image-rendering:auto;shape-rendering:auto;text-rendering:auto;enable-background:accumulate;stop-color:#000" transform="matrix(1.31452 0 0 1.31452 .16 -368)"/><path d="M10.88 288.94a.26.26 0 0 0-.26.26v3.93c0 1.06.85 1.9 1.9 1.9h.36a1.9 1.9 0 0 0 1.9-1.9v-3.93a.26.26 0 0 0-.26-.26z" style="color:#000;font-style:normal;font-variant:normal;font-weight:400;font-stretch:normal;font-size:medium;line-height:normal;font-family:sans-serif;font-variant-ligatures:normal;font-variant-position:normal;font-variant-caps:normal;font-variant-numeric:normal;font-variant-alternates:normal;font-variant-east-asian:normal;font-feature-settings:normal;font-variation-settings:normal;text-indent:0;text-align:start;text-decoration:none;text-decoration-line:none;text-decoration-style:solid;text-decoration-color:#000;letter-spacing:normal;word-spacing:normal;text-transform:none;writing-mode:lr-tb;direction:ltr;text-orientation:mixed;dominant-baseline:auto;baseline-shift:baseline;text-anchor:start;white-space:normal;shape-padding:0;shape-margin:0;inline-size:0;clip-rule:nonzero;display:inline;overflow:visible;visibility:visible;isolation:auto;mix-blend-mode:normal;color-interpolation:sRGB;color-interpolation-filters:linearRGB;solid-color:#000;solid-opacity:1;vector-effect:none;fill:#87d1ee;fill-opacity:1;fill-rule:nonzero;stroke:none;stroke-width:.529167;stroke-linecap:round;stroke-linejoin:round;stroke-miterlimit:4;stroke-dasharray:none;stroke-dashoffset:0;stroke-opacity:1;color-rendering:auto;image-rendering:auto;shape-rendering:auto;text-rendering:auto;enable-background:accumulate;stop-color:#000" transform="matrix(1.31452 0 0 1.31452 .16 -368)"/><path d="M14.52 288.94h-3.64a.26.26 0 0 0-.26.26v1.35h3.09c.3 0 .55.25.55.55v2.03a1.9 1.9 0 0 1-1.82 1.9h.44a1.9 1.9 0 0 0 1.9-1.9V289.2c0-.17-.15-.2-.26-.26z" style="color:#000;font-style:normal;font-variant:normal;font-weight:400;font-stretch:normal;font-size:medium;line-height:normal;font-family:sans-serif;font-variant-ligatures:normal;font-variant-position:normal;font-variant-caps:normal;font-variant-numeric:normal;font-variant-alternates:normal;font-variant-east-asian:normal;font-feature-settings:normal;font-variation-settings:normal;text-indent:0;text-align:start;text-decoration:none;text-decoration-line:none;text-decoration-style:solid;text-decoration-color:#000;letter-spacing:normal;word-spacing:normal;text-transform:none;writing-mode:lr-tb;direction:ltr;text-orientation:mixed;dominant-baseline:auto;baseline-shift:baseline;text-anchor:start;white-space:normal;shape-padding:0;shape-margin:0;inline-size:0;clip-rule:nonzero;display:inline;overflow:visible;visibility:visible;isolation:auto;mix-blend-mode:normal;color-interpolation:sRGB;color-interpolation-filters:linearRGB;solid-color:#000;solid-opacity:1;vector-effect:none;fill:#79bbd4;fill-opacity:1;fill-rule:nonzero;stroke:none;stroke-width:.529167;stroke-linecap:round;stroke-linejoin:round;stroke-miterlimit:4;stroke-dasharray:none;stroke-dashoffset:0;stroke-opacity:1;color-rendering:auto;image-rendering:auto;shape-rendering:auto;text-rendering:auto;enable-background:accumulate;stop-color:#000" transform="matrix(1.31452 0 0 1.31452 .16 -368)"/><path d="M15.77 285.07v.59c.19.1.37.2.53.35v-.67c-.17-.11-.35-.2-.53-.27zm0 1.26v.6c.19.11.37.24.53.39v-.69a3.86 3.86 0 0 0-.53-.3z" style="color:#000;font-style:normal;font-variant:normal;font-weight:400;font-stretch:normal;font-size:medium;line-height:normal;font-family:sans-serif;font-variant-ligatures:normal;font-variant-position:normal;font-variant-caps:normal;font-variant-numeric:normal;font-variant-alternates:normal;font-variant-east-asian:normal;font-feature-settings:normal;font-variation-settings:normal;text-indent:0;text-align:start;text-decoration:none;text-decoration-line:none;text-decoration-style:solid;text-decoration-color:#000;letter-spacing:normal;word-spacing:normal;text-transform:none;writing-mode:lr-tb;direction:ltr;text-orientation:mixed;dominant-baseline:auto;baseline-shift:baseline;text-anchor:start;white-space:normal;shape-padding:0;shape-margin:0;inline-size:0;clip-rule:nonzero;display:inline;overflow:visible;visibility:visible;isolation:auto;mix-blend-mode:normal;color-interpolation:sRGB;color-interpolation-filters:linearRGB;solid-color:#000;solid-opacity:1;vector-effect:none;fill:#28a8bf;fill-opacity:1;fill-rule:nonzero;stroke:none;stroke-width:.529167;stroke-linecap:round;stroke-linejoin:round;stroke-miterlimit:4;stroke-dasharray:none;stroke-dashoffset:0;stroke-opacity:1;color-rendering:auto;image-rendering:auto;shape-rendering:auto;text-rendering:auto;enable-background:accumulate;stop-color:#000" transform="matrix(1.31452 0 0 1.31452 .16 -368)"/><path d="M9.2 284.54v.25a3.44 3.44 0 0 1 2.97-1.74 3.6 3.6 0 0 1 3.6 3.6v3.65c.01.35.35.35.36 0l-.02-5.76a3.32 3.32 0 0 0-3.41-3.45 3.4 3.4 0 0 0-3.5 3.45z" style="color:#000;font-style:normal;font-variant:normal;font-weight:400;font-stretch:normal;font-size:medium;line-height:normal;font-family:sans-serif;font-variant-ligatures:normal;font-variant-position:normal;font-variant-caps:normal;font-variant-numeric:normal;font-variant-alternates:normal;font-variant-east-asian:normal;font-feature-settings:normal;font-variation-settings:normal;text-indent:0;text-align:start;text-decoration:none;text-decoration-line:none;text-decoration-style:solid;text-decoration-color:#000;letter-spacing:normal;word-spacing:normal;text-transform:none;writing-mode:lr-tb;direction:ltr;text-orientation:mixed;dominant-baseline:auto;baseline-shift:baseline;text-anchor:start;white-space:normal;shape-padding:0;shape-margin:0;inline-size:0;clip-rule:nonzero;display:inline;overflow:visible;visibility:visible;isolation:auto;mix-blend-mode:normal;color-interpolation:sRGB;color-interpolation-filters:linearRGB;solid-color:#000;solid-opacity:1;vector-effect:none;fill:#76bfbd;fill-opacity:1;fill-rule:nonzero;stroke:none;stroke-width:.529167;stroke-linecap:round;stroke-linejoin:round;stroke-miterlimit:4;stroke-dasharray:none;stroke-dashoffset:0;stroke-opacity:1;color-rendering:auto;image-rendering:auto;shape-rendering:auto;text-rendering:auto;enable-background:accumulate;stop-color:#000" transform="matrix(1.31452 0 0 1.31452 .16 -368)"/><path d="M12.7 287.03c-.95 0-1.81.15-2.46.4-.32.13-.32.28-.52.47-.2.19-.27.31-.27.58l-.27 1.82c-.05.35.45.36.45 0 0-.09.04-.19.18-.31.13-.13.35-.26.63-.37a6.46 6.46 0 0 1 2.26-.36c.9 0 1.7.14 2.26.36.28.11.5.24.63.37.14.12.18.22.18.31 0 .35.53.35.53 0v-1.82a.97.97 0 0 0-.34-.7c-.2-.19-.48-.34-.8-.47a7.11 7.11 0 0 0-2.46-.28z" style="color:#000;font-style:normal;font-variant:normal;font-weight:400;font-stretch:normal;font-size:medium;line-height:normal;font-family:sans-serif;font-variant-ligatures:normal;font-variant-position:normal;font-variant-caps:normal;font-variant-numeric:normal;font-variant-alternates:normal;font-variant-east-asian:normal;font-feature-settings:normal;font-variation-settings:normal;text-indent:0;text-align:start;text-decoration:none;text-decoration-line:none;text-decoration-style:solid;text-decoration-color:#000;letter-spacing:normal;word-spacing:normal;text-transform:none;writing-mode:lr-tb;direction:ltr;text-orientation:mixed;dominant-baseline:auto;baseline-shift:baseline;text-anchor:start;white-space:normal;shape-padding:0;shape-margin:0;inline-size:0;clip-rule:nonzero;display:inline;overflow:visible;visibility:visible;isolation:auto;mix-blend-mode:normal;color-interpolation:sRGB;color-interpolation-filters:linearRGB;solid-color:#000;solid-opacity:1;vector-effect:none;fill:#2bb3cd;fill-opacity:1;fill-rule:nonzero;stroke:none;stroke-width:.529166;stroke-linecap:round;stroke-linejoin:round;stroke-miterlimit:4;stroke-dasharray:none;stroke-dashoffset:0;stroke-opacity:1;color-rendering:auto;image-rendering:auto;shape-rendering:auto;text-rendering:auto;enable-background:accumulate;stop-color:#000" transform="matrix(1.31452 0 0 1.31452 .16 -368)"/><path d="M12.7 286.98c-.95 0-1.81.15-2.46.4-.32.13-.4.31-.6.5-.2.19-.37.33-.37.6v.21c.17-.12.2-.23.44-.32.65-.26 1.51-.4 2.46-.4s1.81.14 2.46.4c.32.12.6.28.8.47.2.19.34.43.34.7v.76c.01.35.52.35.53 0v-1.82a.97.97 0 0 0-.34-.7c-.2-.19-.48-.34-.8-.47a7.03 7.03 0 0 0-2.46-.33z" style="color:#000;font-style:normal;font-variant:normal;font-weight:400;font-stretch:normal;font-size:medium;line-height:normal;font-family:sans-serif;font-variant-ligatures:normal;font-variant-position:normal;font-variant-caps:normal;font-variant-numeric:normal;font-variant-alternates:normal;font-variant-east-asian:normal;font-feature-settings:normal;font-variation-settings:normal;text-indent:0;text-align:start;text-decoration:none;text-decoration-line:none;text-decoration-style:solid;text-decoration-color:#000;letter-spacing:normal;word-spacing:normal;text-transform:none;writing-mode:lr-tb;direction:ltr;text-orientation:mixed;dominant-baseline:auto;baseline-shift:baseline;text-anchor:start;white-space:normal;shape-padding:0;shape-margin:0;inline-size:0;clip-rule:nonzero;display:inline;overflow:visible;visibility:visible;isolation:auto;mix-blend-mode:normal;color-interpolation:sRGB;color-interpolation-filters:linearRGB;solid-color:#000;solid-opacity:1;vector-effect:none;fill:#26a1b8;fill-opacity:1;fill-rule:nonzero;stroke:none;stroke-width:.529167;stroke-linecap:round;stroke-linejoin:round;stroke-miterlimit:4;stroke-dasharray:none;stroke-dashoffset:0;stroke-opacity:1;color-rendering:auto;image-rendering:auto;shape-rendering:auto;text-rendering:auto;enable-background:accumulate;stop-color:#000" transform="matrix(1.31452 0 0 1.31452 .16 -368)"/><path d="M4.22 280.94a3.6 3.6 0 0 0-3.6 3.6v5.76c.01.27.17.49.3.66v2.17a3 3 0 0 0 3 3h.6a3 3 0 0 0 3-3v-2.17c.17-.22.27-.42.3-.66v-5.76a3.6 3.6 0 0 0-3.6-3.6zm8.5 0a3.6 3.6 0 0 0-3.6 3.6v5.76c0 .27.17.49.3.66v2.17a3 3 0 0 0 2.99 3h.6a3 3 0 0 0 3-3v-2.17c.18-.22.28-.42.3-.66v-5.76a3.6 3.6 0 0 0-3.6-3.6zm-8.5.53c1.7 0 3.07 1.37 3.07 3.07v.62a3.5 3.5 0 0 0-1.16-.45.26.26 0 0 0-.04.51c.46.12.88.3 1.2.65v.5a3.37 3.37 0 0 0-1.16-.45.26.26 0 0 0-.04.52c.46.12.88.3 1.2.64v.55a6.16 6.16 0 0 0-3.07-.72 6.22 6.22 0 0 0-3.07.72v-.45c.28-.43.85-.62 1.27-.74a.26.26 0 0 0-.07-.52c-.44.07-.85.29-1.2.5v-.45c.31-.42.84-.62 1.27-.75a.26.26 0 0 0-.07-.52 3.7 3.7 0 0 0-1.2.5v-.66c0-1.7 1.37-3.07 3.07-3.07zm8.5 0c1.7 0 3.07 1.37 3.07 3.07v.62a3.5 3.5 0 0 0-1.16-.45.26.26 0 0 0-.05.51c.47.13.89.3 1.2.65v.5a3.5 3.5 0 0 0-1.15-.45.26.26 0 0 0-.05.52c.46.12.89.3 1.2.64v.55a6.14 6.14 0 0 0-3.07-.72 6.24 6.24 0 0 0-3.07.72v-.45c.31-.4.83-.6 1.28-.74a.26.26 0 0 0-.07-.52c-.43.1-.89.3-1.2.5v-.45c.3-.4.82-.61 1.27-.75a.26.26 0 0 0-.07-.52c-.43.1-.88.3-1.2.5v-.66c0-1.7 1.36-3.07 3.06-3.07zm-8.89 1.3a.3.3 0 0 0-.27.36l.05.24-.18.17a.3.3 0 0 0 .17.52l.24.03.1.22a.3.3 0 0 0 .55 0l.11-.22.24-.03a.3.3 0 0 0 .17-.52l-.18-.17.05-.24a.3.3 0 0 0-.45-.32l-.21.11-.22-.1a.3.3 0 0 0-.17-.04zm8.5 0a.3.3 0 0 0-.27.36l.04.24-.17.17a.3.3 0 0 0 .16.52l.24.03.11.22a.3.3 0 0 0 .55 0l.1-.22.24-.03a.3.3 0 0 0 .17-.52l-.17-.17.04-.24a.3.3 0 0 0-.44-.32l-.22.11-.21-.1a.3.3 0 0 0-.17-.04zm-9.93.55a.3.3 0 1 0 0 .61.3.3 0 0 0 0-.6zm3.64 0a.3.3 0 1 0 0 .61.3.3 0 0 0 0-.6zm4.85 0a.3.3 0 1 0 0 .61.3.3 0 0 0 0-.6zm3.65 0a.3.3 0 1 0 0 .61.3.3 0 0 0 0-.6zm-10.32 4.12c1.04.05 2.07.13 2.9.73.13.12.17.22.17.31v.97a6.16 6.16 0 0 0-3.07-.72 6.22 6.22 0 0 0-3.07.72v-.97c0-.09.04-.19.17-.31a5.2 5.2 0 0 1 2.9-.73zm8.5 0c1.04.05 2.06.13 2.89.73.13.12.18.22.18.31v.97a2.86 2.86 0 0 0-.62-.32 6.9 6.9 0 0 0-2.46-.4c-.94 0-1.8.15-2.45.4-.24.1-.44.2-.62.32v-.97c0-.09.04-.19.18-.31.82-.6 2.03-.73 2.9-.73zm-8.5 1.82c.57 0 1.1.06 1.56.16v3.71c0 .77-.62 1.38-1.38 1.38h-.36c-.77 0-1.38-.6-1.38-1.38v-3.7c.46-.11.99-.17 1.56-.17zm8.5 0c.57 0 1.1.06 1.55.16v3.71c0 .77-.61 1.38-1.37 1.38h-.37c-.76 0-1.37-.6-1.37-1.38v-3.7c.46-.1.98-.17 1.55-.17zm-10.59.3v3.57c0 1.06.86 1.9 1.9 1.9h.37a1.9 1.9 0 0 0 1.9-1.9v-3.57c.25.07.48.2.69.33v3.24c0 1.37-1.1 2.47-2.47 2.47h-.6a2.46 2.46 0 0 1-2.47-2.47v-3.24c.24-.16.44-.25.68-.33zm8.5 3.57c0 1.06.85 1.9 1.9 1.9h.37a1.9 1.9 0 0 0 1.9-1.9v-3.57c.24.07.48.2.68.33v3.24c0 1.37-1.1 2.47-2.46 2.47h-.61a2.46 2.46 0 0 1-2.46-2.47v-3.24c.23-.16.44-.24.68-.33z" style="color:#000;font-style:normal;font-variant:normal;font-weight:400;font-stretch:normal;font-size:medium;line-height:normal;font-family:sans-serif;font-variant-ligatures:normal;font-variant-position:normal;font-variant-caps:normal;font-variant-numeric:normal;font-variant-alternates:normal;font-variant-east-asian:normal;font-feature-settings:normal;font-variation-settings:normal;text-indent:0;text-align:start;text-decoration:none;text-decoration-line:none;text-decoration-style:solid;text-decoration-color:#000;letter-spacing:normal;word-spacing:normal;text-transform:none;writing-mode:lr-tb;direction:ltr;text-orientation:mixed;dominant-baseline:auto;baseline-shift:baseline;text-anchor:start;white-space:normal;shape-padding:0;shape-margin:0;inline-size:0;clip-rule:nonzero;display:inline;overflow:visible;visibility:visible;opacity:1;isolation:auto;mix-blend-mode:normal;color-interpolation:sRGB;color-interpolation-filters:linearRGB;solid-color:#000;solid-opacity:1;vector-effect:none;fill:#000;fill-opacity:1;fill-rule:nonzero;stroke:none;stroke-width:.529167;stroke-linecap:round;stroke-linejoin:round;stroke-miterlimit:4;stroke-dasharray:none;stroke-dashoffset:0;stroke-opacity:1;color-rendering:auto;image-rendering:auto;shape-rendering:auto;text-rendering:auto;enable-background:accumulate;stop-color:#000;stop-opacity:1" transform="matrix(1.31452 0 0 1.31452 .16 -368)"/></g></svg>