<svg xmlns="http://www.w3.org/2000/svg" xml:space="preserve" viewBox="0 0 1122.52 793.7"><defs><clipPath id="a" clipPathUnits="userSpaceOnUse"><path d="M0 595.28h841.89V0H0Z"/></clipPath></defs><g clip-path="url(#a)" transform="matrix(1.33333 0 0 -1.33333 0 793.7)"><path d="M0 0c-15.2 0-27.21 4.8-36.03 14.4-8.83 9.59-13.24 22.75-13.24 39.49 0 16.69 4.42 29.83 13.27 39.42 8.85 9.6 20.85 14.4 36 14.4 8.27 0 15.79-1.64 22.54-4.91a40.97 40.97 0 0 0 16.27-13.85 40.35 40.35 0 0 0 6.93-20.42H24.53c-1.01 6.4-3.77 11.52-8.26 15.37-4.5 3.85-9.92 5.77-16.27 5.77-8.22 0-14.79-3.22-19.7-9.67-4.9-6.44-7.35-15.12-7.35-26.04 0-11.1 2.43-19.87 7.28-26.3C-14.9 21.25-8.3 18.04.07 18.04c6.45 0 11.86 1.78 16.23 5.34 4.38 3.56 7.15 8.42 8.3 14.58h21.2c-1.2-11.6-5.93-20.82-14.2-27.67C23.32 3.43 12.8 0 0 0" style="fill:#eb3728;fill-opacity:1;fill-rule:nonzero;stroke:none" transform="translate(130.4 323.35)"/><path d="M0 0c4.67 0 8.62 1.36 11.87 4.08a12.84 12.84 0 0 1 4.87 10.28v5.62l-16.3-1c-3.95-.3-7-1.28-9.13-2.97a8.03 8.03 0 0 1-3.21-6.63 8.22 8.22 0 0 1 3.24-6.86C-6.49.85-3.6 0 0 0m-6.92-15.22c-7.46 0-13.64 2.19-18.55 6.56-4.9 4.38-7.35 10-7.35 16.88 0 7.02 2.6 12.53 7.79 16.52 5.2 4 12.62 6.28 22.29 6.86l19.48 1.15v5.12c0 3.56-1.17 6.35-3.5 8.37-2.33 2.02-5.5 3.03-9.49 3.03-3.85 0-6.98-.86-9.41-2.6a10.6 10.6 0 0 1-4.44-7h-19.26c.38 7.6 3.63 13.73 9.74 18.37 6.1 4.64 14.2 6.96 24.3 6.96 9.92 0 17.85-2.36 23.82-7.07 5.96-4.72 8.94-10.97 8.94-18.76v-53.16H17.1v11.83h-.44A22.75 22.75 0 0 0 7-11.72a28.92 28.92 0 0 0-13.92-3.5" style="fill:#eb3728;fill-opacity:1;fill-rule:nonzero;stroke:none" transform="translate(217.32 339.15)"/><path d="M0 0v77.33h20.34v-14h.44a22.4 22.4 0 0 0 8.36 11.26 23.13 23.13 0 0 0 13.71 4.19c5.58 0 10.24-1.39 14-4.15 3.75-2.77 6.27-6.67 7.57-11.72h.43a22.73 22.73 0 0 0 9.06 11.58c4.3 2.86 9.3 4.29 14.97 4.29 7.6 0 13.72-2.38 18.36-7.14 4.64-4.77 6.96-11.04 6.96-18.83V0H93.13v47.54c0 4.47-1.08 7.9-3.24 10.28-2.17 2.38-5.3 3.57-9.38 3.57-4 0-7.2-1.32-9.63-3.97-2.43-2.64-3.64-6.13-3.64-10.46V0H46.95v48.19c0 4.13-1.1 7.37-3.31 9.7-2.22 2.33-5.27 3.5-9.17 3.5-3.99 0-7.22-1.37-9.7-4.11-2.48-2.74-3.71-6.28-3.71-10.6V0Z" style="fill:#eb3728;fill-opacity:1;fill-rule:nonzero;stroke:none" transform="translate(268.33 325.15)"/><path d="M0 0c5.24 0 9.41 2.07 12.52 6.2 3.1 4.14 4.65 9.72 4.65 16.74 0 7.02-1.55 12.61-4.65 16.77A14.81 14.81 0 0 1 0 45.95c-5.15 0-9.28-2.1-12.4-6.3-3.13-4.22-4.7-9.78-4.7-16.7 0-6.98 1.55-12.55 4.66-16.71A14.74 14.74 0 0 1 0 0m7.07 62.83c9.81 0 17.54-3.53 23.2-10.6 5.64-7.07 8.47-16.83 8.47-29.29 0-12.4-2.8-22.16-8.37-29.25-5.58-7.1-13.22-10.64-22.94-10.64-5.53 0-10.4 1.26-14.6 3.78A23.5 23.5 0 0 0-16.6-2.74h-.43v-38.24H-38.1V61.61h20.78V48.1h.43a24.43 24.43 0 0 0 9.41 10.83c4.16 2.6 9 3.9 14.54 3.9" style="fill:#eb3728;fill-opacity:1;fill-rule:nonzero;stroke:none" transform="translate(433.96 340.88)"/><path d="M0 0h-12.97v44.73l-36.88 59.21h14.77L-6.7 57.27h.43l28.38 46.67h14.77L0 44.74Z" style="fill:#000;fill-opacity:1;fill-rule:nonzero;stroke:none" transform="translate(128.1 192.46)"/><path d="M0 0c3.96-4.9 9.3-7.35 16.03-7.35 6.72 0 12.05 2.44 15.99 7.31 3.94 4.88 5.9 11.68 5.9 20.42 0 8.74-1.96 15.55-5.9 20.43-3.94 4.87-9.27 7.3-16 7.3-6.72 0-12.06-2.44-16.02-7.34-3.96-4.9-5.94-11.7-5.94-20.39C-5.94 11.7-3.96 4.9 0 0m16.03-18.37c-10.47 0-18.88 3.5-25.21 10.48C-15.52-.9-18.7 8.52-18.7 20.4c0 11.86 3.17 21.28 9.5 28.27 6.35 6.99 14.75 10.48 25.22 10.48 10.42 0 18.8-3.5 25.14-10.48 6.34-6.99 9.5-16.41 9.5-28.27 0-11.82-3.16-21.23-9.5-28.24-6.34-7.01-14.72-10.52-25.14-10.52" style="fill:#000;fill-opacity:1;fill-rule:nonzero;stroke:none" transform="translate(176.25 209.53)"/><path d="M0 0v-74.92h-11.88v12.18h-.3c-4.65-8.98-12.58-13.47-23.77-13.47-8.11 0-14.46 2.46-19.05 7.38-4.58 4.92-6.88 11.66-6.88 20.2V0h12.54v-46.39c0-12.49 5.76-18.73 17.29-18.73 6.05 0 10.81 1.91 14.3 5.73 3.47 3.82 5.22 8.94 5.22 15.38V0z" style="fill:#000;fill-opacity:1;fill-rule:nonzero;stroke:none" transform="translate(301.05 267.37)"/><path d="M0 0v74.92h11.81V62.96h.3a23.5 23.5 0 0 0 9.28 9.76c4.04 2.33 8.86 3.5 14.48 3.5 8.17 0 14.53-2.47 19.1-7.4 4.55-4.91 6.83-11.65 6.83-20.2V0H49.27v46.39c0 6.1-1.44 10.74-4.32 13.94-2.88 3.19-7.18 4.79-12.9 4.79-5.9 0-10.63-1.92-14.19-5.76-3.55-3.85-5.33-8.94-5.33-15.28V0Z" style="fill:#000;fill-opacity:1;fill-rule:nonzero;stroke:none" transform="translate(317.25 192.46)"/><path d="M0 0c6.53 0 11.79 2.5 15.78 7.5 3.98 4.98 5.97 11.59 5.97 19.8 0 8.26-1.99 14.9-5.97 19.92-4 5.02-9.25 7.53-15.78 7.53-6.48 0-11.66-2.49-15.52-7.46-3.87-4.97-5.8-11.63-5.8-19.99 0-8.35 1.93-15 5.8-19.92C-11.66 2.46-6.48 0 0 0m.43-38.68c-8.21 0-15.27 2.08-21.18 6.23-5.9 4.15-9.38 9.42-10.44 15.81h12.9a15.75 15.75 0 0 1 7.05-8.28c3.46-2.07 7.52-3.1 12.18-3.1 6.43 0 11.5 1.7 15.23 5.11 3.72 3.41 5.58 7.93 5.58 13.55v11.8h-.28a26.04 26.04 0 0 0-9.87-9.82 27.85 27.85 0 0 0-14.12-3.64c-9.56 0-17.22 3.48-22.98 10.44-5.76 6.97-8.64 16.26-8.64 27.88 0 11.72 2.89 21.06 8.68 28.02 5.78 6.96 13.53 10.45 23.23 10.45 5.28 0 10.03-1.23 14.26-3.68a27.15 27.15 0 0 0 10.08-10.23h.22v12.61h11.96v-73.4c0-8.98-3.08-16.19-9.22-21.61-6.15-5.43-14.36-8.14-24.64-8.14" style="fill:#000;fill-opacity:1;fill-rule:nonzero;stroke:none" transform="translate(425.45 202.9)"/><path d="M0 0c0 6.43 2.6 11.7 7.82 15.81 5.2 4.1 11.92 6.16 20.13 6.16 7.73 0 14.16-2.07 19.3-6.2C52.4 11.64 55.1 6.41 55.4.07H43.44a11.9 11.9 0 0 1-4.87 8.57c-2.8 2.07-6.5 3.1-11.05 3.1-4.57 0-8.24-1.02-11.02-3.06A9.5 9.5 0 0 1 12.32.65c0-5.1 4.15-8.7 12.46-10.8l11.6-2.82c7.54-1.92 12.85-4.4 15.95-7.45 3.1-3.05 4.65-7.34 4.65-12.86 0-6.53-2.79-11.87-8.36-16.03-5.57-4.15-12.72-6.23-21.46-6.23-8.17 0-14.9 2.03-20.2 6.09a22.26 22.26 0 0 0-8.98 16.1h12.54c1.39-7.97 7.2-11.96 17.43-11.96 5.04 0 9.04 1 12 2.99 2.95 2 4.42 4.7 4.42 8.1 0 2.7-.88 4.83-2.63 6.42-1.75 1.58-4.72 2.92-8.9 4.03l-13.18 3.39C6.56-17.02 0-10.23 0 0" style="fill:#000;fill-opacity:1;fill-rule:nonzero;stroke:none" transform="translate(474.72 246.7)"/><path d="M0 0h12.53v-19.7H27.1V-30H12.53v-44.52c0-3.4.75-5.92 2.24-7.52 1.49-1.61 3.84-2.42 7.06-2.42 2.01 0 3.74.12 5.18.36V-94.6c-1.63-.39-4.27-.58-7.92-.58-6.87 0-11.77 1.54-14.7 4.61C1.46-87.5 0-82.37 0-75.16V-30h-11.16v10.3H0Z" style="fill:#000;fill-opacity:1;fill-rule:nonzero;stroke:none" transform="translate(548.7 287.07)"/><path d="M0 0c-5.81 0-10.63-2-14.44-6.01-3.82-4.02-5.92-9.17-6.3-15.46h40.7c-.15 6.34-2.05 11.5-5.7 15.5C10.61-2 5.86 0 0 0m19.66-43.87h12.32c-1.1-6.63-4.55-12.08-10.33-16.35-5.8-4.27-12.74-6.41-20.86-6.41-10.7 0-19.14 3.46-25.28 10.37-6.15 6.92-9.22 16.28-9.22 28.1 0 11.71 3.08 21.15 9.25 28.3C-18.29 7.3-10.06 10.88.22 10.88c10.08 0 18.05-3.39 23.91-10.16 5.86-6.77 8.79-15.85 8.79-27.23v-4.75h-53.74v-.72c0-7.2 1.97-12.97 5.9-17.3 3.95-4.31 9.28-6.47 16-6.47 4.7 0 8.72 1.08 12.03 3.24a15.2 15.2 0 0 1 6.55 8.64" style="fill:#000;fill-opacity:1;fill-rule:nonzero;stroke:none" transform="translate(616.98 257.8)"/><path d="M0 0v74.92h11.81V62.67h.3a18.64 18.64 0 0 0 6.73 9.9 18.53 18.53 0 0 0 11.41 3.64c1.01 0 2.7-.17 5.05-.5V63.53c-1.35.48-3.58.72-6.7.72-4.85 0-8.74-1.6-11.67-4.82-2.93-3.22-4.4-7.47-4.4-12.75V0Z" style="fill:#000;fill-opacity:1;fill-rule:nonzero;stroke:none" transform="translate(662.5 192.46)"/><path d="M0 0c0 6.43 2.6 11.7 7.82 15.81 5.2 4.1 11.92 6.16 20.13 6.16 7.73 0 14.16-2.07 19.3-6.2 5.14-4.13 7.86-9.36 8.14-15.7H43.44a11.9 11.9 0 0 1-4.87 8.57c-2.8 2.07-6.5 3.1-11.05 3.1-4.57 0-8.24-1.02-11.02-3.06A9.5 9.5 0 0 1 12.32.65c0-5.1 4.15-8.7 12.46-10.8l11.6-2.82c7.54-1.92 12.85-4.4 15.95-7.45 3.1-3.05 4.65-7.34 4.65-12.86 0-6.53-2.79-11.87-8.36-16.03-5.57-4.15-12.72-6.23-21.46-6.23-8.17 0-14.9 2.03-20.2 6.09a22.26 22.26 0 0 0-8.98 16.1h12.54c1.39-7.97 7.2-11.96 17.43-11.96 5.04 0 9.04 1 12 2.99 2.95 2 4.42 4.7 4.42 8.1 0 2.7-.88 4.83-2.63 6.42-1.75 1.58-4.72 2.92-8.9 4.03l-13.18 3.39C6.56-17.02 0-10.23 0 0" style="fill:#000;fill-opacity:1;fill-rule:nonzero;stroke:none" transform="translate(706.66 246.7)"/></g></svg>
