<svg xmlns="http://www.w3.org/2000/svg" viewBox="0 0 22.58 22.58"><g style="display:inline"><path d="M32 251.54c-.62 0-1.06.4-1.06 1.01l.02 12.6c0 .62.41 1.12 1.03 1.12h10.37c.56 0 1.02-.46 1.02-1.02v-1.93a.26.26 0 0 0-.07-.17L32.92 251.5a.26.26 0 0 0-.2-.09z" style="color:#000;font-style:normal;font-variant:normal;font-weight:400;font-stretch:normal;font-size:medium;line-height:normal;font-family:sans-serif;font-variant-ligatures:normal;font-variant-position:normal;font-variant-caps:normal;font-variant-numeric:normal;font-variant-alternates:normal;font-variant-east-asian:normal;font-feature-settings:normal;font-variation-settings:normal;text-indent:0;text-align:start;text-decoration:none;text-decoration-line:none;text-decoration-style:solid;text-decoration-color:#000;letter-spacing:normal;word-spacing:normal;text-transform:none;writing-mode:lr-tb;direction:ltr;text-orientation:mixed;dominant-baseline:auto;baseline-shift:baseline;text-anchor:start;white-space:normal;shape-padding:0;shape-margin:0;inline-size:0;clip-rule:nonzero;display:inline;overflow:visible;visibility:visible;isolation:auto;mix-blend-mode:normal;color-interpolation:sRGB;color-interpolation-filters:linearRGB;solid-color:#000;solid-opacity:1;vector-effect:none;fill:#ffb240;fill-opacity:1;fill-rule:evenodd;stroke:none;stroke-width:.529167;stroke-linecap:round;stroke-linejoin:round;stroke-miterlimit:4;stroke-dasharray:none;stroke-dashoffset:0;stroke-opacity:1;color-rendering:auto;image-rendering:auto;shape-rendering:auto;text-rendering:auto;enable-background:accumulate;stop-color:#000" transform="matrix(1.25268 0 0 1.25268 -37.54 -311.94)"/><path d="M33.76 249.94c-.62 0-1.12.5-1.12 1.12l-.09 12.63c0 .55.37.99.93.99h8.54a.23.23 0 0 0 .04-.01.23.23 0 0 0 .04-.01l.04-.02.04-.03h.01v-.02l2.7-2.64v-.01a.26.26 0 0 0 .06-.08.3.3 0 0 0 .01-.06v-10.32l-.13-.38c-.22-.58-.5-1.12-1.12-1.12z" style="color:#000;font-style:normal;font-variant:normal;font-weight:400;font-stretch:normal;font-size:medium;line-height:normal;font-family:sans-serif;font-variant-ligatures:normal;font-variant-position:normal;font-variant-caps:normal;font-variant-numeric:normal;font-variant-alternates:normal;font-variant-east-asian:normal;font-feature-settings:normal;font-variation-settings:normal;text-indent:0;text-align:start;text-decoration:none;text-decoration-line:none;text-decoration-style:solid;text-decoration-color:#000;letter-spacing:normal;word-spacing:normal;text-transform:none;writing-mode:lr-tb;direction:ltr;text-orientation:mixed;dominant-baseline:auto;baseline-shift:baseline;text-anchor:start;white-space:normal;shape-padding:0;shape-margin:0;inline-size:0;clip-rule:nonzero;display:inline;overflow:visible;visibility:visible;isolation:auto;mix-blend-mode:normal;color-interpolation:sRGB;color-interpolation-filters:linearRGB;solid-color:#000;solid-opacity:1;vector-effect:none;fill:#fed883;fill-opacity:1;fill-rule:evenodd;stroke:none;stroke-width:.529167;stroke-linecap:round;stroke-linejoin:round;stroke-miterlimit:4;stroke-dasharray:none;stroke-dashoffset:0;stroke-opacity:1;color-rendering:auto;image-rendering:auto;shape-rendering:auto;text-rendering:auto;enable-background:accumulate;stop-color:#000" transform="matrix(1.25268 0 0 1.25268 -37.54 -311.94)"/><path d="M165.72-113.23h-38.04a4.24 4.24 0 0 0-4.23 4.24l-.24 11.82c6.02 4.65 14.03 4.04 21.77 8.88 9.7 6.07 5.07 22.12 7.24 30.13h6.54l.06-.01a1 1 0 0 0 .31-.08 1 1 0 0 0 .27-.16h.01l.05-.04.03-.03 10.17-10 .03-.03a1 1 0 0 0 .16-.23 1.02 1.02 0 0 0 .11-.45v-40.87c0-2.32-1.91-3.05-4.23-3.17z" style="fill:#f0c561;fill-opacity:1;stroke:none;stroke-width:.999999px;stroke-linecap:butt;stroke-linejoin:miter;stroke-opacity:1" transform="matrix(.33144 0 0 .33144 -37.54 38.9)"/><path d="M33.5 250.91c-.28-.07-.47-.15-.79.01a.26.26 0 0 0-.12.36c.07.13.12.18.25.11.22-.1.42-.12.54-.08.12.03.2.06.2.11 0 .15.06.27.2.27.15 0 .27-.12.27-.27 0-.31-.28-.43-.56-.5zM33.52 252.5c-.27-.08-.53-.15-.84.01a.26.26 0 0 0-.12.36c.06.13.15.18.28.11.22-.1.42-.12.54-.08.12.03.22.06.22.11 0 .15.04.26.18.27.15 0 .27-.12.27-.27 0-.3-.25-.44-.53-.51zM33.5 254.08c-.27-.07-.49-.13-.8.03a.26.26 0 0 0-.12.35c.06.13.13.18.26.11.22-.1.42-.11.54-.08.12.03.2.05.2.1 0 .15.06.28.2.28.15 0 .27-.12.27-.27 0-.3-.27-.44-.55-.52zM33.5 255.66c-.27-.07-.53-.13-.84.03a.26.26 0 1 0 .23.47c.22-.1.37-.11.5-.08.11.03.2.05.2.11 0 .15.05.27.2.27.14 0 .26-.12.26-.27 0-.3-.27-.45-.54-.53zM33.5 257.26c-.27-.07-.53-.14-.84.02a.26.26 0 1 0 .23.48c.22-.11.37-.12.5-.09.11.03.2.06.2.12 0 .14.05.26.2.26.14 0 .26-.12.26-.27 0-.3-.27-.44-.54-.52zM33.49 258.81c-.28-.07-.52-.1-.83.06a.26.26 0 1 0 .23.48c.22-.11.37-.12.5-.09.11.03.2.05.2.1 0 .15.05.28.2.28.14 0 .26-.12.26-.26 0-.32-.28-.5-.56-.57zM33.51 260.38a1.12 1.12 0 0 0-.85.08.26.26 0 1 0 .23.48c.22-.11.37-.12.5-.09.11.03.22.03.22.09 0 .15.03.29.17.29.15 0 .27-.12.27-.27 0-.3-.26-.5-.54-.58zM33.53 262.04c-.26-.09-.55-.15-.87.01a.26.26 0 1 0 .23.48c.2-.1.35-.1.48-.05.13.04.2.09.2.04 0 .15.11.26.26.27.14 0 .17-.13.17-.27 0-.31-.2-.39-.47-.48z" style="color:#000;font-style:normal;font-variant:normal;font-weight:400;font-stretch:normal;font-size:medium;line-height:normal;font-family:sans-serif;font-variant-ligatures:normal;font-variant-position:normal;font-variant-caps:normal;font-variant-numeric:normal;font-variant-alternates:normal;font-variant-east-asian:normal;font-feature-settings:normal;font-variation-settings:normal;text-indent:0;text-align:start;text-decoration:none;text-decoration-line:none;text-decoration-style:solid;text-decoration-color:#000;letter-spacing:normal;word-spacing:normal;text-transform:none;writing-mode:lr-tb;direction:ltr;text-orientation:mixed;dominant-baseline:auto;baseline-shift:baseline;text-anchor:start;white-space:normal;shape-padding:0;shape-margin:0;inline-size:0;clip-rule:nonzero;display:inline;overflow:visible;visibility:visible;opacity:1;isolation:auto;mix-blend-mode:normal;color-interpolation:sRGB;color-interpolation-filters:linearRGB;solid-color:#000;solid-opacity:1;vector-effect:none;fill:#143441;fill-opacity:1;fill-rule:nonzero;stroke:none;stroke-width:.529167;stroke-linecap:round;stroke-linejoin:round;stroke-miterlimit:4;stroke-dasharray:none;stroke-dashoffset:0;stroke-opacity:1;color-rendering:auto;image-rendering:auto;shape-rendering:auto;text-rendering:auto;enable-background:accumulate;stop-color:#000;stop-opacity:1" transform="matrix(1.25268 0 0 1.25268 -37.54 -311.94)"/><path d="M43.92 253.02c-.1 0-.19.04-.24.13l-1.35 2.26a.26.26 0 0 0 .1.36l1.3.83c.13.07.3.03.37-.1l1.41-2.45a.26.26 0 0 0-.1-.36l-1.36-.64a.27.27 0 0 0-.13-.03z" style="color:#000;font-style:normal;font-variant:normal;font-weight:400;font-stretch:normal;font-size:medium;line-height:normal;font-family:sans-serif;font-variant-ligatures:normal;font-variant-position:normal;font-variant-caps:normal;font-variant-numeric:normal;font-variant-alternates:normal;font-variant-east-asian:normal;font-feature-settings:normal;font-variation-settings:normal;text-indent:0;text-align:start;text-decoration:none;text-decoration-line:none;text-decoration-style:solid;text-decoration-color:#000;letter-spacing:normal;word-spacing:normal;text-transform:none;writing-mode:lr-tb;direction:ltr;text-orientation:mixed;dominant-baseline:auto;baseline-shift:baseline;text-anchor:start;white-space:normal;shape-padding:0;shape-margin:0;inline-size:0;clip-rule:nonzero;display:inline;overflow:visible;visibility:visible;isolation:auto;mix-blend-mode:normal;color-interpolation:sRGB;color-interpolation-filters:linearRGB;solid-color:#000;solid-opacity:1;vector-effect:none;fill:#2276bc;fill-opacity:1;fill-rule:nonzero;stroke:none;stroke-width:.529167;stroke-linecap:round;stroke-linejoin:round;stroke-miterlimit:4;stroke-dasharray:none;stroke-dashoffset:0;stroke-opacity:1;color-rendering:auto;image-rendering:auto;shape-rendering:auto;text-rendering:auto;enable-background:accumulate;stop-color:#000" transform="matrix(1.25268 0 0 1.25268 -37.54 -311.94)"/><path d="M46.67 249.9a.81.81 0 0 0-1.1.3l-.44.75a.26.26 0 0 0 .1.36l.93.54a.26.26 0 0 0 .37-.1l.44-.76a.8.8 0 0 0-.3-1.1zM40.86 258.1a.26.26 0 0 0-.27.23l-.16 1.3c-.03.24.1.46.29.57.18.1.44.1.64-.04l1.05-.78a.26.26 0 0 0-.03-.44l-1.4-.81a.26.26 0 0 0-.12-.04z" style="color:#000;font-style:normal;font-variant:normal;font-weight:400;font-stretch:normal;font-size:medium;line-height:normal;font-family:sans-serif;font-variant-ligatures:normal;font-variant-position:normal;font-variant-caps:normal;font-variant-numeric:normal;font-variant-alternates:normal;font-variant-east-asian:normal;font-feature-settings:normal;font-variation-settings:normal;text-indent:0;text-align:start;text-decoration:none;text-decoration-line:none;text-decoration-style:solid;text-decoration-color:#000;letter-spacing:normal;word-spacing:normal;text-transform:none;writing-mode:lr-tb;direction:ltr;text-orientation:mixed;dominant-baseline:auto;baseline-shift:baseline;text-anchor:start;white-space:normal;shape-padding:0;shape-margin:0;inline-size:0;clip-rule:nonzero;display:inline;overflow:visible;visibility:visible;isolation:auto;mix-blend-mode:normal;color-interpolation:sRGB;color-interpolation-filters:linearRGB;solid-color:#000;solid-opacity:1;vector-effect:none;fill:#f5f6e8;fill-opacity:1;fill-rule:nonzero;stroke:none;stroke-width:.529167;stroke-linecap:round;stroke-linejoin:round;stroke-miterlimit:4;stroke-dasharray:none;stroke-dashoffset:0;stroke-opacity:1;color-rendering:auto;image-rendering:auto;shape-rendering:auto;text-rendering:auto;enable-background:accumulate;stop-color:#000" transform="matrix(1.25268 0 0 1.25268 -37.54 -311.94)"/><path d="M40.84 258.1a.26.26 0 0 0-.25.23l-.05.38 1.31.76a.26.26 0 0 1 .14.22l.42-.31a.26.26 0 0 0-.03-.44l-1.4-.81a.26.26 0 0 0-.12-.04.26.26 0 0 0-.02 0z" style="color:#000;font-style:normal;font-variant:normal;font-weight:400;font-stretch:normal;font-size:medium;line-height:normal;font-family:sans-serif;font-variant-ligatures:normal;font-variant-position:normal;font-variant-caps:normal;font-variant-numeric:normal;font-variant-alternates:normal;font-variant-east-asian:normal;font-feature-settings:normal;font-variation-settings:normal;text-indent:0;text-align:start;text-decoration:none;text-decoration-line:none;text-decoration-style:solid;text-decoration-color:#000;letter-spacing:normal;word-spacing:normal;text-transform:none;writing-mode:lr-tb;direction:ltr;text-orientation:mixed;dominant-baseline:auto;baseline-shift:baseline;text-anchor:start;white-space:normal;shape-padding:0;shape-margin:0;inline-size:0;clip-rule:nonzero;display:inline;overflow:visible;visibility:visible;isolation:auto;mix-blend-mode:normal;color-interpolation:sRGB;color-interpolation-filters:linearRGB;solid-color:#000;solid-opacity:1;vector-effect:none;fill:#dddec9;fill-opacity:1;fill-rule:nonzero;stroke:none;stroke-width:.529167;stroke-linecap:round;stroke-linejoin:round;stroke-miterlimit:4;stroke-dasharray:none;stroke-dashoffset:0;stroke-opacity:1;color-rendering:auto;image-rendering:auto;shape-rendering:auto;text-rendering:auto;enable-background:accumulate;stop-color:#000" transform="matrix(1.25268 0 0 1.25268 -37.54 -311.94)"/><path d="M41.94 256.32a.26.26 0 0 0-.2.08l-.04.04c-.44.48-.73.96-.92 1.4-.2.5-.14.97.2 1.19.2.13.41.24.62.35.37.2.82.1 1.07-.23.4-.51.7-1.1.9-1.71l.01-.06a.26.26 0 0 0-.05-.25l-.06-.07a2.42 2.42 0 0 0-1.4-.72l-.08-.02h-.05z" style="color:#000;font-style:normal;font-variant:normal;font-weight:400;font-stretch:normal;font-size:medium;line-height:normal;font-family:sans-serif;font-variant-ligatures:normal;font-variant-position:normal;font-variant-caps:normal;font-variant-numeric:normal;font-variant-alternates:normal;font-variant-east-asian:normal;font-feature-settings:normal;font-variation-settings:normal;text-indent:0;text-align:start;text-decoration:none;text-decoration-line:none;text-decoration-style:solid;text-decoration-color:#000;letter-spacing:normal;word-spacing:normal;text-transform:none;writing-mode:lr-tb;direction:ltr;text-orientation:mixed;dominant-baseline:auto;baseline-shift:baseline;text-anchor:start;white-space:normal;shape-padding:0;shape-margin:0;inline-size:0;clip-rule:nonzero;display:inline;overflow:visible;visibility:visible;isolation:auto;mix-blend-mode:normal;color-interpolation:sRGB;color-interpolation-filters:linearRGB;solid-color:#000;solid-opacity:1;vector-effect:none;fill:#2276bc;fill-opacity:1;fill-rule:nonzero;stroke:none;stroke-width:.529167;stroke-linecap:round;stroke-linejoin:round;stroke-miterlimit:4;stroke-dasharray:none;stroke-dashoffset:0;stroke-opacity:1;color-rendering:auto;image-rendering:auto;shape-rendering:auto;text-rendering:auto;enable-background:accumulate;stop-color:#000" transform="matrix(1.25268 0 0 1.25268 -37.54 -311.94)"/><path d="M43.86 252.85c-.09 0-.1.1-.14.18l-.23.4.06.03 1.33.76c.13.08.17.24.1.36l-1.18 2.05c.12.02.24-.03.3-.13l1.41-2.45a.26.26 0 0 0-.1-.36l-1.4-.8a.26.26 0 0 0-.15-.04zM41.94 256.23c-.08 0-.1.05-.15.1l-.04.05-.34.4h.1l.08.02c.55.12.98.37 1.35.79l.06.06c.06.07.08.17.05.26l-.02.05c-.16.52-.4 1.01-.7 1.46a.83.83 0 0 0 .34-.27c.4-.51.7-1.1.9-1.71l.01-.06a.26.26 0 0 0-.05-.26l-.06-.06c-.37-.42-.86-.7-1.4-.81l-.09-.02a.3.3 0 0 0-.04 0z" style="color:#000;font-style:normal;font-variant:normal;font-weight:400;font-stretch:normal;font-size:medium;line-height:normal;font-family:sans-serif;font-variant-ligatures:normal;font-variant-position:normal;font-variant-caps:normal;font-variant-numeric:normal;font-variant-alternates:normal;font-variant-east-asian:normal;font-feature-settings:normal;font-variation-settings:normal;text-indent:0;text-align:start;text-decoration:none;text-decoration-line:none;text-decoration-style:solid;text-decoration-color:#000;letter-spacing:normal;word-spacing:normal;text-transform:none;writing-mode:lr-tb;direction:ltr;text-orientation:mixed;dominant-baseline:auto;baseline-shift:baseline;text-anchor:start;white-space:normal;shape-padding:0;shape-margin:0;inline-size:0;clip-rule:nonzero;display:inline;overflow:visible;visibility:visible;isolation:auto;mix-blend-mode:normal;color-interpolation:sRGB;color-interpolation-filters:linearRGB;solid-color:#000;solid-opacity:1;vector-effect:none;fill:#1e69a9;fill-opacity:1;fill-rule:nonzero;stroke:none;stroke-width:.529167;stroke-linecap:round;stroke-linejoin:round;stroke-miterlimit:4;stroke-dasharray:none;stroke-dashoffset:0;stroke-opacity:1;color-rendering:auto;image-rendering:auto;shape-rendering:auto;text-rendering:auto;enable-background:accumulate;stop-color:#000" transform="matrix(1.25268 0 0 1.25268 -37.54 -311.94)"/><path d="M42.6 255.32a.26.26 0 0 0-.21.08l-.04.05c-.21.23-.3.33-.37.47l-.18.5c-.05.12 0 .26.1.33l1.3.78c.11.07.26.04.34-.07.18-.23.25-.29.34-.4.08-.13.13-.26.22-.56l.02-.05a.26.26 0 0 0-.06-.26l-.05-.06a2.23 2.23 0 0 0-1.3-.79l-.08-.02h-.04zM45.04 250.87a.26.26 0 0 0-.2.08l-.05.05c-.55.6-.79 1.17-1.03 1.96l-.02.05c-.04.12.01.25.12.31l.82.56.46.27c.11.07.25.04.33-.05a4.84 4.84 0 0 0 1.19-2.03l.02-.05a.26.26 0 0 0-.06-.26l-.05-.06c-.37-.41-.87-.7-1.4-.81l-.1-.02h-.03z" style="color:#000;font-style:normal;font-variant:normal;font-weight:400;font-stretch:normal;font-size:medium;line-height:normal;font-family:sans-serif;font-variant-ligatures:normal;font-variant-position:normal;font-variant-caps:normal;font-variant-numeric:normal;font-variant-alternates:normal;font-variant-east-asian:normal;font-feature-settings:normal;font-variation-settings:normal;text-indent:0;text-align:start;text-decoration:none;text-decoration-line:none;text-decoration-style:solid;text-decoration-color:#000;letter-spacing:normal;word-spacing:normal;text-transform:none;writing-mode:lr-tb;direction:ltr;text-orientation:mixed;dominant-baseline:auto;baseline-shift:baseline;text-anchor:start;white-space:normal;shape-padding:0;shape-margin:0;inline-size:0;clip-rule:nonzero;display:inline;overflow:visible;visibility:visible;isolation:auto;mix-blend-mode:normal;color-interpolation:sRGB;color-interpolation-filters:linearRGB;solid-color:#000;solid-opacity:1;vector-effect:none;fill:#1d5c87;fill-opacity:1;fill-rule:nonzero;stroke:none;stroke-width:.529167;stroke-linecap:round;stroke-linejoin:round;stroke-miterlimit:4;stroke-dasharray:none;stroke-dashoffset:0;stroke-opacity:1;color-rendering:auto;image-rendering:auto;shape-rendering:auto;text-rendering:auto;enable-background:accumulate;stop-color:#000" transform="matrix(1.25268 0 0 1.25268 -37.54 -311.94)"/><path d="M38.14 260.01a.26.26 0 0 0-.27.27c0 .14.07.12.21.12l1.49.01c.14 0 .2-.03.2-.18a.26.26 0 0 0-.27-.26zM36.5 259.98a.26.26 0 0 0-.27.27c0 .14.06.18.2.18h.54c.14 0 .26-.11.26-.26 0-.15-.14-.18-.29-.18zM34.99 259.96c-.15 0-.26.06-.26.21s.11.26.26.26h.38c.15 0 .27-.11.27-.26 0-.15-.12-.2-.27-.21zM35.03 261.08c-.15 0-.27.1-.27.24 0 .14-.04.12.1.12l2.08.06c.14 0 .14-.06.14-.21a.26.26 0 0 0-.27-.26zm3.16-.1a.26.26 0 0 0-.26.27c0 .15-.05.25.1.25h2.65c.14 0 .18-.12.18-.26 0-.15-.05-.2-.2-.2zM34.92 262.1c-.14 0-.26.05-.26.2 0 .14.11.26.26.26h4.17c.14 0 .26-.12.26-.27 0-.14-.14-.21-.28-.21zM40.15 262.03a.26.26 0 0 0-.27.26.26.26 0 0 0 .27.27h.53a.26.26 0 0 0 .26-.27.26.26 0 0 0-.26-.26z" style="color:#000;font-style:normal;font-variant:normal;font-weight:400;font-stretch:normal;font-size:medium;line-height:normal;font-family:sans-serif;font-variant-ligatures:normal;font-variant-position:normal;font-variant-caps:normal;font-variant-numeric:normal;font-variant-alternates:normal;font-variant-east-asian:normal;font-feature-settings:normal;font-variation-settings:normal;text-indent:0;text-align:start;text-decoration:none;text-decoration-line:none;text-decoration-style:solid;text-decoration-color:#000;letter-spacing:normal;word-spacing:normal;text-transform:none;writing-mode:lr-tb;direction:ltr;text-orientation:mixed;dominant-baseline:auto;baseline-shift:baseline;text-anchor:start;white-space:normal;shape-padding:0;shape-margin:0;inline-size:0;clip-rule:nonzero;display:inline;overflow:visible;visibility:visible;opacity:1;isolation:auto;mix-blend-mode:normal;color-interpolation:sRGB;color-interpolation-filters:linearRGB;solid-color:#000;solid-opacity:1;vector-effect:none;fill:#5b6571;fill-opacity:1;fill-rule:nonzero;stroke:none;stroke-width:.529167;stroke-linecap:round;stroke-linejoin:round;stroke-miterlimit:4;stroke-dasharray:none;stroke-dashoffset:0;stroke-opacity:1;color-rendering:auto;image-rendering:auto;shape-rendering:auto;text-rendering:auto;enable-background:accumulate;stop-color:#000;stop-opacity:1" transform="matrix(1.25268 0 0 1.25268 -37.54 -311.94)"/><path d="M36.45 251.08c-.95 0-1.73.8-1.73 1.76 0 .97.78 1.76 1.73 1.76.96 0 1.74-.79 1.74-1.76s-.78-1.76-1.74-1.76z" style="color:#000;font-style:normal;font-variant:normal;font-weight:400;font-stretch:normal;font-size:medium;line-height:normal;font-family:sans-serif;font-variant-ligatures:normal;font-variant-position:normal;font-variant-caps:normal;font-variant-numeric:normal;font-variant-alternates:normal;font-variant-east-asian:normal;font-feature-settings:normal;font-variation-settings:normal;text-indent:0;text-align:start;text-decoration:none;text-decoration-line:none;text-decoration-style:solid;text-decoration-color:#000;letter-spacing:normal;word-spacing:normal;text-transform:none;writing-mode:lr-tb;direction:ltr;text-orientation:mixed;dominant-baseline:auto;baseline-shift:baseline;text-anchor:start;white-space:normal;shape-padding:0;shape-margin:0;inline-size:0;clip-rule:nonzero;display:inline;overflow:visible;visibility:visible;opacity:1;isolation:auto;mix-blend-mode:normal;color-interpolation:sRGB;color-interpolation-filters:linearRGB;solid-color:#000;solid-opacity:1;vector-effect:none;fill:#7cad39;fill-opacity:1;fill-rule:nonzero;stroke:none;stroke-width:.498317;stroke-linecap:round;stroke-linejoin:round;stroke-miterlimit:4;stroke-dasharray:none;stroke-dashoffset:0;stroke-opacity:1;color-rendering:auto;image-rendering:auto;shape-rendering:auto;text-rendering:auto;enable-background:accumulate;stop-color:#000;stop-opacity:1" transform="matrix(1.25268 0 0 1.25268 -37.54 -311.94)"/><path d="M39.06 250.97c-.05 0-.1.03-.14.06l-2.37 1.94-.39-.38c-.08-.12-.18-.29-.3-.2a.26.26 0 0 0-.08.36l.43.67c.1.13.27.16.4.06l2.64-2.12c.12-.09.13-.17.04-.29a.26.26 0 0 0-.23-.1z" style="color:#000;font-style:normal;font-variant:normal;font-weight:400;font-stretch:normal;font-size:medium;line-height:normal;font-family:sans-serif;font-variant-ligatures:normal;font-variant-position:normal;font-variant-caps:normal;font-variant-numeric:normal;font-variant-alternates:normal;font-variant-east-asian:normal;font-feature-settings:normal;font-variation-settings:normal;text-indent:0;text-align:start;text-decoration:none;text-decoration-line:none;text-decoration-style:solid;text-decoration-color:#000;letter-spacing:normal;word-spacing:normal;text-transform:none;writing-mode:lr-tb;direction:ltr;text-orientation:mixed;dominant-baseline:auto;baseline-shift:baseline;text-anchor:start;white-space:normal;shape-padding:0;shape-margin:0;inline-size:0;clip-rule:nonzero;display:inline;overflow:visible;visibility:visible;opacity:1;isolation:auto;mix-blend-mode:normal;color-interpolation:sRGB;color-interpolation-filters:linearRGB;solid-color:#000;solid-opacity:1;vector-effect:none;fill:#2276bc;fill-opacity:1;fill-rule:nonzero;stroke:none;stroke-width:.529167;stroke-linecap:round;stroke-linejoin:round;stroke-miterlimit:4;stroke-dasharray:none;stroke-dashoffset:0;stroke-opacity:1;color-rendering:auto;image-rendering:auto;shape-rendering:auto;text-rendering:auto;enable-background:accumulate;stop-color:#000;stop-opacity:1" transform="matrix(1.25268 0 0 1.25268 -37.54 -311.94)"/><path d="M38.17 256.77a.26.26 0 0 0-.27.26c0 .15-.02.22.13.22h1.59c.14 0 .18-.02.18-.16a.26.26 0 0 0-.26-.27zM36.5 256.8a.26.26 0 0 0-.27.26c0 .15.06.2.2.2h.54c.14 0 .16-.08.16-.23a.26.26 0 0 0-.27-.26zM34.9 256.8a.26.26 0 0 0-.26.26c0 .15.06.2.2.2h.53c.15 0 .16-.08.17-.23a.26.26 0 0 0-.27-.26z" style="color:#000;font-style:normal;font-variant:normal;font-weight:400;font-stretch:normal;font-size:medium;line-height:normal;font-family:sans-serif;font-variant-ligatures:normal;font-variant-position:normal;font-variant-caps:normal;font-variant-numeric:normal;font-variant-alternates:normal;font-variant-east-asian:normal;font-feature-settings:normal;font-variation-settings:normal;text-indent:0;text-align:start;text-decoration:none;text-decoration-line:none;text-decoration-style:solid;text-decoration-color:#000;letter-spacing:normal;word-spacing:normal;text-transform:none;writing-mode:lr-tb;direction:ltr;text-orientation:mixed;dominant-baseline:auto;baseline-shift:baseline;text-anchor:start;white-space:normal;shape-padding:0;shape-margin:0;inline-size:0;clip-rule:nonzero;display:inline;overflow:visible;visibility:visible;opacity:1;isolation:auto;mix-blend-mode:normal;color-interpolation:sRGB;color-interpolation-filters:linearRGB;solid-color:#000;solid-opacity:1;vector-effect:none;fill:#5b6571;fill-opacity:1;fill-rule:nonzero;stroke:none;stroke-width:.529167;stroke-linecap:round;stroke-linejoin:round;stroke-miterlimit:4;stroke-dasharray:none;stroke-dashoffset:0;stroke-opacity:1;color-rendering:auto;image-rendering:auto;shape-rendering:auto;text-rendering:auto;enable-background:accumulate;stop-color:#000;stop-opacity:1" transform="matrix(1.25268 0 0 1.25268 -37.54 -311.94)"/><path d="M34.96 257.87c-.14 0-.25.1-.25.22s.1.22.25.22h1.97c.14 0 .25-.1.25-.22s-.11-.22-.25-.22zm3.15 0c-.14 0-.25.1-.25.22s.11.22.25.22h1.1c.14 0 .25-.1.25-.22s-.11-.22-.25-.22z" style="color:#000;font-style:normal;font-variant:normal;font-weight:400;font-stretch:normal;font-size:medium;line-height:normal;font-family:sans-serif;font-variant-ligatures:normal;font-variant-position:normal;font-variant-caps:normal;font-variant-numeric:normal;font-variant-alternates:normal;font-variant-east-asian:normal;font-feature-settings:normal;font-variation-settings:normal;text-indent:0;text-align:start;text-decoration:none;text-decoration-line:none;text-decoration-style:solid;text-decoration-color:#000;letter-spacing:normal;word-spacing:normal;text-transform:none;writing-mode:lr-tb;direction:ltr;text-orientation:mixed;dominant-baseline:auto;baseline-shift:baseline;text-anchor:start;white-space:normal;shape-padding:0;shape-margin:0;inline-size:0;clip-rule:nonzero;display:inline;overflow:visible;visibility:visible;opacity:1;isolation:auto;mix-blend-mode:normal;color-interpolation:sRGB;color-interpolation-filters:linearRGB;solid-color:#000;solid-opacity:1;vector-effect:none;fill:#5b6571;fill-opacity:1;fill-rule:nonzero;stroke:none;stroke-width:.471907;stroke-linecap:round;stroke-linejoin:round;stroke-miterlimit:4;stroke-dasharray:none;stroke-dashoffset:0;stroke-opacity:1;color-rendering:auto;image-rendering:auto;shape-rendering:auto;text-rendering:auto;enable-background:accumulate;stop-color:#000;stop-opacity:1" transform="matrix(1.25268 0 0 1.25268 -37.54 -311.94)"/><path d="M34.95 258.92c-.14 0-.26.04-.26.19 0 .14.12.26.26.26h3.83c.15 0 .27-.03.27-.18 0-.14.18-.26.04-.26zM35.15 255.73a.26.26 0 0 0-.27.26c0 .15-.18.2-.04.2h6.1c.15 0 .16-.04.16-.19a.26.26 0 0 0-.26-.27z" style="color:#000;font-style:normal;font-variant:normal;font-weight:400;font-stretch:normal;font-size:medium;line-height:normal;font-family:sans-serif;font-variant-ligatures:normal;font-variant-position:normal;font-variant-caps:normal;font-variant-numeric:normal;font-variant-alternates:normal;font-variant-east-asian:normal;font-feature-settings:normal;font-variation-settings:normal;text-indent:0;text-align:start;text-decoration:none;text-decoration-line:none;text-decoration-style:solid;text-decoration-color:#000;letter-spacing:normal;word-spacing:normal;text-transform:none;writing-mode:lr-tb;direction:ltr;text-orientation:mixed;dominant-baseline:auto;baseline-shift:baseline;text-anchor:start;white-space:normal;shape-padding:0;shape-margin:0;inline-size:0;clip-rule:nonzero;display:inline;overflow:visible;visibility:visible;opacity:1;isolation:auto;mix-blend-mode:normal;color-interpolation:sRGB;color-interpolation-filters:linearRGB;solid-color:#000;solid-opacity:1;vector-effect:none;fill:#5b6571;fill-opacity:1;fill-rule:nonzero;stroke:none;stroke-width:.529167;stroke-linecap:round;stroke-linejoin:round;stroke-miterlimit:4;stroke-dasharray:none;stroke-dashoffset:0;stroke-opacity:1;color-rendering:auto;image-rendering:auto;shape-rendering:auto;text-rendering:auto;enable-background:accumulate;stop-color:#000;stop-opacity:1" transform="matrix(1.25268 0 0 1.25268 -37.54 -311.94)"/><path d="M39.62 251.95a.26.26 0 0 0-.27.27.26.26 0 0 0 .27.26.26.26 0 0 0 .26-.26.26.26 0 0 0-.26-.27zM40.68 251.95a.26.26 0 0 0-.27.27.26.26 0 0 0 .27.26.26.26 0 0 0 .26-.26.26.26 0 0 0-.26-.27z" style="color:#000;font-style:normal;font-variant:normal;font-weight:400;font-stretch:normal;font-size:medium;line-height:normal;font-family:sans-serif;font-variant-ligatures:normal;font-variant-position:normal;font-variant-caps:normal;font-variant-numeric:normal;font-variant-alternates:normal;font-variant-east-asian:normal;font-feature-settings:normal;font-variation-settings:normal;text-indent:0;text-align:start;text-decoration:none;text-decoration-line:none;text-decoration-style:solid;text-decoration-color:#000;letter-spacing:normal;word-spacing:normal;text-transform:none;writing-mode:lr-tb;direction:ltr;text-orientation:mixed;dominant-baseline:auto;baseline-shift:baseline;text-anchor:start;white-space:normal;shape-padding:0;shape-margin:0;inline-size:0;clip-rule:nonzero;display:inline;overflow:visible;visibility:visible;isolation:auto;mix-blend-mode:normal;color-interpolation:sRGB;color-interpolation-filters:linearRGB;solid-color:#000;solid-opacity:1;vector-effect:none;fill:#000;fill-opacity:1;fill-rule:nonzero;stroke:none;stroke-width:.529167;stroke-linecap:round;stroke-linejoin:round;stroke-miterlimit:4;stroke-dasharray:none;stroke-dashoffset:0;stroke-opacity:1;color-rendering:auto;image-rendering:auto;shape-rendering:auto;text-rendering:auto;enable-background:accumulate;stop-color:#000" transform="matrix(1.25268 0 0 1.25268 -37.54 -311.94)"/><g stroke="none" style="stroke:#5b6571;stroke-width:.528048;stroke-miterlimit:4;stroke-dasharray:none;stroke-opacity:1"><path d="M9 282.45a.26.26 0 0 0-.27.26.26.26 0 0 0 .27.27.26.26 0 0 0 .26-.27.26.26 0 0 0-.26-.26zM10.05 282.45a.26.26 0 0 0-.26.26.26.26 0 0 0 .26.27.26.26 0 0 0 .27-.27.26.26 0 0 0-.27-.26z" style="color:#000;font-style:normal;font-variant:normal;font-weight:400;font-stretch:normal;font-size:medium;line-height:normal;font-family:sans-serif;font-variant-ligatures:normal;font-variant-position:normal;font-variant-caps:normal;font-variant-numeric:normal;font-variant-alternates:normal;font-variant-east-asian:normal;font-feature-settings:normal;font-variation-settings:normal;text-indent:0;text-align:start;text-decoration:none;text-decoration-line:none;text-decoration-style:solid;text-decoration-color:#000;letter-spacing:normal;word-spacing:normal;text-transform:none;writing-mode:lr-tb;direction:ltr;text-orientation:mixed;dominant-baseline:auto;baseline-shift:baseline;text-anchor:start;white-space:normal;shape-padding:0;shape-margin:0;inline-size:0;clip-rule:nonzero;display:inline;overflow:visible;visibility:visible;opacity:1;isolation:auto;mix-blend-mode:normal;color-interpolation:sRGB;color-interpolation-filters:linearRGB;solid-color:#000;solid-opacity:1;vector-effect:none;fill:#000;fill-opacity:1;fill-rule:nonzero;stroke:none;stroke-width:.528048;stroke-linecap:round;stroke-linejoin:round;stroke-miterlimit:4;stroke-dasharray:none;stroke-dashoffset:0;stroke-opacity:1;color-rendering:auto;image-rendering:auto;shape-rendering:auto;text-rendering:auto;enable-background:accumulate;stop-color:#000;stop-opacity:1" transform="translate(3.45 -350.9) scale(1.25533)"/></g><path d="M39.42 253.07a.26.26 0 0 0-.26.26c0 .15.05.21.2.21h.52c.15 0 .2-.07.2-.21a.26.26 0 0 0-.26-.27zM41.02 253.08a.26.26 0 0 0-.26.26c0 .15.04.2.18.2h1.86c.15 0 .26-.06.25-.21a.26.26 0 0 0-.26-.26z" style="color:#000;font-style:normal;font-variant:normal;font-weight:400;font-stretch:normal;font-size:medium;line-height:normal;font-family:sans-serif;font-variant-ligatures:normal;font-variant-position:normal;font-variant-caps:normal;font-variant-numeric:normal;font-variant-alternates:normal;font-variant-east-asian:normal;font-feature-settings:normal;font-variation-settings:normal;text-indent:0;text-align:start;text-decoration:none;text-decoration-line:none;text-decoration-style:solid;text-decoration-color:#000;letter-spacing:normal;word-spacing:normal;text-transform:none;writing-mode:lr-tb;direction:ltr;text-orientation:mixed;dominant-baseline:auto;baseline-shift:baseline;text-anchor:start;white-space:normal;shape-padding:0;shape-margin:0;inline-size:0;clip-rule:nonzero;display:inline;overflow:visible;visibility:visible;opacity:1;isolation:auto;mix-blend-mode:normal;color-interpolation:sRGB;color-interpolation-filters:linearRGB;solid-color:#000;solid-opacity:1;vector-effect:none;fill:#5b6571;fill-opacity:1;fill-rule:nonzero;stroke:none;stroke-width:.529167;stroke-linecap:round;stroke-linejoin:round;stroke-miterlimit:4;stroke-dasharray:none;stroke-dashoffset:0;stroke-opacity:1;color-rendering:auto;image-rendering:auto;shape-rendering:auto;text-rendering:auto;enable-background:accumulate;stop-color:#000;stop-opacity:1" transform="matrix(1.25268 0 0 1.25268 -37.54 -311.94)"/><path d="M42.11 261.58a.26.26 0 0 0-.26.26l-.11 2.57c0 .24.28.36.45.2l2.7-2.66a.26.26 0 0 0 .06-.1.31.31 0 0 0 .01-.05v-.01a.26.26 0 0 0 0-.03v-.08a.26.26 0 0 0-.03-.05.27.27 0 0 0-.02-.03v-.01l-.02-.01v-.01l-.03-.02a.25.25 0 0 0-.12-.05h-.04z" style="color:#000;font-style:normal;font-variant:normal;font-weight:400;font-stretch:normal;font-size:medium;line-height:normal;font-family:sans-serif;font-variant-ligatures:normal;font-variant-position:normal;font-variant-caps:normal;font-variant-numeric:normal;font-variant-alternates:normal;font-variant-east-asian:normal;font-feature-settings:normal;font-variation-settings:normal;text-indent:0;text-align:start;text-decoration:none;text-decoration-line:none;text-decoration-style:solid;text-decoration-color:#000;letter-spacing:normal;word-spacing:normal;text-transform:none;writing-mode:lr-tb;direction:ltr;text-orientation:mixed;dominant-baseline:auto;baseline-shift:baseline;text-anchor:start;white-space:normal;shape-padding:0;shape-margin:0;inline-size:0;clip-rule:nonzero;display:inline;overflow:visible;visibility:visible;isolation:auto;mix-blend-mode:normal;color-interpolation:sRGB;color-interpolation-filters:linearRGB;solid-color:#000;solid-opacity:1;vector-effect:none;fill:#e5b32e;fill-opacity:1;fill-rule:evenodd;stroke:none;stroke-width:.529167;stroke-linecap:round;stroke-linejoin:round;stroke-miterlimit:4;stroke-dasharray:none;stroke-dashoffset:0;stroke-opacity:1;color-rendering:auto;image-rendering:auto;shape-rendering:auto;text-rendering:auto;enable-background:accumulate;stop-color:#000" transform="matrix(1.25268 0 0 1.25268 -37.54 -311.94)"/><g style="fill:#2673a6;fill-opacity:1"><path d="M41.74 253.7a.26.26 0 1 0 0 .52l1 .07a.26.26 0 1 0 0-.53z" style="color:#000;font-style:normal;font-variant:normal;font-weight:400;font-stretch:normal;font-size:medium;line-height:normal;font-family:sans-serif;font-variant-ligatures:normal;font-variant-position:normal;font-variant-caps:normal;font-variant-numeric:normal;font-variant-alternates:normal;font-variant-east-asian:normal;font-feature-settings:normal;font-variation-settings:normal;text-indent:0;text-align:start;text-decoration:none;text-decoration-line:none;text-decoration-style:solid;text-decoration-color:#000;letter-spacing:normal;word-spacing:normal;text-transform:none;writing-mode:lr-tb;direction:ltr;text-orientation:mixed;dominant-baseline:auto;baseline-shift:baseline;text-anchor:start;white-space:normal;shape-padding:0;shape-margin:0;inline-size:0;clip-rule:nonzero;display:inline;overflow:visible;visibility:visible;opacity:1;isolation:auto;mix-blend-mode:normal;color-interpolation:sRGB;color-interpolation-filters:linearRGB;solid-color:#000;solid-opacity:1;vector-effect:none;fill:#2673a6;fill-opacity:1;fill-rule:nonzero;stroke:none;stroke-width:.529167;stroke-linecap:round;stroke-linejoin:round;stroke-miterlimit:4;stroke-dasharray:none;stroke-dashoffset:0;stroke-opacity:1;color-rendering:auto;image-rendering:auto;shape-rendering:auto;text-rendering:auto;enable-background:accumulate;stop-color:#000;stop-opacity:1" transform="scale(1.25268) rotate(-60 -189.07 152.02)"/><path d="M41 253.66a.26.26 0 0 0-.26.27.26.26 0 0 0 .27.26.26.26 0 0 0 .26-.26.26.26 0 0 0-.26-.27z" style="color:#000;font-style:normal;font-variant:normal;font-weight:400;font-stretch:normal;font-size:medium;line-height:normal;font-family:sans-serif;font-variant-ligatures:normal;font-variant-position:normal;font-variant-caps:normal;font-variant-numeric:normal;font-variant-alternates:normal;font-variant-east-asian:normal;font-feature-settings:normal;font-variation-settings:normal;text-indent:0;text-align:start;text-decoration:none;text-decoration-line:none;text-decoration-style:solid;text-decoration-color:#000;letter-spacing:normal;word-spacing:normal;text-transform:none;writing-mode:lr-tb;direction:ltr;text-orientation:mixed;dominant-baseline:auto;baseline-shift:baseline;text-anchor:start;white-space:normal;shape-padding:0;shape-margin:0;inline-size:0;clip-rule:nonzero;display:inline;overflow:visible;visibility:visible;isolation:auto;mix-blend-mode:normal;color-interpolation:sRGB;color-interpolation-filters:linearRGB;solid-color:#000;solid-opacity:1;vector-effect:none;fill:#2673a6;fill-opacity:1;fill-rule:nonzero;stroke:none;stroke-width:.529167;stroke-linecap:round;stroke-linejoin:round;stroke-miterlimit:4;stroke-dasharray:none;stroke-dashoffset:0;stroke-opacity:1;color-rendering:auto;image-rendering:auto;shape-rendering:auto;text-rendering:auto;enable-background:accumulate;stop-color:#000" transform="scale(1.25268) rotate(-60 -189.07 152.02)"/></g><path d="M45.23 250.8c-.1-.05-.2-.04-.28.02a1.12 1.12 0 0 0-1.1-.96H33.6c-.61 0-1.12.5-1.12 1.12v.47h-.47c-.61 0-1.11.5-1.11 1.12v12.58c0 .61.5 1.12 1.11 1.12h10.35c.56 0 1.02-.46 1.02-1.02v-1.81l1.49-1.46c.06-.07.1-.1.1-.19v-6.78l.53-.9a5.72 5.72 0 0 0 1.24-2.17.26.26 0 0 0-.06-.26l-.06-.07.34-.6a.8.8 0 0 0-.3-1.08c-.47-.22-.88-.05-1.1.3zm1.07-.44c.03 0 .07.01.1.03.14.08.18.23.1.36l-.28.5c-.15-.11-.3-.2-.47-.28l.27-.47c.06-.1.17-.15.28-.14zm-2.45.03c.33 0 .59.26.59.6v.43c-.35.54-.64 1.1-.8 1.62l-1.39 2.39-.01.01c-.22.23-.3.34-.37.48-.05.12-.07.22-.17.45a5.57 5.57 0 0 0-1.04 1.63c-.05.12-.05.24-.07.34l-.15 1.3c-.03.24.1.47.29.57.18.11.44.11.64-.03l1.04-.79c.11-.06.2-.15.27-.22.38-.57.71-1.17.89-1.72.15-.2.23-.26.3-.38.13-.22.18-.38.24-.57l.33-.57v5.58h-2.43a.26.26 0 0 0-.27.26v2.38H33.5a.48.48 0 0 1-.49-.49v-1.18a.67.67 0 0 1 .38 0c.13.05.15.13.15.08a.26.26 0 0 0 .53 0c0-.3-.24-.49-.5-.58-.21-.06-.37-.05-.56-.03v-1.06c.16-.05.3-.05.4-.03.12.04.13.06.13.12a.26.26 0 0 0 .53 0c0-.31-.25-.55-.53-.63-.17-.05-.36-.03-.53 0v-1.05c.16-.05.3-.05.4-.02.12.03.13.05.13.1a.26.26 0 0 0 .53 0c0-.3-.25-.54-.53-.62-.17-.05-.36-.02-.53 0v-1.04c.16-.05.3-.06.4-.03.12.03.13.06.13.11a.26.26 0 1 0 .53 0c0-.3-.25-.55-.53-.62-.17-.06-.36-.03-.53-.01v-1.04c.16-.05.3-.06.4-.03.12.03.13.06.13.11a.26.26 0 1 0 .53 0c0-.3-.25-.55-.53-.62-.17-.05-.36-.03-.53 0v-1.05c.16-.05.3-.05.4-.03.12.04.13.06.13.12a.26.26 0 1 0 .53 0c0-.32-.25-.55-.53-.63-.17-.05-.36-.03-.53 0v-1.05c.16-.05.3-.05.4-.02.12.03.13.05.13.1a.26.26 0 0 0 .53 0c0-.3-.25-.54-.53-.62-.17-.05-.36-.02-.53 0v-1.04c.16-.05.3-.06.4-.03.12.03.13.06.13.11a.26.26 0 0 0 .53 0c0-.3-.25-.55-.53-.62-.16-.05-.34-.03-.5-.02.07-.24.3-.42.43-.42zm-4.92.6-.94.75a1.85 1.85 0 1 0 .23.49l1.04-.84c.12-.09.14-.25.04-.37a.3.3 0 0 0-.37-.04zm6.26.37c.37.1.71.29.98.57-.26.66-.54 1.2-.95 1.68-.33-.2-.67-.38-1-.57.22-.62.54-1.19.97-1.68zm-8.74.1c.48 0 .89.24 1.12.61l-1.06.85-.37-.56a.26.26 0 1 0-.44.3l.53.79c.09.13.27.16.39.06l1.14-.92.02.18a1.32 1.32 0 1 1-2.65 0c0-.73.59-1.32 1.32-1.32zm-4.44.52h.47v11.68c0 .56.46 1.02 1.02 1.02h8.48c.11 0 .15-.01.22-.08l.65-.64v1.29c0 .27-.21.49-.49.49H32.01a.58.58 0 0 1-.58-.59v-12.58c0-.33.26-.59.58-.59zm7.35 1.06a.26.26 0 0 0 0 .53h.53a.26.26 0 0 0 0-.53zm1.6 0a.26.26 0 1 0 0 .53h1.84a.26.26 0 1 0 0-.53zm3.01.46.94.55-1.1 1.9c-.27-.24-.59-.43-.94-.54zm-9.1 2.18a.26.26 0 0 0 0 .53h6.08a.26.26 0 0 0 0-.53zm7.69.2c.38.1.73.3 1 .59l-.11.3-.14.15c-.29-.28-.64-.48-1.02-.6l.07-.19c.01-.03.1-.13.2-.24zm-7.7.86a.26.26 0 0 0 0 .53h.53a.26.26 0 0 0 0-.53zm1.6 0a.26.26 0 1 0 0 .53h.52a.26.26 0 0 0 0-.53zm1.58 0a.26.26 0 1 0 0 .53h1.59a.26.26 0 1 0 0-.53zm3.99.09c.37.09.71.28.98.56a5.05 5.05 0 0 1-.76 1.46c-.06.08-.3.13-.4.08a7.3 7.3 0 0 1-.57-.33c-.1-.07-.17-.3-.13-.4.2-.5.52-.96.88-1.37zm-7.16.97a.26.26 0 0 0 0 .53h2.08a.26.26 0 1 0 0-.53zm3.17 0a.26.26 0 1 0 0 .53h1.32a.26.26 0 0 0 0-.53zm-3.17 1.06a.26.26 0 0 0 0 .53h4.23a.26.26 0 0 0 0-.53zm6.17.21.52.3-.5.38c-.04.02-.05.02-.07 0-.02 0-.03-.01-.02-.05zm-6.18.85a.26.26 0 0 0 0 .53h.53a.26.26 0 1 0 0-.53zm1.6 0a.26.26 0 0 0 0 .53h.52a.26.26 0 1 0 0-.53zm1.58 0a.26.26 0 0 0 0 .53h1.59a.26.26 0 0 0 0-.53zm-3.18 1.06a.26.26 0 0 0 0 .52h2.1a.26.26 0 0 0 0-.52zm3.18 0a.26.26 0 0 0 0 .52h2.65a.26.26 0 0 0 0-.52zm-3.18 1.05a.26.26 0 0 0 0 .53h4.24a.26.26 0 0 0 0-.53zm5.3 0a.26.26 0 1 0 0 .53h.53a.26.26 0 0 0 0-.53zm2.11 0h1.79l-1.13 1.1-.66.65z" style="color:#000;font-style:normal;font-variant:normal;font-weight:400;font-stretch:normal;font-size:medium;line-height:normal;font-family:sans-serif;font-variant-ligatures:normal;font-variant-position:normal;font-variant-caps:normal;font-variant-numeric:normal;font-variant-alternates:normal;font-variant-east-asian:normal;font-feature-settings:normal;font-variation-settings:normal;text-indent:0;text-align:start;text-decoration:none;text-decoration-line:none;text-decoration-style:solid;text-decoration-color:#000;letter-spacing:normal;word-spacing:normal;text-transform:none;writing-mode:lr-tb;direction:ltr;text-orientation:mixed;dominant-baseline:auto;baseline-shift:baseline;text-anchor:start;white-space:normal;shape-padding:0;shape-margin:0;inline-size:0;clip-rule:nonzero;display:inline;overflow:visible;visibility:visible;opacity:1;isolation:auto;mix-blend-mode:normal;color-interpolation:sRGB;color-interpolation-filters:linearRGB;solid-color:#000;solid-opacity:1;vector-effect:none;fill:#000;fill-opacity:1;fill-rule:evenodd;stroke:none;stroke-width:.529167;stroke-linecap:round;stroke-linejoin:round;stroke-miterlimit:4;stroke-dasharray:none;stroke-dashoffset:0;stroke-opacity:1;color-rendering:auto;image-rendering:auto;shape-rendering:auto;text-rendering:auto;enable-background:accumulate;stop-color:#000;stop-opacity:1" transform="matrix(1.25268 0 0 1.25268 -37.54 -311.94)"/></g></svg>
