<svg xmlns="http://www.w3.org/2000/svg" id="Layer_1" data-name="Layer 1" viewBox="0 0 50 50"><defs><style>.cls-1{fill:#231f20}.cls-3{fill:#fff}.cls-4{fill:#7cc05b}.cls-5{fill:#ff8e5a}</style></defs><path d="M43 8.28h-2.45V7a2.5 2.5 0 0 0-2.5-2.5H37A2.5 2.5 0 0 0 34.5 7v1.28h-19V7A2.5 2.5 0 0 0 13 4.5h-1.05A2.5 2.5 0 0 0 9.45 7v1.28H7a2.5 2.5 0 0 0-2.5 2.5V43A2.5 2.5 0 0 0 7 45.5h36a2.5 2.5 0 0 0 2.5-2.5V10.78a2.5 2.5 0 0 0-2.5-2.5Z" class="cls-1"/><path d="M30.03 15.56a14.47 14.47 0 1 1-14.47 14.47 14.49 14.49 0 0 1 14.47-14.47Z" style="fill:#ffba50"/><path d="M30 41.83a11.8 11.8 0 1 0-11.8-11.8A11.82 11.82 0 0 0 30 41.83Z" class="cls-1"/><path d="M30 19.23a10.8 10.8 0 1 1-10.8 10.8A10.81 10.81 0 0 1 30 19.23Z" class="cls-3"/><path d="M7 44.5A1.5 1.5 0 0 1 5.5 43V15.47h19.35a15.45 15.45 0 0 0-.24 29.03ZM44.5 43a1.5 1.5 0 0 1-1.5 1.5h-7.55a15.53 15.53 0 0 0 9.05-9.05Z" class="cls-3"/><path d="M10.32 19.84a2.41 2.41 0 1 0 2.4 2.41 2.41 2.41 0 0 0-2.4-2.4Z" class="cls-1"/><path d="M10.32 23.66a1.41 1.41 0 1 1 1.4-1.4 1.41 1.41 0 0 1-1.4 1.4Z" class="cls-4"/><path d="M10.32 27.62a2.41 2.41 0 1 0 2.4 2.4 2.41 2.41 0 0 0-2.4-2.4Z" class="cls-1"/><path d="M10.32 31.44a1.41 1.41 0 1 1 1.4-1.41 1.41 1.41 0 0 1-1.4 1.4Z" class="cls-4"/><circle cx="10.32" cy="37.81" r="2.41" class="cls-1"/><circle cx="10.32" cy="37.81" r="1.41" class="cls-4"/><rect width="4.04" height="6.45" x="35.5" y="5.5" class="cls-5" rx="1.5"/><rect width="4.04" height="6.45" x="10.45" y="5.5" class="cls-5" rx="1.5"/><path d="M5.5 10.78A1.5 1.5 0 0 1 7 9.28h2.45v1.17a2.5 2.5 0 0 0 2.5 2.5H13a2.5 2.5 0 0 0 2.5-2.5V9.28h19v1.17a2.5 2.5 0 0 0 2.5 2.5h1.04a2.5 2.5 0 0 0 2.5-2.5V9.28H43a1.5 1.5 0 0 1 1.5 1.5v3.69h-39Z" style="fill:#d12200"/><path d="M35.2 15.47h9.3v9.14a15.53 15.53 0 0 0-9.3-9.14Z" class="cls-3"/><path d="M30.03 36.68a.5.5 0 0 0-.5.5v1.63a.5.5 0 0 0 1 0v-1.63a.5.5 0 0 0-.5-.5ZM21.32 30.53h1.63a.5.5 0 1 0 0-1h-1.63a.5.5 0 0 0 0 1ZM34 35.98a.5.5 0 0 0-.86.5l.8 1.41a.5.5 0 0 0 .87-.5ZM26.05 24.22a.5.5 0 0 0 .44.25.5.5 0 0 0 .25-.07.5.5 0 0 0 .18-.68l-.81-1.41a.5.5 0 1 0-.87.5ZM23.6 33.15l-1.4.81a.5.5 0 1 0 .5.86l1.4-.8a.5.5 0 1 0-.5-.87ZM36.13 27a.5.5 0 0 0 .25-.07l1.4-.81a.5.5 0 1 0-.5-.87l-1.4.82a.5.5 0 0 0 .25.93ZM37.81 34l-1.4-.81a.5.5 0 0 0-.5.86l1.4.82a.5.5 0 1 0 .5-.87ZM22.23 26.16l1.41.81a.5.5 0 0 0 .5-.86l-1.4-.81a.5.5 0 0 0-.5.87ZM25.36 38.02a.5.5 0 0 0 .68-.18l.81-1.4a.5.5 0 0 0-.86-.5l-.81 1.4a.5.5 0 0 0 .18.68ZM33.25 24.35a.5.5 0 0 0 .69-.19l.8-1.4a.5.5 0 1 0-.86-.5l-.81 1.4a.5.5 0 0 0 .18.69Z" class="cls-1"/><path d="M30.03 32.28a2.25 2.25 0 0 0 2.19-1.75h6.1a.5.5 0 0 0 0-1h-6.1a2.25 2.25 0 0 0-1.72-1.7v-6.4a.5.5 0 0 0-1 0v6.42a2.25 2.25 0 0 0 .53 4.43Zm0-3.5a1.25 1.25 0 1 1-1.25 1.24 1.25 1.25 0 0 1 1.25-1.24Z" class="cls-1"/></svg>