<svg xmlns="http://www.w3.org/2000/svg" version="1.0" viewBox="0 0 300 300"><path d="M242.5 50.4c-8.4 2.7-14.7 7.1-19.6 14-1.8 2.4-2.6 4.3-2 5 1.3 1.7-1.3 10.3-3.9 13.1-1.3 1.4-3.1 2.5-4.1 2.5-1 0-7.3-1.3-14-3-20.5-5-38.7-7.1-51-6-5.7.5-13.1 1.7-16.4 2.6-3.3.8-11.6 2.6-18.5 3.9-6.9 1.3-14.7 2.9-17.3 3.6-7.4 1.8-15.5 9.2-23.4 21.2-3.7 5.6-7.8 11.5-9.2 13-1.4 1.6-7.1 5-12.6 7.6-9.9 4.7-12 6.2-14.9 10.3-1.3 1.9-1.8 2-4.4.9-2.5-1-3.5-1-6.1.3-5.6 3-5.3 10.9.6 13.5 4 1.8 6 6.2 4.4 9.7-.6 1.4-1.1 3.3-1.1 4.3 0 2.8 3.9 7.1 6.4 7.1 1.6 0 2.7 1.1 4 3.6l1.7 3.7-5.8-.7c-3.2-.4-7.4-.9-9.3-1.2-2.9-.5-4.1 0-7.3 2.7-2.5 2.1-3.7 3.9-3.5 5.3.2 1.6-.4 2.1-3.2 2.7-6.7 1.4-9 7.5-4.7 12.5 1.9 2.1 3.2 2.7 6 2.6 3.6-.1 3.7-.1 3.7 3.7 0 4.6 2.4 7.1 6.8 7.1 3.7 0 7.2 4.2 7.2 8.8 0 3.9 4.1 7.5 7.6 6.6 2.1-.5 2.4-.3 2.4 2.3 0 3.3 3.5 7.3 6.4 7.3 2.2 0 6.6-4.7 6.6-7.1 0-2.3.8-2.4 3.1-.3 1.7 1.5 2.3 1.1 9.4-6.2 4.2-4.4 9.9-11.1 12.6-15.1 4.3-6.3 5.5-7.4 9.2-8.3 2.3-.7 7.9-3.1 12.5-5.5 7.3-3.9 8.4-4.2 8.9-2.7 5 14.2 8.3 19 15 22.2 2.6 1.2 10.7 5.5 17.8 9.6 16.1 9.1 20.3 10.6 28.5 10.7 11.3.1 18.5-3.8 28.2-15.3 6.9-8.2 7.5-9.4 8.3-16.1.4-3 2.5-10.1 4.6-15.8 3.8-9.9 4.4-10.9 13.6-20.5 5.2-5.6 10.1-10.2 10.7-10.4.7-.1 2 1.4 3 3.5 2.5 5.3 13.7 22.3 14.6 22.3 1.2 0 10 15.4 10 17.4 0 .9.9 3.5 2.1 5.8 1.7 3.3 1.9 5 1.3 8.7-1 5.8-1.1 22.1-.2 22.1 1.1 0 4.8-5.2 4.8-6.8 0-2.8 1.1-.5 2.7 5.5 1.7 6.6 2.8 8.4 4.9 7.6.7-.3 1.7.2 2 1.1.8 2 3.3 2.1 4 .1.4-.8 1.2-1.5 1.9-1.5 2.3 0 6.4-6.2 7.1-10.6 1-6.9-.4-13.4-4.1-19.1-3-4.6-3.3-5.4-2.3-8.1.9-2.4.8-3.9-.7-7.8-1-2.6-2.9-5.9-4.2-7.2-1.3-1.3-3.5-4.6-4.9-7.4-2.3-4.5-2.4-5.2-1-6 2-1.1 2.1-6.8.3-12.9-.8-2.4-5.2-12.9-9.8-23.2-8.1-18.3-8.6-19.2-16.7-28l-8.4-9.1 4.8-2.4c4.7-2.4 5-2.4 9.2-.8 3.9 1.4 4.7 1.4 7.2.1 3.6-1.9 9.4-8.9 11.9-14.6 4.7-10.3 1.2-24.3-8.3-32.6-7.6-6.7-16.2-8.7-25.1-5.9zm-130.7 57.3c-3.4 3.7-4.8 6.6-4.8 10 0 2-1 3.6-3.5 5.6-1.9 1.5-3.5 3.5-3.5 4.3 0 .8-1.3 3.2-2.9 5.2-1.6 2-5.5 8.2-8.6 13.7-3.2 5.5-5.9 10.2-6 10.3-.2.2-2.4-.8-5-2.3-3.4-2-4.4-3.2-4-4.4.4-.9.6-4.6.6-8.3-.3-10.6 3.6-16.8 18.4-29.5 8.3-7.1 8.3-7.1 15.9-7.2l6-.1-2.6 2.7z"/></svg>
