<svg xmlns="http://www.w3.org/2000/svg" version="1.0" viewBox="0 0 596 720"><path d="m194.7 11.7-4.6 11.8-.4 15-.4 15 5.9 16.4c3.3 9 6.8 18.1 7.8 20.2 1.1 2 5.7 7.2 10.3 11.4 6.1 5.6 9.7 9.9 13.2 15.8 9.6 16.5 13.7 22.7 23.9 36.6 8.9 12.1 10.4 14.7 10.4 18 .1 3.7-.3 4.1-5.6 7.6-22.6 14.9-40.5 33.6-47.7 49.9-1.2 2.8-3.8 8.5-5.8 12.6-1.9 4.1-5.4 11.5-7.7 16.5-2.3 4.9-4.9 10.5-5.8 12.4-1.5 3.3-1.5 3.5.3 4.5 6.1 3.6 31.5 20.9 31.5 21.5 0 .4-.6 1.3-1.2 2-1.1 1-1 1.1.5.6 2.6-1 2.2 2-.5 4-1.9 1.3-2.1 1.7-.8 2.5.8.5 1.1 1.3.6 1.7-.5.4-1.1.2-1.3-.5-.3-.6-1-1.2-1.7-1.2s-6-3.1-11.7-6.8c-15.6-10.3-22.1-14.3-22.4-14-.8 1-2.6 5-2.3 5.2 2.4 1.7 9.9 5.5 11.9 5.9 1.5.4 3.7 1.6 5 2.7 2.2 2 2.3 2 .2 1.1-2.9-1.5-3.3-1.4-3.4.6 0 1.1-.3 1.3-.6.5-.8-2-2.5-1.3-1.8.8.4 1.1.2 2-.4 2-.6 0-1.1.7-1.1 1.5 0 1.4-1.3 2-3.4 1.6-.5-.1-.4.4.3 1.2.6.8 2 1.3 3 1 1.4-.3 1.9 0 1.8 1.3-.1.9.4 1.9 1.1 2.1.7.3 1.1.1 1-.4-.5-1.5 4.1-5.3 5.7-4.7 1.6.7 2.1-1.1.5-2.1-.5-.3-.7-1.2-.4-2 .4-1 1.3-.7 3.5 1.6 1.5 1.6 3.3 2.9 3.9 2.9.5 0 1 .7 1 1.5 0 .9.6 1.2 1.7.8 1.3-.5 1.5-.2 1 1.7-.4 1.7-.3 2 .6 1.1 1.6-1.6 3-1.4 2.3.5-.5 1.2-.1 1.4 1.7 1 1.2-.3 1.6-.3 1 0-.7.3-1.3 1.2-1.3 2 0 .9.5 1.2 1 .9.6-.3 1-.1 1 .5 0 .7-.6 1-1.4.7-2-.8-2.8.4-1.5 2 1.5 1.8 1.8 1.8-10.8-2.6-12.2-4.2-16.3-6.4-20.8-11.1a25 25 0 0 0-5.7-4.6c-2.5-1.3-2.8-1.2-3.8.7-1.4 2.5-1.7 2 4.5 5.1 2.8 1.3 9.1 4.6 14 7.3 5 2.6 10 5.3 11.3 5.9 1.2.6 2 1.6 1.8 2.2-.3.7.3 1 1.5.7 1.5-.4 1.8-.2 1.2 1.3-.6 1.7-.5 1.7 1 .5 2.6-2.1 2-.3-1.2 3.8-1.6 2-3.7 5.3-4.7 7.4-1.3 2.8-2.4 3.7-4.3 3.8-2.3 0-2.4.1-.6.8 3.9 1.5-1.5 2.9-10.5 2.6-12.9-.4-18.1-2.4-25.6-10-3.5-3.5-6.4-6.8-6.4-7.4 0-.5-1.4-1.9-3-3.1l-3-2.1-6 6.3c-3.3 3.5-6.8 7.5-7.7 9-1 1.6-2.2 2.8-2.8 2.7-.5 0-2.9-2.3-5.2-5l-4.3-5v6.1l-5.7-2.9c-18.6-9.5-35.2-4.9-42.6 11.8-4.2 9.4-.4 24.6 8.3 32.9 10.4 10.2 29.2 13.2 39 6.2l2.9-2.1 5.3 3.4c22.4 14.3 102.3 53.6 153.8 75.7 20.9 8.9 58.8 24 60.4 24 .8 0 2.8-2.2 4.4-4.9l3.1-4.9-2.6-2.3c-1.5-1.3-2.3-1.8-1.8-1.1.5 1 .2 1.3-1 1-1-.1-2-.9-2.3-1.7-.3-.8 0-1.1.7-.7.7.4.9.1.5-.8-.3-.8-1.2-1.2-2.1-.9-1.3.5-1.3.3-.4-1.5 2.7-5 26.1-14.8 38.2-15.9 6.2-.6 7.7.4 5.8 3.8-.8 1.6-.8 2.7.2 4.5 1.8 3.4-2.4 9.6-7.7 11.2-9.5 2.8-16.4 12.9-16.4 23.8 0 7.1 1.7 11.9 6.1 16.9 6.8 7.7 16.8 11 25.9 8.5 5.9-1.6 14.3-9.8 15.9-15.5 2.5-9.2.9-18.1-4.5-25.2-2-2.6-2.4-4.1-2-7.3.6-4.7 1.2-6 3.1-6 1.9 0 3.2-5.2 3.4-13.9.2-8.5.4-9 7-16.9 4.7-5.6 7.9-13.1 6.6-15.2-.3-.5.1-2.3.9-3.9 1.4-2.6 1.9-2.9 5.5-2.4 3.4.5 4 .2 4.6-1.7.4-1.2.2-2.7-.4-3.3-1.7-1.7-1.3-2.7.8-2.7 2.4 0 3.7-3.6 2-5.6-.6-.8-1-1.5-.8-1.7l2.4-1.3a5 5 0 0 0 2.3-3.2c.3-1.7-.4-2.3-3.7-3.2-2.3-.6-4.1-1.4-4.1-1.8 0-.5 2.1-6.4 4.6-13.3 10.2-27.2 14.2-40.2 13.3-42.6-1.1-2.9-.3-5.3 2.8-7.9 2.7-2.3 4.8-7.6 20.9-53.4 19.8-56 24-68.2 27.8-80.3 3.5-10.9 3.9-11.7 5.9-11.2 11.8 3.4 18.9 6.3 23.8 9.6 6.6 4.4 7.8 7.4 2.9 6.7l-3-.5 2.2 2.5c1.3 1.3 5.7 4.9 9.8 8 4.1 3 9 7.1 10.7 9 2.9 3 3.7 3.4 6.5 2.8 7-1.4 9.1-9.8 3.2-13-1.5-.9-10.6-7.7-21.2-15.9-.7-.5-2.4-1.1-3.7-1.3-1.4-.1-4.6-1.8-7.2-3.7-6.3-4.6-11.4-7-19.6-9.6-3.7-1.1-7.6-2.5-8.6-3-1-.6-6.3-6-11.6-12.1-5.6-6.3-10.5-11-11.6-11-2.7 0-3.4-2-.7-2.1 1.3 0 1.8-.3 1.2-.5-.6-.3-.9-1.6-.6-2.9.2-1.4-.1-3.1-.7-3.8-.6-.8-.8-1.7-.4-2 1.4-1.4 3.4-.6 4.3 1.8.5 1.4 1.3 2.5 1.8 2.5 1.8 0 2.1-1.4.7-3.9-.8-1.4-2.4-5.2-3.6-8.4-2.8-7.8-9.5-17.6-14.4-20.9-4.7-3.2-6.5-3.6-4-.8 1 1.1 2.4 2 3.1 2 1.5 0 .7 3.7-1 4.7-.6.3-.8.3-.4-.1 1-1.2-3.2-4.8-4.9-4.2-1 .4-1.9-.6-3-3.3-1.7-4.2-3.5-4.5-6.2-.8-.8 1.1-2.1 1.7-3.2 1.4-1.7-.5-1.9-.1-1.4 2.7.6 2.7.3 3.4-1.7 4.3-1.9.9-3 .5-6.8-2.1a59.5 59.5 0 0 1-8.1-6.8c-4.8-5.1-9.4-5.2-14.6-.5-3 2.8-3.6 4-3.6 7.5 0 5.2 1.2 6.7 7.3 8.7 2.9 1 7.2 3.6 10.1 6.3 2.9 2.6 7.1 6.4 9.4 8.4 5.1 4.6 9.2 4.9 16.1 1.3 4.7-2.5 7.5-2.5 5.4 0-.8 1-.7 1.5.2 1.9.7.3.1.3-1.3 0-3.1-.6-4.6 1.8-2.4 3.6 1.1.9 2.1.7 4.4-.9 2.6-1.9 3-2.9 3.3-7.3.2-2.8.8-5.3 1.4-5.5 1.6-.5 2.4 3.5 1 5-2.1 2.1-1 8.7 1.4 8.7.5 0 1.2-.9 1.5-2 .4-1.1 1.1-1.7 1.7-1.4.7.4.6.9-.2 1.4-.8.5-.7 1.1.5 2.3 1.4 1.5 1.4 1.9 0 4.6-.8 1.6-2.3 3.6-3.3 4.3-2.8 2-4.5 5.5-3 6.4.7.4.8.3.4-.4s-.3-1.2.3-1.2c.5 0 1.1.5 1.3 1.2.3.7 1.8.1 4.1-1.8 2.1-1.6 3.5-3.5 3.2-4.2-1.1-2.8 3.6 1.1 11 9.3 11.3 12.3 13.8 16.4 5.5 8.9l-3.9-3.6 2 3.9 2 3.8-13.4 39.5c-7.4 21.7-16.5 48-20.2 58.5-3.7 10.4-8 22.8-9.5 27.5-3.3 10.5-18.4 51.8-24.5 67.2-.4 1-.3 1.8.3 1.8.9 0 6-11.5 10.7-24.5 1.4-3.9 5.7-15.8 9.6-26.5 4-10.7 9.8-27.6 13-37.5 3.2-9.9 6.3-18.9 6.8-20 3.5-7.8 14.4-39.5 24.7-72.3 3.4-10.8 3.6-11.2 6.4-11.2 2.2 0 2.7.4 2.4 1.7-.2 1-1.3 7-2.5 13.3-2 11.2-11.7 42.3-15.9 51.4-1.2 2.5-2.3 5.5-2.5 6.8-.3 2.3-6.4 19.5-10.5 29.8-2.1 5.1-4.7 12.3-15 41-3.7 10.5-20.4 54-23.5 61.4-1.4 3.2-2 3.7-3.8 3.1-1.2-.3-3.8-.9-5.8-1.2l-3.5-.5-4.8 12.6c-2.7 7-6.1 14.5-7.5 16.9-1.5 2.3-3.3 5.6-4 7.4-1.5 3.7-4.2 4.8-14.1 5.7-19.4 1.8-43.5 12.2-60.7 26.3-4 3.3-4.2 3.4-7.2 1.9-2.8-1.5-2.9-1.8-2.4-6.8.4-4.4.2-5.8-1.7-8.1-1.2-1.5-2.5-2.5-2.9-2.2-.5.2-2.3-1.6-4.1-4.1-1.8-2.5-4-4.9-4.9-5.2-2.6-1.1-9.7-9.3-12.2-14.2-1.2-2.5-3-5.6-3.9-7-1-1.4-2.1-3.6-2.5-4.9-.4-1.4-2.3-4-4.2-6-1.8-1.9-4.2-5.3-5.2-7.5-1-2.3-2.5-4.7-3.4-5.5-1-.7-1.7-2.1-1.7-3.1s-.6-2.3-1.4-2.9c-2.3-1.9-2.9-7.7-1.1-11.2 1.9-3.6 1.5-4.5-1.5-2.9-2.7 1.4-5.2.6-4.4-1.5.4-.8.1-1.5-.6-1.5s-1-.8-.7-2c.3-1.1 0-1.8-.6-1.7-.7.1-1-1.5-.8-4.3.3-5.1.8-6.1 2.1-4 .8 1.3 1 1.2 1-.2 0-.9-.5-1.8-1.1-2-1.8-.6.1-3.7 1.9-3.2 1.5.5 1.5.4 0-.9-2.7-2.1-2.2-2.6 1.9-2l3.8.6-1.6-2.4c-1.6-2.4-12.7-8.5-22.4-12.4l-5.1-2 .9-4.3c.7-3.8 1.1-4.2 3-3.7 3.6 1.1 19.1 8.7 20.5 10.2 1.8 1.7.6 5.7-1.5 4.9-.9-.4-1.3-.1-1.1.6.3.7 1.7 1.4 3.2 1.6 1.8.2 2.6 0 2.1-.7-.3-.6-.1-1.1.5-1.1.7 0 1-.6.7-1.4-.4-1 0-1.2 1.6-.8 1.2.3 1.9.1 1.5-.3-.4-.5-.3-1.4.2-2.1.6-.6.9-1.8.8-2.5-.2-.8.4-1.4 1.2-1.4 3 0 3-9.4 0-9.5-1.2 0-4.1 6.5-3.1 6.8.6.2 1.1.8 1.1 1.3s-1.9-.3-4.2-1.6c-2.4-1.4-7.8-4.3-12-6.5-4.3-2.2-7.8-4.2-7.8-4.5 0-.2.5-1.6 1.2-3 1.2-2.6 2.8-3.4 2.8-1.3 0 .7.7.3 1.5-.9 1.5-2.1 1.7-2.1 5.3-.6 2 .8 7.5 3.8 12.1 6.5 5 2.9 8.1 4.3 7.8 3.4-.4-.9-.3-1.6.2-1.6s1.8-2.1 2.9-4.8c1.2-2.6 2.1-3.9 2.2-3 0 3.2 1.9 1.9 2.6-1.8.4-2.2 1.4-3.8 2.6-4.3 1.1-.4 1.9-1 1.9-1.4-.3-2.1 0-2.8.9-2.2.6.3 1-.1 1-.9 0-2.1 5.2-6.8 6.1-5.5.9 1.4 1.5.3 2.3-4.4 1.1-6 2.7-8.8 4.6-8.2 1.2.4 2.2-.8 3.9-5 1.3-3 2.9-5.5 3.6-5.5.8 0 1.6-1.8 2-4.3.4-2.3 1.4-5 2.3-6 .8-.9 1.2-1.7.8-1.7-.3 0 .1-1.2 1.1-2.6.9-1.5 1.7-3.4 1.8-4.4.2-2.5 4.8-8 6.3-7.5.6.3 1.2-.3 1.2-1.3 0-2.4 2.9-6.4 4.1-5.7.5.4.9-.1.9-.9 0-2.1 2.1-3.1 3.1-1.5.7.9.7.5.3-1.4-.5-2.1-.2-2.7 1-2.7 1 0 1.4.6 1 1.7-.3 1 .1.7 1-.7.8-1.4 1.3-3.3 1-4.3-.5-1.6-.2-1.8 1.5-1.2 1.4.4 2.3.1 2.7-.9.3-.9 1.2-1.6 2-1.6.7 0 2-1.4 2.9-3 .9-1.7 2-3 2.5-3s.7-.7.4-1.5c-.4-.8-.1-1.5.5-1.5s1.1.6 1.1 1.2c.1 1.8 1.9-1.5 2.3-4.1.2-1.1.6-2.4 1-2.7 1.1-1.2.8-9.5-.5-13-.9-2.6-.9-3.8.1-5.7 1.5-2.8 1.9-10.7.9-15.5-1-4.5 1.1-3.8 2.7.8 1.1 3.2 1.2 3.3 1.8 1.1.7-2.8-.7-6.8-3.5-9.8-1.2-1.3-3.6-6.9-5.3-12.5-2.8-8.9-11.4-33.6-14.7-42.1-1.3-3.3-3.1-3.6-2.3-.5.3 1.3 1.9 10.2 3.5 19.8 3.6 20.2 3.8 21.2 5.1 20.5.5-.4.9.4 1 1.7.1 2.3.1 2.3.8-.2.5-1.9.9-2.2 1.6-1 1.3 2 1.1 7.3-.3 7.8-.7.2-1-.2-.7-1 .4-.9-.2-1.4-1.5-1.4-1.7 0-2 .5-1.5 2.1 1.6 5.5 1.7 16.3.1 22.3-.9 3.5-1.6 7.9-1.6 9.7 0 7.6-8.8 19.3-19.7 26.5-2.3 1.5-3.9 3.1-3.5 3.5.4.5.1.5-.6.1-1.3-.8-2.8.2-7.5 5.3-8.6 9.1-9.6 9.9-11.7 9.4-1.6-.4-2.3 0-2.7 1.5-.3 1.2-1.3 2.4-2.2 2.7-1 .3-5 3.9-8.9 7.9-3.9 4.1-7.6 7.7-8.2 8.1-1.8 1.1-1.1-1.5.9-3.2 1.1-.9 1.7-2.1 1.4-2.7-.3-.6-.3-.8.2-.4 1.2 1.2 3.6-2.8 2.9-4.9-.5-1.5-.4-1.5.5-.3.9 1.3 1.1 1.3 1.2 0 .1-.8.1-2.1 0-2.8-.3-1.9 2-4.4 3.5-3.8 1.6.6 3.8-1.9 2.9-3.4-.3-.5.1-1 .9-1 1.1 0 1.6-.9 1.6-2.6 0-2.2.2-2.5 1.5-1.4s1.8.5 3.8-3.8c1.2-2.9 2.8-5.2 3.5-5.2.7 0 3.4-1.4 6-3.2 2.6-1.8 4.8-3.2 4.9-3 .9.6 4.5-1.9 8.5-6.1 2.7-2.6 5.2-4.6 5.7-4.3.5.3 1.6-.4 2.4-1.7.9-1.2 2.7-3.5 4.1-5.1 1.4-1.6 2.6-3.4 2.7-4 0-.6.3-2.2.6-3.6 1.2-6.2-.8-20-2.9-20-.5 0-.6-.5-.3-1 .4-.7 1.3-.7 2.6 0 1.7 1 1.9.8 1.7-2.5-.2-1.9-.6-3.5-1-3.5-.3 0-.4-.8-.1-1.9.3-1.3 1.1-1.7 2.4-1.4 1.4.4 1.9 0 1.9-1.4 0-1 .5-2.4 1.1-3 .8-.8.3-2.8-2-7.4-3.1-6.3-3.9-9.5-2.1-8.4 1.4.8 1.2-.9-.6-8.5-.9-3.6-1.8-7.9-2-9.5a642 642 0 0 1-.9-8.5c-.7-6.2-3.8-18.5-6-23.6-.8-1.9-1-3.4-.4-3.4 1.2 0 1.2-3.7-.1-4.5-.5-.3-1-1.7-1-3.1 0-1.4-.5-3.4-1.1-4.5-.6-1.1-1.4-4.4-1.9-7.2l-.8-5.1 1.9 2.3c1.2 1.4 1.9 3.9 1.9 6.5l.1 4.1 2.5-2.9c2.3-2.6 2.6-3.6 2-7.9-.3-2.7-1.9-7.9-3.6-11.6-2.4-5.3-2.6-6.1-.9-4.1 1.2 1.4 5.5 6.5 9.7 11.4 4.3 4.9 9.4 11.2 11.5 14 4.1 5.4 4.1 5.3 2.2 16.6l-.6 3.5 2.1-3.8c1.1-2 2.5-3.7 3.1-3.7.6 0 .7.6.3 1.2-.6 1-.4 1 .8 0 .9-.7 1.9-2.8 2.2-4.8.4-1.9 1.1-3.2 1.7-2.9.5.4.9.1.9-.5s.6-1.8 1.4-2.6c1.3-1.2 1.5-1.1 2.1.6 1 3 3.5.7 3.5-3.2 0-2.8 3.7-7.8 5.8-7.8.6 0 1.3-.7 1.6-1.5.3-1-1.2-.4-4 1.6-2.5 1.7-5.1 3.2-5.7 3.3-2.7.6-4.7 1.9-4.1 2.7.3.5 0 .9-.5.9-.6 0-1.1-.5-1.1-1 0-1.8-1.7-1.1-2.9 1.2-1.1 2.2-1.1 2.1-.7-.7.3-1.7.8-3.9 1.1-5 .6-1.7.3-1.6-1.4.5-1.2 1.4-2.4 3.7-2.7 5.2-.4 1.6-1 2.8-1.5 2.8s-2.7-3.7-5-8.3c-2.3-4.5-5-9.3-6.1-10.7-1-1.4-2.9-3.8-4.1-5.4-1.2-1.6-3.8-4.8-5.7-7-4.8-5.5-8.9-13.7-7.2-14.3.6-.3 1.2-1.1 1.2-1.9 0-1.6 13-8.1 17.8-8.8 3.7-.5 5.5 1.4 6.7 7.1.4 1.8 1.2 3.3 2 3.3.7 0 1.6 1.1 1.9 2.5.4 1.5 1.4 2.5 2.4 2.5 1.5 0 1.5.2.2 1-1.1.7-1.1 1-.2 1 .7 0 1 .5.7 1-.3.6.1 1.7.9 2.6.9.9 1.6 1.1 1.6.4 0-.6.5-.8 1.1-.5.7.5.4 1.4-.7 2.6-1 1.1-1.2 1.9-.6 1.9.7 0 1.2-.5 1.2-1 0-2.3 2.1-.7 4.5 3.4 1.4 2.4 3.2 4.7 4 5 1.7.6 2-.5.6-1.9-.5-.6-4.3-7-8.6-14.4-6.5-11.3-7.6-13.9-7.1-16.6 1.1-5.7 2.6-6.7 10.2-7 3.8-.1 7.9-.6 9.2-1 1.4-.5 2.2-.3 2.2.4 0 1.4-9.3 6.1-12.2 6.1-2.1.1-2.2.1-.4 1.1 2.7 1.6 9.3.2 14.8-3.1 5.2-3.2 5.8-3.4 5.8-2.2 0 .4-1.4 1.6-3.1 2.6-1.7 1-2.8 2-2.6 2.2 1.1 1.1 11.1-3.8 15.7-7.6 4.9-4.1 8-4.9 4.8-1.3-6.7 7.5-17.3 27.3-20.2 37.4-2.2 7.9-2.3 10.2-.3 13.2 1.7 2.6 2.1 2.7 7.3 2.1 5.4-.7 5.4-.7 9.4 3.6 2.2 2.4 4 4.9 4 5.7 0 2.1 3.9 1.5 7.4-1.2 2.1-1.6 4.6-2.5 7-2.5 4.2 0 10.6 2.4 10.6 3.9 0 .6.6.8 1.3.5.7-.2 2.1.2 3.2 1.1 1.9 1.4 1.9 1.5.1.8-1.3-.4-1.7-.3-1.2.5.4.7 1.3 1.2 1.9 1.2 2 0 11.8 10 11.1 11.3-.4.7-.3.9.1.4.5-.4 1.7 0 2.7 1 2.2 2 2.4 4.1.2 2.3-2.9-2.5-1.1 1.2 2 3.9 3 2.7 6.4 3.9 4.8 1.8-.4-.7-3.1-4.1-5.9-7.7-3.9-5.1-5.9-9.2-9.3-18.8l-4.3-12.4 2.1-4.2c1.2-2.3 2.7-7.7 3.5-12 .7-4.2 1.5-7.5 1.8-7.2.3.3 1.8-2 3.5-5 3.8-7.2 4.8-8.9 6.1-10.5.5-.8 1.3-2.6 1.7-4.2.3-1.5 1.3-2.7 2.2-2.7 1.1 0 1.3-.6.9-2.1-.7-2-.5-2.1 3.1-1.5 3.4.7 3.6.6 2.5-.8C454.9.2 442.2 0 327 0H199.3l-4.6 11.7zm113 18.5c-.3.8-.6.5-.6-.6-.1-1.1.2-1.7.5-1.3.3.3.4 1.2.1 1.9zm13.1 20.1c1.5 5.7 1 5.6-1.5-.2-1.4-3.3-1.6-4.8-.8-4.5.7.3 1.8 2.4 2.3 4.7zm114 24.2c-.3.3-.9-.2-1.2-1.2-.6-1.4-.5-1.5.5-.6.7.7 1 1.5.7 1.8zm10.3 13.2c1.3 1.6 1.2 1.7-.3.4-1-.7-1.8-1.5-1.8-1.7 0-.8.8-.3 2.1 1.3zm-21.5 21.4c.3.5.1 1.5-.3 2.3-.6 1.1-1.5 1.2-4.2.2-5-1.6-5-3.3-.1-3.3 2.2 0 4.3.4 4.6.8zm45.9 6.9c-.3.5-1.1 1-1.6 1-.6 0-.7-.5-.4-1 .3-.6 1.1-1 1.6-1 .6 0 .7.4.4 1zm13.3 16.8c.9 2.7.8 2.9-1.4 2.4-3.1-.6-3.9-1.9-2.4-3.7 1.8-2.2 2.7-1.8 3.8 1.3zm-11.1 4.4c-.3.7-.5.2-.5-1.2s.2-1.9.5-1.3c.2.7.2 1.9 0 2.5zm2 15.4c-.3.3-1.2.4-1.9.1-.8-.3-.5-.6.6-.6 1.1-.1 1.7.2 1.3.5zM328 158.5c-.7.8-1.7 1.5-2.2 1.5-.6 0-.5-.7.2-1.5s1.7-1.5 2.2-1.5c.6 0 .5.7-.2 1.5zm18 55.9c0 .3-.4.8-1 1.1-.5.3-1 .1-1-.4 0-.6.5-1.1 1-1.1.6 0 1 .2 1 .4zM290 245c0 .5-.4 1-1 1-.5 0-1-.5-1-1 0-.6.5-1 1-1 .6 0 1 .4 1 1zm-55.2 55c1-2.4 1.1-2.4 1.1-.3.1 1.3.5 2.3 1 2.3s.7 1 .3 2.2c-.3 1.2-.7 1.7-.9 1.1-.4-1-.9-.9-2.6 0-4.4 2.5-5.1 6.1-1.2 7.1 1.4.4 2.5 1.1 2.5 1.6s.7.7 1.5.4c1.8-.7 1.9 1.1.4 5.4-1 3-1.3 3.2-5.2 2.6-2.3-.3-4.8-.7-5.4-.9-1.2-.4-3.3 2.3-3.3 4.2 0 .9 8.8 4.2 12.2 4.7 2.8.4 3.1 1.2 1.7 5.3l-1.3 3.8-.7-3.5c-.6-3.1-.7-3.3-1.4-1.3-1 3.1-2.6 1.8-2-1.5.4-2.3.3-2.3-.7.5-2 4.9-3 5.2-2.4.8l.6-4-1.9 4c-1.7 3.4-2.6 4-2.2 1.2.2-1.6-.9-.5-2.4 2.3-.9 1.7-2.1 2.8-2.7 2.4-.5-.4-1.3-.1-1.7.5-.5.8-1.6.7-3.8-.4-2.9-1.4-3-1.7-2.2-5.8.4-2.3 1.5-6 2.5-8.2.9-2.2 1.6-4 1.4-4-.7 0 2.5-6.1 6.1-11.4 2.4-3.5 5-7.3 5.8-8.5.8-1.1 2.2-2.9 3-4 1.5-1.7 1.6-1.7 2.2 1l.6 2.9 1.1-2.5zm8.3 32.1c3.1 1 5.6 1.9 6.9 2.4.3.2 1.5.6 2.8 1 1.2.4 2.2 1.1 2.2 1.6s.7.9 1.5.9c1.8 0 1.8.4 0 5l-1.3 3.5-.2-3c0-2.6-.2-2.8-1.1-1.2-1 1.8-1.1 1.8-2.5 0-.7-1-1.4-1.3-1.4-.6 0 .6-.3 1.8-.6 2.7-.4 1-.1 1.6.9 1.6 2.3 0 2.7 1.3 1 3.5-1.5 2-1.5 2-.8-.3.3-1.2.2-2.2-.3-2.2s-1.4 1-2 2.2c-.9 1.9-1 1.4-.6-2.9.4-4.5.2-5.2-1.1-4.7-1.1.5-1.5-.1-1.5-2.1v-2.7l-2.1 2.3-2 2.4.4-4c.5-3.4.4-3.7-.5-1.8-1.2 2.6-3.3 3.2-2.4.7.3-.9.6-2.4.6-3.5 0-2.2-.2-2.2 4.1-.8zm-144.2 7.3c1.8 2.1 1.9 7.1.2 7.1-2 0-5.5-5.1-4.8-6.9.8-2 3.1-2.1 4.6-.2zm9.5-.4c1.4.5 2.6 1.7 2.6 2.5 0 2.7-4 9.5-5.6 9.5-1.7 0-2-.8-2.9-7.8-.5-4.7-.4-5.2 1.4-5.2 1.1 0 3.1.4 4.5 1zm-14.5 6.7c5.4 6.6 3.3 8.3-4.5 3.7-4.5-2.7-5.3-4.1-3.2-6.2 2.1-2.1 4.6-1.3 7.7 2.5zm25.5.2c.9 1.4-5.1 6.4-6.9 5.8-2.9-1.2-3-3.9-.1-6.4 2.1-1.8 3.1-2.1 4.6-1.3 1 .6 2.1 1.4 2.4 1.9zm135.7 6.7c-.2 3.2.1 4.9 1 5.5 1.1.7.9.9-.5.9-1.7 0-1.5.5 1.2 3.1 1.8 1.7 3.2 3.6 3.2 4.3 0 .7-.3.6-.9-.2-.4-.7-1.2-1.2-1.7-1.1-.5.1-3.5-.1-6.6-.5-4.1-.6-5.8-1.3-5.8-2.3 0-1.2.8-1.4 3.6-.8 2.4.4 3.4.3 2.9-.4-.3-.6-1.6-1.1-2.8-1.2-2.1-.1-2.1-.1.2-.8 2.1-.6 2.2-.8.7-2-1.2-1-1.4-1.7-.5-2.7.8-1 1.5-1.1 2.4-.4 1 .8 1.4.2 1.9-2.5 1-5.1 2.2-4.3 1.7 1.1zm-167.8-1.5c2.8.7 3.7 1.5 3.5 2.7-.3 1.3-1.3 1.6-4.3 1.4-4.6-.4-6-1.4-5.2-3.6.7-1.9 1-1.9 6-.5zm35.1.5c2 2 2.1 6.4.1 6.4s-8.5-3.2-8.5-4.2c0-.4 1.5-1.4 3.3-2.2 1.7-.8 3.3-1.5 3.4-1.5.1-.1.9.6 1.7 1.5zm-13.1 0c.9.9-.4 3.5-1.4 2.8-.5-.3-.9-1.2-.9-2 0-1.4 1.2-1.9 2.3-.8zm-14.8 6.5c0 4-.2 4.2-4.7 5.9-4 1.5-5 1.6-6.6.4-1.1-.7-1.9-2.5-1.9-3.9 0-2.1.3-2.4 2.2-1.9 3.1.8 9.9-2.2 9.2-4-.4-.9-.1-1.3.6-1 .7.2 1.2 2.3 1.2 4.5zm1 8.1c-.1.9-.8 2.5-1.7 3.5-.8 1-1.8 2.6-2.1 3.5-.4 1-1.1 1.8-1.7 1.8-1.5 0-1.2-2 .3-2.1.6 0 .1-.4-1.1-1l-2.4-.9 2.9-3.3c3-3.5 6-4.3 5.8-1.5zm7.3 7c.2 5.3.6 6.8 2 7.1 1.3.4 1.3.5-.3.5-2.2.1-6.8-1.6-4.7-1.7 2-.1.3-2.1-1.8-2.1-2.9 0-3.1-1.4-1.3-6.4 1.4-3.7 2.2-4.6 3.8-4.4 1.7.3 2 1.2 2.3 7zm67.2-3.5c0 .7-3.9-1.7-4.6-2.8-.3-.6.5-.3 2 .6 1.4 1 2.6 1.9 2.6 2.2zm-60 2.5c2.4 3.9 2.1 5.3-1 5.3-2.5 0-4.7-4.2-3.6-7 .9-2.4 2.5-1.8 4.6 1.7zm72.8 5.2c3.9 2.6 7.2 4.9 7.2 5.2 0 .6-.3.5-10.7-6.3-4.6-2.9-8.3-5.5-8.3-5.9 0-.3 1 0 2.3.8 1.2.9 5.5 3.6 9.5 6.2zm-1 3.9c2.2 2.3 2.2 2.4.2 2.2-2.4-.2-6-4.5-3.7-4.5.7 0 2.3 1.1 3.5 2.3zm22.2 9.2c.8.7 4.9 3.3 9 5.9 4.1 2.5 7 4.6 6.5 4.6-1.2 0-23.4-14-24.2-15.3-.7-1.1 5.9 2.6 8.7 4.8zm-7.4-.5c3.9 2.3 5.6 4 6.6 6.5 1.4 3.9 2.5 4.5 3 1.5.3-1.8.6-1.7 4.8 1.1 2.5 1.7 13.7 7.6 25 13.2 11.3 5.5 20.8 10.5 21.2 11.1 1.3 1.9-1.1 3.2-3.3 1.8-1.2-.8-2.4-1.1-2.7-.7-.3.3-1.1-.5-1.8-1.7l-1.2-2.3-1.2 2.6c-.9 2-1.8 2.5-3.4 2.2-5.5-1.2-16.8-7-21.9-11.3-7.2-6-10.5-8-12.2-7.4-1.1.5-3-.6-5.6-3.2-2.1-2.1-4.9-3.9-6.1-4.1-3.3-.5-4-1.7-2.8-4.8.7-2 .8-3.1 0-3.9-.7-.7-1-.7-1 .1 0 .6-.9 1.3-2.1 1.6-1.4.4-2.2-.1-2.8-1.6-.5-1.4-.4-2.5.3-2.9 1.5-1.1 1.3-1.1 7.2 2.2zm-8.1 4c.3.6-.1.7-.9.4-1.8-.7-2.1-1.4-.7-1.4.6 0 1.3.4 1.6 1zm32 21.5c1.1.9-.2.5-3-1-2.7-1.5-5.4-3.2-6-3.7-1.5-1.6 6.7 2.8 9 4.7zm63 11.5c2.2 1.5 8.5 5.3 14 8.4 5.5 3.1 9.6 5.6 9.1 5.6-2.1 0-29.6-16.4-29.6-17.7 0-.5 1.3.2 6.5 3.7zm3 5.7c4.4 2.7 10.8 6.4 14.3 8.3 3.4 1.8 6.2 3.6 6.2 4 0 1.3-3.6 4-4.4 3.3-.4-.4-1.1-.1-1.6.7-.8 1.3-2.1.9-8.4-2.3-9.2-4.7-18.8-11.5-18-12.8.3-.5 1-.7 1.5-.4 1.6 1 1-3.9-.8-6.5l-1.7-2.5 2.4 1.6c1.4.9 6.1 3.8 10.5 6.6zm-41.4-5.7a21 21 0 0 0 5.6 1.6c4.8.6 5.5 1.4 1.2 1.4-2.8-.1-12-3.8-9.6-4 .5 0 1.7.5 2.8 1zm145.5 8.1c1.1 1.8-3.1 6.3-7.2 7.7-7.7 2.6-13.9-.3-10-4.7 3-3.3 15.6-5.5 17.2-3zm-25.1 5.5c.9.9 1.4 2.1 1.2 2.8-.7 2.1-10.1 6.6-14 6.6-3.4 0-3.8-.3-3.5-2.1.4-2.6 4-5.5 9.4-7.4 5-1.8 5-1.8 6.9.1zm-21 11.4c.8 1.2-3.2 5-7.9 7.5-7.1 3.8-6.3-2.3.8-6.6 3.4-2.1 6.1-2.4 7.1-.9zm-7 11c-.3.5-1 1-1.6 1-.5 0-.9-.5-.9-1 0-.6.7-1 1.6-1 .8 0 1.2.4.9 1zm30.9 23c-2.7 5.7-3.8 6.5-2.2 1.7.9-2.7 3.5-6.7 4.4-6.7.1 0-.9 2.2-2.2 5zm20.1-2c-.4 1.2-.9 1.9-1.2 1.7-.3-.3-.2-1.5.2-2.7.4-1.2.9-1.9 1.2-1.7.3.3.2 1.5-.2 2.7zm-14-1c.3.5.2 1-.4 1-.5 0-1.3-.5-1.6-1-.3-.6-.2-1 .4-1 .5 0 1.3.4 1.6 1zm23.5 4.3c0 .8-1.1 1.9-2.5 2.5-3.1 1.4-3.3 0-.2-2.1 2.8-2 2.7-2 2.7-.4zm-26 1.2c1 1.3.9 1.5-.9 1.5-1.2 0-2.1-.6-2.1-1.5 0-.8.4-1.5.9-1.5s1.4.7 2.1 1.5zm23.4 6.6c-.3.5-1.2.9-1.9.9-.9 0-1.2.6-.9 1.5.4 1 0 1.5-1.5 1.5s-2.1-.6-2.1-2.3c0-1.3.2-2.6.5-2.9.9-.8 6.5.4 5.9 1.3zm-20.7 2.5c1.5 1.5 2.7 3 2.6 3.5-.2.5.3.9 1.1.9 1.9 0 2.8 1.4 2 3.4-1.2 3-3.5 1.6-5.7-3.4-1.4-3.2-2.8-5-3.9-5-1 0-1.8-.5-1.8-1 0-1.8 2.9-1 5.7 1.6zm25.3-.7c0 2.4-1.8 3.7-3.1 2.4-1.3-1.3-.1-4.3 1.7-4.3.8 0 1.4.9 1.4 1.9zm-2.9 4.1c1.5.9 1.7 1.5.9 3-1.3 2.5-2.9 2.5-4.6.2-2.8-3.7-.7-5.5 3.7-3.2zm-11.1.9c0 .5-.9.7-2 .4-1.1-.3-2-.7-2-.9 0-.2.9-.4 2-.4s2 .4 2 .9zm0 3.7c1 2.7-.6 6.5-2.5 5.8-1.5-.6-2.2-6.4-.8-7.8 1.1-1 2.5-.2 3.3 2zm5.4 1c.4.9.4 1.9.1 2.2-.7.8-3.5-1.9-2.9-2.9.8-1.4 2.1-1.1 2.8.7zm-9.1 6.1c-.7.2-2.1.2-3 0-1-.3-.4-.5 1.2-.5 1.7 0 2.4.2 1.8.5z"/><path d="M233.7 319.7c-.4.3-.7 1.1-.7 1.7 0 .6.5.5 1.2-.2.6-.6.9-1.4.7-1.7-.3-.3-.9-.2-1.2.2zM219.3 409.1c.7 1.8 2.2 3.8 3.4 4.6 1.9 1.3 2.5 1.3 4.2.1 1.1-.8 1.7-1.8 1.3-2.4-1.2-1.8-7-5.4-8.5-5.4-1.3 0-1.3.5-.4 3.1zM232.6 414.5c-.5 1.5 2.1 3.5 4.5 3.5.8 0 .8-.4-.1-1.5-.7-.8-.9-1.5-.4-1.5 1 0-1.7-2-2.7-2-.4 0-.9.7-1.3 1.5zM228 415.9c0 1.1 2.9 3.5 3.5 2.9.2-.2-.4-1.2-1.5-2.1-1.1-.9-2-1.3-2-.8zM240 417.5c.7.9 1.5 1.3 1.7 1.1.7-.7-.7-2.6-1.9-2.6-.6 0-.6.6.2 1.5zM346.6 50.6c-.4.9-.4 1.9-.1 2.2.2.3.7-.3 1.1-1.2.4-.9.4-1.9.1-2.2-.2-.3-.7.3-1.1 1.2zM368 54c0 1.2 2.8 2.5 3.6 1.7.3-.3-.4-1-1.5-1.7-1.5-.7-2.1-.7-2.1 0zM378.6 58.8c-.4.7-.9 3-1.1 5-.7 8.8-1.8 14.2-2.9 14.2-1.5 0-6.6 5.8-6.6 7.5 0 .7-.6 1.5-1.4 1.8-.9.4-1.2 1.4-.9 2.7.5 2 .9 1.8 4.7-2.6 2.3-2.6 4.6-5.7 5.1-6.8.6-1.1 3.1-3 5.6-4.3 4-2 4.6-2.7 4.4-5-.1-1.6-.6-3.6-1-4.6-.5-1.1-.1-2.4.9-3.6.9-1 1.6-2.1 1.6-2.4 0-1.2-4.9-.7-5.6.5-.6.9-1 .5-1.4-1.2-.4-1.7-.8-2.1-1.4-1.2zM387 64.4c0 .9.5 1.6 1 1.6.6 0 1-.4 1-.9 0-.6-.4-1.3-1-1.6-.5-.3-1 .1-1 .9zM391 67c0 .6.7 1 1.5 1s1.5-.2 1.5-.4-.7-.6-1.5-1c-.8-.3-1.5-.1-1.5.4zM398.1 70.1c-2.3 1.9-2.3 1.9-.2 1.9 1.2 0 2.4-.7 2.8-1.5.9-2.4 0-2.5-2.6-.4zM329.2 73.5c0 1.6.2 2.2.5 1.2.2-.9.2-2.3 0-3-.3-.6-.5.1-.5 1.8zM394.8 74.7c-3.9.4-7 2.9-5.1 4.1.6.4 2 2.6 3.1 4.9 1.2 2.3 3.4 5 4.9 6.1 2.9 2 10.8 6.2 11.8 6.2 1.5 0 .1-2.5-3.2-5.5-4.5-4.1-3.8-5.6 1.2-2.6 4.3 2.5 4.2 2.5 4.2.4 0-1.8-3.7-6-4.9-5.6-.5.2-.8-.3-.8-1 0-.8-1.1-1.9-2.4-2.7-1.3-.7-2.7-2.1-2.9-3.1-.3-1.1-.9-1.8-1.4-1.7-.4.1-2.5.3-4.5.5zM358.5 79c-.3.5-.1 1 .4 1 .6 0 1.1-.5 1.1-1 0-.6-.2-1-.4-1-.3 0-.8.4-1.1 1zM362 83c0 .5.5 1 1.1 1 .5 0 .7-.5.4-1-.3-.6-.8-1-1.1-1-.2 0-.4.4-.4 1zM355 86.4c-1.1 2.2-2.1 3-3.7 2.9-1.9-.2-2.3.5-3.3 5.5-.6 3.1-1.6 7.3-2.1 9.2-1.3 5.1-1.1 6.9.5 4 .8-1.4 1.2-2.8 1-3.2-.3-.5.2-1.8 1-3 .9-1.2 1.6-1.8 1.6-1.2 0 .6 1.2 1.6 2.6 2.3 2.6 1.2 2.6 1.1 2.1-2.6-1.3-8.6-1.3-8.6 1.9-10.8 1.7-1.1 2.8-2.7 2.6-3.4-.3-.8 0-1.1.7-.7.7.5.9.1.4-1-.5-1.5-.7-1.5-1.6.2-.9 1.6-1.1 1.6-1.6.2-.5-1.2-1-.9-2.1 1.6zM363 92.9c0 .6.5 1.3 1 1.6.6.3 1-.1 1-.9 0-.9-.4-1.6-1-1.6-.5 0-1 .4-1 .9zM448.5 94c-.4.7.1 1.4 1.4 1.7 1.1.3 1.9.8 1.7 1.2-.9 1.4 1.3 3.6 2.4 2.5.7-.7.1-1.9-1.9-3.8-1.9-1.9-3.1-2.4-3.6-1.6zM333.1 95.5c0 1.1.4 2.7.9 3.5.9 1.3 1 1.3.9 0 0-.8-.4-2.4-.9-3.5l-.9-2v2zM364.2 98c0 1.4.2 1.9.5 1.2.2-.6.2-1.8 0-2.5-.3-.6-.5-.1-.5 1.3zM367 107c.6 1.1 1.3 2 1.6 2 .2 0 0-.9-.6-2s-1.3-2-1.6-2c-.2 0 0 .9.6 2zM362.7 108.8c-1 .2-1.6.9-1.4 1.5.5 1.6 4.7 1.7 4.7.1 0-1.6-1-2.2-3.3-1.6zM350.1 119c-.1 1.8 1.6 4.6 2.3 4 .2-.3-.2-1.6-.9-3-.8-1.5-1.4-1.9-1.4-1zM345 122.1c0 .5.5.7 1 .4.6-.3 1-.8 1-1.1 0-.2-.4-.4-1-.4-.5 0-1 .5-1 1.1zM354.1 124.6c0 1.1.3 1.4.6.6.3-.7.2-1.6-.1-1.9-.3-.4-.6.2-.5 1.3zM431 134.1c0 2.1.7 4.2 1.5 4.9 2 1.7 2-.6 0-5.1l-1.4-3.4-.1 3.6zM449 148c0 1.4 4.6 3.1 6.5 2.4 2.2-.9 1.8-2.1-.7-2.8-3.4-.9-5.8-.7-5.8.4zM459.5 150.5c-2.6 1.8-4.6 2.5-6.4 2.1-2-.4-1.8-.2.8 1 1.9.9 4.5 1.4 5.8 1.1 1.3-.2 2.6 0 2.9.5.7 1 6.4-4.6 6.4-6.3 0-1.3-1.4-1.1-2.8.3-1 1-1.4 1-2.1 0-.6-.9-1.7-.6-4.6 1.3zM442.4 150.5c1.1.8 2.4 1.5 3 1.5.5 0 .1-.7-1-1.5-1-.8-2.3-1.4-2.9-1.4-.5 0-.1.6.9 1.4zM472.6 245.8c-5.5 14.8-16.7 47.5-16.3 47.8.2.2 2.1-4.2 4.2-9.9 5.5-14.9 14.6-41.9 14.2-42.3-.1-.2-1.1 1.8-2.1 4.4zM302.1 277.6c0 1.1.3 1.4.6.6.3-.7.2-1.6-.1-1.9-.3-.4-.6.2-.5 1.3zM454.1 303.5c-1.1 2.4-2.1 4.8-2.1 5.1 0 1.1-7.2 19.9-8 20.9-.4.5-1.3 3-2 5.5-.6 2.5-4.7 13.6-9.1 24.7-4.3 11.2-7.9 20.7-7.9 21.3 0 2.5 2 .6 3.3-3.3.9-2.3 3.2-8.5 5.2-13.7 12.4-32.3 23.7-64.1 23.1-64.7-.2-.2-1.3 1.7-2.5 4.2zM214 303c0 .5.5 1 1 1 .6 0 1-.5 1-1 0-.6-.4-1-1-1a1 1 0 0 0-1 1zM247.5 307.1c-1 1.5.3 2.5 1.6 1.2.7-.7.7-1.3.1-1.7-.6-.3-1.4-.1-1.7.5zM200.6 332.7c-2 3.1-3.4 5.9-3.1 6.1.6.7 4.2-3.8 5.7-7.1.7-1.5 1.6-2.7 2-2.7.5 0 .8-.5.8-1 0-2.4-2.1-.6-5.4 4.7zM197.6 330.6c-.5 1.4-.4 1.5.9.4 1.7-1.4 1.9-2 .6-2-.5 0-1.2.7-1.5 1.6zM190.9 333.7c-1.3 1.6-1.2 1.7.4.4.9-.7 1.7-1.5 1.7-1.7 0-.8-.8-.3-2.1 1.3zM195 334.1c0 .5.5.7 1 .4.6-.3 1-.8 1-1.1 0-.2-.4-.4-1-.4-.5 0-1 .5-1 1.1zM422.5 375.4c-1.6 1.8-3.6 6.8-2.5 6.1 1.1-.7 4.3-6.5 3.8-7-.2-.2-.8.2-1.3.9z"/></svg>