<svg xmlns="http://www.w3.org/2000/svg" viewBox="0 0 22.58 22.58"><g style="display:inline;stroke-width:.794142"><g style="display:inline;stroke-width:.794142"><path d="M-48.5 314.14a2.5 2.5 0 0 0-2.24 1.08.26.26 0 0 0 .1.36.26.26 0 0 0 .36-.1s.46-.88 1.76-.81a.26.26 0 0 0 .28-.25.26.26 0 0 0-.25-.28z" style="color:#000;clip-rule:evenodd;fill:#801231;fill-rule:evenodd;stroke-width:.794142;stroke-linecap:round;stroke-linejoin:round;stroke-miterlimit:1.53333;-inkscape-stroke:none" transform="translate(77.45 -390.45) scale(1.25922)"/><path d="M-59.2 316.27a1.35 1.35 0 0 1-.44-.46.26.26 0 0 0-.46.01c-.44.8-.66 1.62-.63 2.45a5.5 5.5 0 0 0 1.76 3.58c.67.7 1.79 1.47 1.79 2.96h9.25a6.55 6.55 0 0 0 3.58-5.74c.03-.73-.03-1.5-.17-2.33a.26.26 0 0 0-.49-.09c-.24.45-.8.82-1.28 1.01.48-2.01.36-4.1-.04-5.95a.26.26 0 0 0-.26-.16.27.27 0 0 0-.17.08 5.01 5.01 0 0 1-2.84 1.35c-.93.19-1.93.41-2.83 1.22 0-.38.21-.92.72-1.5a.26.26 0 0 0-.18-.44c-.84-.07-1.64 0-2.36.34a3.6 3.6 0 0 0-1.51 1.41 3.27 3.27 0 0 0-1.67-1.73.26.26 0 0 0-.37.24c.02.82 0 1.6-.12 2.26-.12.65-.33 1.17-.76 1.5-.2.11-.36.08-.52 0z" style="color:#000;clip-rule:evenodd;fill:#dc1c4b;fill-rule:evenodd;stroke-width:.794142;stroke-linecap:round;stroke-linejoin:round;stroke-miterlimit:1.53333;-inkscape-stroke:none" transform="translate(77.45 -390.45) scale(1.25922)"/><path d="M-56.37 317.52a.95.95 0 0 0-.95.95v7.1c0 .52.43.95.95.95h7.63c.52 0 .95-.43.95-.95v-7.1a.95.95 0 0 0-.95-.95z" style="color:#000;clip-rule:evenodd;fill:#fd913c;fill-rule:evenodd;stroke-width:.794142;stroke-linecap:round;stroke-linejoin:round;stroke-miterlimit:1.53333;-inkscape-stroke:none" transform="translate(77.45 -390.45) scale(1.25922)"/><path d="M-54.14 320.17a.8.8 0 0 0-.8.8c0 .44.37.8.8.8a.8.8 0 0 0 .8-.8.8.8 0 0 0-.8-.8zM-50.97 323.07a.8.8 0 0 0-.8.8c0 .44.36.8.8.8a.8.8 0 0 0 .8-.8.8.8 0 0 0-.8-.8z" style="color:#000;clip-rule:evenodd;fill:#fec397;fill-rule:evenodd;stroke-width:.794142;stroke-linecap:round;stroke-linejoin:round;stroke-miterlimit:1.53333;-inkscape-stroke:none" transform="translate(77.45 -390.45) scale(1.25922)"/><path d="M-56.37 317.52c-.37 0-.7.22-.85.53h6.28a2.62 2.62 45 0 1 2.62 2.62v5.75a.95.95 0 0 0 .53-.85v-7.1a.95.95 0 0 0-.95-.95z" style="color:#000;clip-rule:evenodd;fill:#fd750d;fill-opacity:1;fill-rule:evenodd;stroke-width:.794142;stroke-linecap:round;stroke-linejoin:round;stroke-miterlimit:1.53333;-inkscape-stroke:none" transform="translate(77.45 -390.45) scale(1.25922)"/><path d="M-53.61 317.52v1.86c0 .2.23.33.4.22l.66-.43.64.43c.18.11.41-.01.41-.22v-1.86z" style="color:#000;fill:#66342d;stroke-width:.794142;stroke-linecap:round;stroke-linejoin:round;stroke-miterlimit:1.53333;-inkscape-stroke:none" transform="translate(77.45 -390.45) scale(1.25922)"/><path d="M-50.8 320.63a.8.8 0 0 0-1.13 0l-2.38 2.38a.8.8 0 0 0 0 1.13c.31.3.82.3 1.13 0l2.38-2.39a.8.8 0 0 0 0-1.12z" style="color:#000;fill:#fec397;stroke-width:.794142;stroke-linecap:round;stroke-linejoin:round;stroke-miterlimit:1.53333;-inkscape-stroke:none" transform="translate(77.45 -390.45) scale(1.25922)"/><path d="M-51.5 326.52v-1.32c0-.2-.2-.33-.38-.24l-.44.22-.96-.24a.26.26 0 0 0-.33.26v1.32z" style="color:#000;fill:#66342d;stroke-width:.794142;stroke-linecap:round;stroke-linejoin:round;stroke-miterlimit:1.53333;-inkscape-stroke:none" transform="translate(77.45 -390.45) scale(1.25922)"/><path d="M-57.32 325.99a.26.26 0 0 0-.26.27.26.26 0 0 0 .26.26h9.53a.26.26 0 0 0 .26-.26.26.26 0 0 0-.26-.27z" style="color:#000;fill:#66342d;fill-opacity:1;stroke-width:.794142;stroke-linecap:round;stroke-linejoin:round;stroke-miterlimit:1.53333;-inkscape-stroke:none" transform="translate(77.45 -390.45) scale(1.25922)"/><path d="M-202.63 171.57v2h8v-2z" style="color:#000;fill:#311a12;fill-opacity:1;stroke-width:3.00149;stroke-linecap:round;stroke-linejoin:round;stroke-miterlimit:1.53333;-inkscape-stroke:none" transform="matrix(.33317 0 0 .33317 77.45 -37.78)"/><path d="M-54.16 320.17a.8.8 0 0 0-.74.56.8.8 0 0 1 1 1 .8.8 0 0 0 .56-.76.8.8 0 0 0-.8-.8h-.02zM-51 323.09a.8.8 0 0 0-.74.56.8.8 0 0 1 1 1 .8.8 0 0 0 .57-.76.8.8 0 0 0-.8-.8H-51z" style="color:#000;clip-rule:evenodd;fill:#fd750d;fill-opacity:1;fill-rule:evenodd;stroke-width:.794142;stroke-linecap:round;stroke-linejoin:round;stroke-miterlimit:1.53333;-inkscape-stroke:none" transform="translate(77.45 -390.45) scale(1.25922)"/><path d="M-51.36 320.4a.8.8 0 0 0-.57.23l-2.38 2.38a.8.8 0 0 0-.03 1.1.8.8 0 0 1 .03-.04l2.38-2.38a.8.8 0 0 1 1.16.03.8.8 0 0 0-.6-1.32z" style="color:#000;fill:#fd750d;fill-opacity:1;stroke-width:.794142;stroke-linecap:round;stroke-linejoin:round;stroke-miterlimit:1.53333;-inkscape-stroke:none" transform="translate(77.45 -390.45) scale(1.25922)"/><path d="M-53.61 317.52v.53h.82a.77.77 45 0 1 .76.77v.7l.12.08c.18.11.41-.01.41-.22v-1.86z" style="color:#000;fill:#311a12;fill-opacity:1;stroke-width:.794142;stroke-linecap:round;stroke-linejoin:round;stroke-miterlimit:1.53333;-inkscape-stroke:none" transform="translate(77.45 -390.45) scale(1.25922)"/></g><path d="M-168.77 137.95a1 1 0 0 0-1.36.37c-.93 1.65-3.05 3.05-4.82 3.77 2.39-8.17 1.82-15.13-.14-22.5a1 1 0 0 0-1.68-.23c-3.08 3.18-6.67 3.81-10.63 4.62-3.48.7-7.24 1.58-10.62 4.59 0-1.39.63-2.98 2.44-5.1l-.01-.02a1 1 0 0 0 .4-.71 1 1 0 0 0-.92-1.08c-3.17-.26-6.22.02-8.92 1.31a13.65 13.65 0 0 0-5.73 5.32c-1.59-3.36-3.75-5.48-6.31-6.56a1 1 0 0 0-1.3.54 1 1 0 0 0-.08.51c.06 3.07.02 6-.45 8.46-.46 2.38-1.36 4.2-2.84 5.5-.84.2-1.52.2-2.03-.02a3.86 3.86 0 0 1-1.59-1.5 1 1 0 0 0-.43-.48 1 1 0 0 0-1.36.4 17.7 17.7 0 0 0-2.38 9.23c.17 4.6 2.4 9.13 6.65 13.54 2.5 2.65 5.33 5.7 6.25 9.1V172c0 .56.13 1.1.37 1.57h-.37a1 1 0 0 0 0 2h36a1 1 0 0 0 0-2h-.37c.24-.48.37-1 .37-1.57v-3.17c8.1-4.65 12.62-11.94 13-21.4.11-2.76-.1-5.7-.63-8.82a1 1 0 0 0-.51-.66zm-7.6-16.23c1.92 8.55 1.38 15.83-1.74 22.71a1 1 0 0 0 1.82.82l.35-.75a12.2 12.2 0 0 0 6.05-3.24c.25 2.14.34 4.17.26 6.08-.34 8.49-4.04 14.8-11 19.16v-21.35a3.6 3.6 0 0 0-3.57-3.58h-28.86a3.6 3.6 0 0 0-3.57 3.58v17.12c-1.41-2.19-3.24-4.08-4.81-5.74-4.03-4.18-5.94-8.23-6.1-12.23-.07-2.25.4-4.51 1.45-6.81a4.57 4.57 0 0 0 3.1 1.44 10.18 10.18 0 0 0-.57 6.11 1 1 0 0 0 1.96-.42 7.99 7.99 0 0 1 1.14-6.23c1.98-1.69 3-4.1 3.52-6.77.43-2.26.52-4.74.51-7.3 1.77 1.18 3.29 3.13 4.46 6.26-.84 2-1.46 4.05-1.85 6.15a1 1 0 1 0 1.97.37c.38-2.07 1.01-4.1 1.88-6.08V131l.02-.03c1.55-3.22 3.5-5.1 5.77-6.2 1.78-.85 3.8-1.2 6-1.2-1.88 2.75-2.15 5.21-1.43 7.3.04.14.18.65.51 1.3.4.77 1.05 1.8 2.14 2.93a1 1 0 1 0 1.44-1.39 10.27 10.27 0 0 1-1.99-2.86c3.2-3.35 6.74-4.16 10.51-4.93 3.55-.72 7.33-1.39 10.63-4.2zm-1.8 6.89a1 1 0 0 0-1.01 1.13c.44 3.43-1.09 6.75-1.09 6.75a1 1 0 1 0 1.81.85s1.8-3.7 1.26-7.86a1 1 0 0 0-.97-.87zm-5.91.17c-5.33.1-7.7 4.1-7.7 4.1a1 1 0 0 0 1.74.98s1.74-3.34 6.65-3.08a1 1 0 1 0 .11-1.99c-.27-.01-.54-.02-.8-.01zm-28.98 14.79h10.44v5a1 1 0 0 0 1.54.83l2.45-1.62 2.45 1.62a1 1 0 0 0 1.55-.83v-3a1 1 0 0 0-2 0v1.13l-1.44-.96a1 1 0 0 0-1.12 0l-1.43.96v-3.13h16.42c.89 0 1.57.69 1.57 1.58V172c0 .89-.68 1.57-1.57 1.57h-10.43v-3a1 1 0 0 0-1.45-.89l-1.67.83-3.63-.9a1 1 0 0 0-1.24.96v3h-10.44c-.89 0-1.57-.68-1.57-1.57v-26.85c0-.9.68-1.58 1.57-1.58zm40.4 4a1 1 0 0 0-.96.88 15.72 15.72 0 0 1-2.65 7.18 9.45 9.45 0 0 1-1.94 2.14 1 1 0 0 0 1.17 1.61s1.18-.87 2.4-2.61a17.77 17.77 0 0 0 3-8.08 1 1 0 0 0-1.02-1.12zm-32.03 4a3.03 3.03 0 0 0-2.94 3.02 3.03 3.03 0 0 0 3.02 3.02 3.04 3.04 0 0 0 3.03-3.02 3.04 3.04 0 0 0-3.03-3.02h-.08zm10.56.87a3 3 0 0 0-2.12.88l-9 9a3.02 3.02 0 0 0 0 4.24 3.01 3.01 0 0 0 4.24 0l9-9a3 3 0 0 0-2.12-5.12zm-10.53 1.13h.05a1 1 0 0 1 1.02 1.02c0 .58-.45 1.03-1.02 1.03-.58 0-1.02-.45-1.02-1.03a1 1 0 0 1 .97-1.02zm10.53.86c.26 0 .5.1.71.3.4.4.4 1.01 0 1.41l-9 9c-.4.4-1 .4-1.41 0a.98.98 0 0 1 0-1.41l8.99-9a1 1 0 0 1 .71-.3zm1.48 8.1a3.03 3.03 0 0 0-3.02 3.02 3.03 3.03 0 0 0 3.02 3.02 3.04 3.04 0 0 0 3.02-3.02 3.04 3.04 0 0 0-3.02-3.02zm0 2a1 1 0 0 1 1.02 1.02 1 1 0 0 1-1.02 1.02 1 1 0 0 1-1.02-1.02 1 1 0 0 1 1.02-1.02zm-7.97 7.32 2.75.7a1 1 0 0 0 .7-.08l.54-.27v1.37h-4z" style="color:#000;clip-rule:evenodd;fill:#000;fill-rule:evenodd;stroke-width:3.00149;stroke-linecap:round;stroke-linejoin:round;stroke-miterlimit:1.53333;-inkscape-stroke:none" transform="matrix(.33317 0 0 .33317 77.45 -37.78)"/></g></svg>