<svg xmlns="http://www.w3.org/2000/svg" viewBox="0 0 64 64"><defs><style>.cls-1{fill:#fff}</style></defs><g id="_19-telegram" data-name="19-telegram"><rect width="64" height="64" class="cls-1" rx="11.2" ry="11.2"/><path d="M52.8 1.07A10.14 10.14 0 0 1 62.93 11.2v41.6A10.14 10.14 0 0 1 52.8 62.93H11.2A10.14 10.14 0 0 1 1.07 52.8V11.2A10.14 10.14 0 0 1 11.2 1.07h41.6m0-1.07H11.2A11.19 11.19 0 0 0 0 11.2v41.6A11.19 11.19 0 0 0 11.2 64h41.6A11.19 11.19 0 0 0 64 52.8V11.2A11.19 11.19 0 0 0 52.8 0Z" style="fill:#808285"/><circle cx="32" cy="32" r="28" style="fill:#04acde"/><path d="m26.4 46.2 6.7-5.6-5.77-2.91-.93 8.51z" style="fill:#a8cae1"/><path d="M45.43 20.56 14.78 32a.8.8 0 0 0 .06 1.52l11 3.15a.87.87 0 0 1 .27.14l13.8 10.6a.8.8 0 0 0 1.27-.47l5.3-25.41a.8.8 0 0 0-1.05-.97Z" class="cls-1"/><path d="M23.24 35.88 26.4 46.2l.93-8.51L41.8 24.7 23.24 35.88z" style="fill:#c1d8e9"/></g></svg>